<?xml version="1.0" encoding="iso-8859-1"?>
<!-- Generator: Adobe Illustrator 9.0, SVG Export Plug-In  -->
<!DOCTYPE svg PUBLIC "-//W3C//DTD SVG 20000303 Stylable//EN"   "http://www.w3.org/TR/2000/03/WD-SVG-20000303/DTD/svg-20000303-stylable.dtd" [
	<!ENTITY st0 "fill:url(#aigrd1);stroke:none;">
	<!ENTITY st1 "fill:#000000;stroke:none;">
	<!ENTITY st2 "fill:url(#aigrd6);stroke:none;">
	<!ENTITY st3 "fill:url(#aigrd3);stroke:none;">
	<!ENTITY st4 "fill:#EDA18C;stroke:none;">
	<!ENTITY st5 "opacity:0.45;fill:#ECCFC7;stroke:none;">
	<!ENTITY st6 "fill:#FFFFFF;stroke:none;">
	<!ENTITY st7 "fill:url(#aigrd5);stroke:none;">
	<!ENTITY st8 "fill:url(#aigrd2);stroke:none;">
	<!ENTITY st9 "fill-rule:nonzero;clip-rule:nonzero;fill:none;stroke:#909090;stroke-width:0.9446;stroke-miterlimit:4;">
	<!ENTITY st10 "fill:#BEBEBE;stroke:none;">
	<!ENTITY st11 "fill:none;stroke:none;">
	<!ENTITY st12 "fill-rule:nonzero;clip-rule:nonzero;stroke:#000000;stroke-miterlimit:4;">
	<!ENTITY st13 "fill:url(#aigrd7);stroke:none;">
	<!ENTITY st14 "stroke:none;">
	<!ENTITY st15 "fill:url(#aigrd4);stroke:none;">
]>
<svg  width="51.8pt" height="48pt" viewBox="0 0 51.8 48" xml:space="preserve">
	<g id="Layer_x0020_1" style="&st12;">
		<path style="&st14;" d="M7.1,0.7C4.2,0.7,1.9,3,1.9,5.9v30.8c0,2.9,2.3,5.2,5.2,5.2h27.5c2.9,0,5.2-2.3,5.2-5.2V5.9c0-2.9-2.3-5.2-5.2-5.2H7.1z"/>
		<linearGradient id="aigrd1" gradientUnits="userSpaceOnUse" x1="11.1563" y1="4.9014" x2="30.4715" y2="38.4551">
			<stop  offset="0" style="stop-color:#F0F0F0"/>
			<stop  offset="1" style="stop-color:#D6D6D6"/>
		</linearGradient>
		<path style="&st0;" d="M37.2,36.7c0,1.6-1.3,2.8-2.8,2.8H6.9c-1.6,0-2.8-1.3-2.8-2.8V5.9c0-1.6,1.3-2.8,2.8-2.8h27.5c1.6,0,2.8,1.3,2.8,2.8v30.8z"/>
		<path style="&st6;" d="M5.3,6.9L4.7,38.5C4.2,38.1,4,37.1,4,37.1L4,5.8c0,0,0-0.8,0.7-1.7c0.7-0.9,2-1,2-1l28,0L7.8,4.4C6.7,4.4,6.1,5,5.9,5.2c-0.2,0.2-0.6,1-0.6,1.7z"/>
		<path style="&st10;" d="M36,35.7l0.6-31.6c0.5,0.5,0.6,1.4,0.6,1.4l0,31.3c0,0,0,0.8-0.7,1.7c-0.8,0.9-2,1-2,1l-28,0l26.9-1.3c1.1,0,1.7-0.5,1.9-0.8c0.2-0.2,0.6-1,0.6-1.7z"/>
	</g>
	<g id="Layer_x0020_3" style="&st9;">
		<path d="M33.5,35.4h-26V8h26v27.4z"/>
		<path d="M17.4,35.4V8.1"/>
		<path d="M28.3,35.4h-5.3V8h5.3v27.4z"/>
		<path d="M33.5,35.4h-26v-4.7h26v4.7z"/>
		<path d="M33.5,26.4h-26v-4.7h26v4.7z"/>
		<path d="M33.5,16.9h-26v-4.7h26v4.7z"/>
		<path style="&st1;" d="M24.2,26.6c-3.1,1.9-4.8,4.6-4.8,7.4v2.4c0,2.8,1.7,5.5,4.8,7.4c2.9,1.8,6.8,2.8,10.8,2.8c4.1,0,7.9-1,10.8-2.8c3.1-1.9,4.8-4.6,4.8-7.4V34c0-2.8-1.7-5.5-4.8-7.4c-2.9-1.8-6.8-2.8-10.8-2.8c-4.1,0-7.9,1-10.8,2.8z"/>
		<linearGradient id="aigrd2" gradientUnits="userSpaceOnUse" x1="30.4941" y1="29.4727" x2="39.9548" y2="43.0671">
			<stop  offset="0" style="stop-color:#C09287"/>
			<stop  offset="1" style="stop-color:#803926"/>
		</linearGradient>
		<path style="&st8;" d="M48.7,33.5c-1.7-3.9-7.3-6.7-13.9-6.7c-6.7,0-12.3,2.8-13.9,6.7h-0.5v2.4c0,5,6.5,9.1,14.4,9.1s14.4-4.1,14.4-9.1v-2.4h-0.5z"/>
		<linearGradient id="aigrd3" gradientUnits="userSpaceOnUse" x1="30.3096" y1="27.0752" x2="39.8382" y2="40.7673">
			<stop  offset="0" style="stop-color:#C1553A"/>
			<stop  offset="1" style="stop-color:#803926"/>
		</linearGradient>
		<path style="&st3;" d="M49.2,33.5c0,5-6.5,9.1-14.4,9.1s-14.4-4.1-14.4-9.1c0-5,6.5-9.1,14.4-9.1s14.4,4.1,14.4,9.1z"/>
		<linearGradient id="aigrd4" gradientUnits="userSpaceOnUse" x1="32.8262" y1="32.7109" x2="45.5719" y2="39.7268">
			<stop  offset="0" style="stop-color:#2C7894"/>
			<stop  offset="1" style="stop-color:#0E3D47"/>
		</linearGradient>
		<path style="&st15;" d="M49.2,36.3l0-2.5c-1.6,5.1-5.1,7.3-9.5,8.4v2.3c4.8-1.1,9.1-3.8,9.5-8.2z"/>
		<linearGradient id="aigrd5" gradientUnits="userSpaceOnUse" x1="29.75" y1="24.7676" x2="44.9323" y2="38.2375">
			<stop  offset="0" style="stop-color:#3FA6CC"/>
			<stop  offset="1" style="stop-color:#00687A"/>
		</linearGradient>
		<path style="&st7;" d="M49.2,33.5c-0.3,5.8-7.9,8.4-9.5,8.5l-4.9-8.5h14.4z"/>
		<linearGradient id="aigrd6" gradientUnits="userSpaceOnUse" x1="18.7778" y1="35.543" x2="37.7722" y2="44.424">
			<stop  offset="0" style="stop-color:#E8F066"/>
			<stop  offset="1" style="stop-color:#777A34"/>
		</linearGradient>
		<path style="&st2;" d="M31.8,44.8v-2.4c2.7,0.3,5.2,0.4,7.9-0.2l0,2.3c-2.3,0.7-5.8,0.7-7.9,0.3z"/>
		<linearGradient id="aigrd7" gradientUnits="userSpaceOnUse" x1="23.7065" y1="30.1416" x2="39.9166" y2="43.3837">
			<stop  offset="0" style="stop-color:#E8F066"/>
			<stop  offset="1" style="stop-color:#949941"/>
		</linearGradient>
		<path style="&st13;" d="M34.8,33.5l4.9,8.5c-3,1.1-7.9,0.3-7.9,0.3l3-8.9z"/>
		<path style="&st5;" d="M44.5,26.8c0,0,5.2,2.7,4.7,7.1c-0.4,4.4-6.9,10-17.6,8.5c10.7,0.6,16.5-4.8,16.9-8.3c0.4-3.5-2.1-5.8-4.1-7.3z"/>
		<path style="&st4;" d="M30.2,42.1c-4.2-0.7-9.9-4.1-9.8-8.8c0.2-4.4,6.3-9.7,17.1-8.7c-10.8-0.5-16.3,4.4-16.5,8.5c-0.2,3.8,4.5,8.1,9.1,9z"/>
	</g>
	<g id="Layer_x0020_4" style="&st12;">
		<path style="&st11;" d="M51.8,48H0V0h51.8v48z"/>
	</g>
</svg>
