<?xml version="1.0" encoding="iso-8859-1"?>
<!-- Generator: Adobe Illustrator 9.0, SVG Export Plug-In  -->
<!DOCTYPE svg PUBLIC "-//W3C//DTD SVG 20000303 Stylable//EN"   "http://www.w3.org/TR/2000/03/WD-SVG-20000303/DTD/svg-20000303-stylable.dtd" [
	<!ENTITY st0 "opacity:0.22;stroke:none;">
	<!ENTITY st1 "fill:url(#aigrd14);stroke:none;">
	<!ENTITY st2 "fill:url(#aigrd1);stroke:none;">
	<!ENTITY st3 "fill:#000000;stroke:none;">
	<!ENTITY st4 "fill:#535445;stroke:none;">
	<!ENTITY st5 "fill:url(#aigrd11);stroke:none;">
	<!ENTITY st6 "fill:url(#aigrd9);stroke:none;">
	<!ENTITY st7 "fill:#CAD071;stroke:none;">
	<!ENTITY st8 "fill:url(#aigrd6);stroke:none;">
	<!ENTITY st9 "fill:url(#aigrd3);stroke:none;">
	<!ENTITY st10 "fill-rule:nonzero;clip-rule:nonzero;fill:#FFFFFF;stroke:#000000;stroke-miterlimit:4;">
	<!ENTITY st11 "fill:#A3A76A;stroke:none;">
	<!ENTITY st12 "fill:url(#aigrd10);stroke:none;">
	<!ENTITY st13 "fill:url(#aigrd8);stroke:none;">
	<!ENTITY st14 "fill:#FFFFFF;stroke:none;">
	<!ENTITY st15 "fill:url(#aigrd5);stroke:none;">
	<!ENTITY st16 "opacity:0.55;fill:#FFFFFF;stroke:none;">
	<!ENTITY st17 "opacity:0.36;fill:#FFFFFF;stroke:none;">
	<!ENTITY st18 "fill:url(#aigrd15);stroke:none;">
	<!ENTITY st19 "fill:url(#aigrd2);stroke:none;">
	<!ENTITY st20 "fill:#BEBEBE;stroke:none;">
	<!ENTITY st21 "fill:none;stroke:none;">
	<!ENTITY st22 "fill:url(#aigrd12);stroke:none;">
	<!ENTITY st23 "opacity:8.000000e-002;stroke:none;">
	<!ENTITY st24 "fill:#F0F970;stroke:none;">
	<!ENTITY st25 "fill-rule:nonzero;clip-rule:nonzero;stroke:#000000;stroke-miterlimit:4;">
	<!ENTITY st26 "fill:url(#aigrd7);stroke:none;">
	<!ENTITY st27 "stroke:none;">
	<!ENTITY st28 "fill:#2A2A26;stroke:none;">
	<!ENTITY st29 "fill:url(#aigrd4);stroke:none;">
	<!ENTITY st30 "opacity:0.53;fill:url(#aigrd13);stroke:none;">
	<!ENTITY st31 "fill:#7B7D5B;stroke:none;">
]>
<svg  width="44.6pt" height="48pt" viewBox="0 0 44.6 48" xml:space="preserve">
	<g id="Layer_x0020_1" style="&st10;">
		<path style="&st3;" d="M9.3,2.6c-2.9,0-5.2,2.3-5.2,5.2v30.8c0,2.9,2.3,5.2,5.2,5.2h27.5c2.9,0,5.2-2.3,5.2-5.2V7.8c0-2.9-2.3-5.2-5.2-5.2H9.3z"/>
		<linearGradient id="aigrd1" gradientUnits="userSpaceOnUse" x1="13.375" y1="6.7632" x2="32.6902" y2="40.3169">
			<stop  offset="0" style="stop-color:#F0F0F0"/>
			<stop  offset="1" style="stop-color:#D6D6D6"/>
		</linearGradient>
		<path style="&st2;" d="M39.4,38.6c0,1.6-1.3,2.8-2.8,2.8H9.1c-1.6,0-2.8-1.3-2.8-2.8V7.8c0-1.6,1.3-2.8,2.8-2.8h27.5c1.6,0,2.8,1.3,2.8,2.8v30.8z"/>
		<g>
			<radialGradient id="aigrd2" cx="9.0605" cy="29.7285" r="1.247" fx="9.0605" fy="29.7285" gradientUnits="userSpaceOnUse">
				<stop  offset="0" style="stop-color:#F0F0F0"/>
				<stop  offset="1" style="stop-color:#474747"/>
			</radialGradient>
			<path style="&st19;" d="M9.7,29.4c0,0.5-0.4,0.8-0.8,0.8S8,29.8,8,29.4s0.4-0.8,0.8-0.8s0.8,0.4,0.8,0.8z"/>
			<radialGradient id="aigrd3" cx="9.0605" cy="17.8711" r="1.247" fx="9.0605" fy="17.8711" gradientUnits="userSpaceOnUse">
				<stop  offset="0" style="stop-color:#F0F0F0"/>
				<stop  offset="1" style="stop-color:#474747"/>
			</radialGradient>
			<path style="&st9;" d="M9.7,17.5c0,0.5-0.4,0.8-0.8,0.8S8,18,8,17.5c0-0.5,0.4-0.8,0.8-0.8s0.8,0.4,0.8,0.8z"/>
		</g>
		<path style="&st27;" d="M11.6,41.4h-0.4V5.6h0.4v35.8z"/>
		<linearGradient id="aigrd4" gradientUnits="userSpaceOnUse" x1="11.2563" y1="6.5542" x2="10.8333" y2="40.0826">
			<stop  offset="0" style="stop-color:#EDEDED"/>
			<stop  offset="1" style="stop-color:#CACACA"/>
		</linearGradient>
		<path style="&st29;" d="M11.2,41.4h-0.4V5.6h0.4v35.8z"/>
		<path style="&st27;" d="M7.5,8.8L6.9,40.4c-0.5-0.5-0.6-1.4-0.6-1.4l0-31.3c0,0,0-0.8,0.7-1.7c0.7-0.9,2-1,2-1l28,0L10,6.3c-1.1,0-1.7,0.5-1.9,0.8c-0.2,0.2-0.6,1-0.6,1.7z"/>
		<path style="&st20;" d="M38.2,37.6L38.9,6c0.5,0.5,0.6,1.4,0.6,1.4l0,31.3c0,0,0,0.8-0.7,1.7c-0.8,0.9-2,1-2,1l-28,0l26.9-1.3c1.1,0,1.7-0.5,1.9-0.8c0.2-0.2,0.6-1,0.6-1.7z"/>
	</g>
	<g id="Layer_x0020_4" style="&st25;">
		<path style="&st21;" d="M44.6,48H0V0h44.6v48z"/>
	</g>
	<g id="Layer_x0020_5" style="&st25;">
		<path style="&st27;" d="M35.9,20.4c0,0-0.4-0.1-0.5-0.1c-0.3-0.3-0.7-0.4-1.1-0.4c0,0-1.1-0.3-1.5-0.4c0.3-2.2,0.9-3,1.1-3.1c0.4-0.2,0.7-0.6,0.7-1.1l0-0.1c0-0.5-0.4-0.9-0.9-1l-10.1-2.7c-0.3-0.1-0.5,0-0.8,0.1c-1.3,0.6-2.1,2.2-2.4,4.9
			c-1.1,0.4-2.4,1.7-3.9,3.9c-0.1,0.1-1.9,1.5-1.9,1.5c-0.3,0.2-0.5,0.6-0.5,0.9v5.5c0,0.5,0.3,1,0.8,1.1c0,0,13.5,4.7,13.5,4.7c0.4,0.1,0.9,0,1.2-0.3l6.5-6.1c0.2-0.2,0.4-0.5,0.4-0.8l0.1-5.2c0,0,0,0,0,0c0-0.5-0.3-1-0.8-1.1z"/>
		<linearGradient id="aigrd5" gradientUnits="userSpaceOnUse" x1="29.1836" y1="30.3838" x2="35.6164" y2="22.8106">
			<stop  offset="0" style="stop-color:#9F9F9F"/>
			<stop  offset="1" style="stop-color:#828282"/>
		</linearGradient>
		<path style="&st15;" d="M35.5,21.9l-0.1,4.5c0,0.2-0.1,0.3-0.2,0.4l-5.9,5.5c-0.2,0.2-0.4,0-0.4-0.2v-4.8l6.4-5.6l0.3,0.2z"/>
		<linearGradient id="aigrd6" gradientUnits="userSpaceOnUse" x1="16.3271" y1="27.2676" x2="27.7812" y2="28.0926">
			<stop  offset="0" style="stop-color:#F8F8F8"/>
			<stop  offset="1" style="stop-color:#B5B5B5"/>
		</linearGradient>
		<path style="&st8;" d="M15.7,28.3c0.3,0.1,12.4,4.3,12.4,4.3c0.2,0.1,0.6,0,0.6-0.5l0-4.7l-13.1-4.5c-0.3-0.1-0.5,0.1-0.5,0.3c0,0,0,4.1,0,4.4c0,0.4,0.2,0.6,0.5,0.7z"/>
		<linearGradient id="aigrd7" gradientUnits="userSpaceOnUse" x1="31.9893" y1="22.0615" x2="22.1032" y2="22.5146">
			<stop  offset="0" style="stop-color:#CFCFCF"/>
			<stop  offset="1" style="stop-color:#FFFFFF"/>
		</linearGradient>
		<path style="&st26;" d="M35.1,21.3l-13.2-3.9l-6.3,4.9c-0.2,0.2,0.1,0.5,0.1,0.5l13.1,4.5l6.4-5.6l-0.1-0.4z"/>
		<linearGradient id="aigrd8" gradientUnits="userSpaceOnUse" x1="29.6865" y1="25.9678" x2="33.8084" y2="21.1152">
			<stop  offset="0" style="stop-color:#9F9F9F"/>
			<stop  offset="1" style="stop-color:#828282"/>
		</linearGradient>
		<path style="&st13;" d="M28.9,26.6l5.8-5.2c0,0-0.8-1.4-3,0.8c-2.2,2.2-2.9,4.4-2.9,4.4z"/>
		<linearGradient id="aigrd9" gradientUnits="userSpaceOnUse" x1="17.6499" y1="23.4097" x2="37.2836" y2="19.5425">
			<stop  offset="0" style="stop-color:#F8F8F8"/>
			<stop  offset="1" style="stop-color:#B5B5B5"/>
		</linearGradient>
		<path style="&st6;" d="M34.1,21l-12.8-3.7c-1.7,0-4.9,5-4.9,5l12.4,4.2c0.2-0.7,3.2-5.6,5.2-5.6z"/>
		<linearGradient id="aigrd10" gradientUnits="userSpaceOnUse" x1="24.6133" y1="20.2622" x2="19.5388" y2="20.6246">
			<stop  offset="0" style="stop-color:#F8F8F8"/>
			<stop  offset="1" style="stop-color:#343434"/>
		</linearGradient>
		<path style="&st12;" d="M21.4,18l-1.3,1.3l10,3l1.3-1.3l-10-3z"/>
		<linearGradient id="aigrd11" gradientUnits="userSpaceOnUse" x1="27.4854" y1="15.2939" x2="26.7454" y2="28.0162">
			<stop  offset="0" style="stop-color:#FFFFFF"/>
			<stop  offset="1" style="stop-color:#BEBEBE"/>
		</linearGradient>
		<path style="&st5;" d="M33.3,15.2l-10.1-2.7c-2.1,0.9-1.8,7.2-1.8,7.2l8.6,2.7l1.3-1.3c0,0,0.1-5.1,1.9-5.9z"/>
		<linearGradient id="aigrd12" gradientUnits="userSpaceOnUse" x1="28.0723" y1="26.7061" x2="25.0226" y2="25.7802">
			<stop  offset="0" style="stop-color:#F0F0F0"/>
			<stop  offset="1" style="stop-color:#FFFFFF"/>
		</linearGradient>
		<path style="&st22;" d="M15.6,22.5l-0.2,0.3c0,0,13,4.4,13.2,4.6c0.2,0.3,0.2,4.3,0.2,4.3s0.1-3.9,0.2-4.3c0.2-0.3,4.1-3.9,4.1-3.9s-4.2,3.6-4.4,3.6s-13.1-4.6-13.1-4.6z"/>
		<g>
			<g>
				<path style="&st27;" d="M27.6,28.1l0,0.5l-1.3-0.5l0-0.5l1.3,0.5z"/>
				<path style="&st28;" d="M27.6,28.1l0,0.5l-1.2-0.5l0-0.4l1.2,0.4z"/>
				<path style="&st4;" d="M27.6,28.1l0,0.4l-1-0.4l0-0.4l1.1,0.4z"/>
				<path style="&st31;" d="M27.5,28.1l0,0.4l-0.9-0.4l0-0.3l0.9,0.3z"/>
				<path style="&st11;" d="M27.5,28.1l0,0.3l-0.8-0.3l0-0.3l0.8,0.3z"/>
				<path style="&st7;" d="M27.5,28.1l0,0.3l-0.6-0.2l0-0.2l0.7,0.2z"/>
				<path style="&st24;" d="M27.5,28.1l0,0.2l-0.5-0.2l0-0.2l0.5,0.2z"/>
			</g>
		</g>
		<path style="&st14;" d="M15.3,23.1c0-0.3,0.1-0.5,0.4-0.7c0,0-0.1,0.2,0.1,0.5c-0.3-0.1-0.4,0.3-0.4,0.3z"/>
		<path style="&st23;" d="M33,15.3c-1.3,0.6-1.8,4.9-1.6,5.7l-0.2,0.2c-0.2-0.6,0.3-5.7,1.8-5.9z"/>
		<path style="&st0;" d="M23.4,13.7l7.7,2c-0.3,0.2-0.5,1-0.5,1L23,14.6c0,0,0.1-0.8,0.4-0.9z"/>
		<path style="&st0;" d="M22.8,15.6l-0.2,1l7.5,2l0.2-1l-7.6-2z"/>
		<path style="&st0;" d="M22.5,17.5l0,1.1l7.5,2l0.1-1.1l-7.5-2z"/>
		<path style="&st17;" d="M20.1,19.3l10,3.4l1.3-1.6l-1.3,1.3l-9.9-3.1z"/>
		<path style="&st0;" d="M31.4,21.1l1.7,0.2c0.3-0.2,0.7-0.3,1-0.3l-2.6-0.8l-0.1,0.9z"/>
		<path style="&st16;" d="M28.9,26.6c0.2-1.3,3.3-5.5,5.2-5.6c-2.9,0.2-5.4,5-5.2,5.6z"/>
		<path style="&st14;" d="M16.4,22.3c0.9-1.3,3.3-4.3,4.8-5c-1.8,0.2-4.2,4-4.8,5z"/>
		<linearGradient id="aigrd13" gradientUnits="userSpaceOnUse" x1="26.3105" y1="20.4912" x2="26.0461" y2="21.6506">
			<stop  offset="0" style="stop-color:#F8F8F8"/>
			<stop  offset="1" style="stop-color:#343434"/>
		</linearGradient>
		<path style="&st30;" d="M21.5,19.7l8.6,2.7l1-1c-0.8,0.3-9.6-1.7-9.6-1.7z"/>
		<linearGradient id="aigrd14" gradientUnits="userSpaceOnUse" x1="28.7334" y1="32.1064" x2="28.7334" y2="32.4332">
			<stop  offset="0" style="stop-color:#9F9F9F"/>
			<stop  offset="1" style="stop-color:#828282"/>
		</linearGradient>
		<path style="&st1;" d="M28.8,31.9c0,0-0.2,0.6-0.6,0.7c0.3,0.1,0.7,0.1,0.9-0.2c-0.2,0-0.4-0.5-0.4-0.5z"/>
		<linearGradient id="aigrd15" gradientUnits="userSpaceOnUse" x1="35.0664" y1="21.9097" x2="35.35" y2="21.5758">
			<stop  offset="0" style="stop-color:#9F9F9F"/>
			<stop  offset="1" style="stop-color:#AAAAAA"/>
		</linearGradient>
		<path style="&st18;" d="M35.1,21.3c0.2,0,0.4,0.3,0.4,0.6c0,0-0.3-0.2-0.5,0c0.2-0.3,0.2-0.6,0.2-0.6z"/>
	</g>
</svg>
