<?xml version="1.0" encoding="iso-8859-1"?>
<!-- Generator: Adobe Illustrator 9.0, SVG Export Plug-In  -->
<!DOCTYPE svg PUBLIC "-//W3C//DTD SVG 20000303 Stylable//EN"   "http://www.w3.org/TR/2000/03/WD-SVG-20000303/DTD/svg-20000303-stylable.dtd" [
	<!ENTITY st0 "fill:url(#aigrd1);stroke:none;">
	<!ENTITY st1 "fill:#000000;stroke:none;">
	<!ENTITY st2 "opacity:0.35;">
	<!ENTITY st3 "fill:url(#aigrd3);stroke:none;">
	<!ENTITY st4 "fill:#F8310E;stroke:none;">
	<!ENTITY st5 "fill-rule:nonzero;clip-rule:nonzero;fill:#FFFFFF;stroke:#000000;stroke-miterlimit:4;">
	<!ENTITY st6 "fill:url(#aigrd2);stroke:none;">
	<!ENTITY st7 "fill:#BEBEBE;stroke:none;">
	<!ENTITY st8 "fill:none;stroke:none;">
	<!ENTITY st9 "fill-rule:evenodd;clip-rule:evenodd;stroke:none;">
	<!ENTITY st10 "fill-rule:nonzero;clip-rule:nonzero;stroke:#000000;stroke-miterlimit:4;">
	<!ENTITY st11 "stroke:none;">
	<!ENTITY st12 "fill:url(#aigrd4);stroke:none;">
]>
<svg  width="43pt" height="48pt" viewBox="0 0 43 48" xml:space="preserve">
	<g id="Layer_x0020_1" style="&st5;">
		<path style="&st1;" d="M7.7,2.6c-2.9,0-5.2,2.3-5.2,5.2v30.8c0,2.9,2.3,5.2,5.2,5.2h27.5c2.9,0,5.2-2.3,5.2-5.2V7.8c0-2.9-2.3-5.2-5.2-5.2H7.7z"/>
		<linearGradient id="aigrd1" gradientUnits="userSpaceOnUse" x1="11.7905" y1="6.7632" x2="31.1057" y2="40.3169">
			<stop  offset="0" style="stop-color:#F0F0F0"/>
			<stop  offset="1" style="stop-color:#D6D6D6"/>
		</linearGradient>
		<path style="&st0;" d="M37.8,38.6c0,1.6-1.3,2.8-2.8,2.8H7.5c-1.6,0-2.8-1.3-2.8-2.8V7.8c0-1.6,1.3-2.8,2.8-2.8H35c1.6,0,2.8,1.3,2.8,2.8v30.8z"/>
		<g>
			<radialGradient id="aigrd2" cx="7.4761" cy="29.7285" r="1.247" fx="7.4761" fy="29.7285" gradientUnits="userSpaceOnUse">
				<stop  offset="0" style="stop-color:#F0F0F0"/>
				<stop  offset="1" style="stop-color:#474747"/>
			</radialGradient>
			<path style="&st6;" d="M8.1,29.4c0,0.5-0.4,0.8-0.8,0.8s-0.8-0.4-0.8-0.8s0.4-0.8,0.8-0.8s0.8,0.4,0.8,0.8z"/>
			<radialGradient id="aigrd3" cx="7.4761" cy="17.8711" r="1.247" fx="7.4761" fy="17.8711" gradientUnits="userSpaceOnUse">
				<stop  offset="0" style="stop-color:#F0F0F0"/>
				<stop  offset="1" style="stop-color:#474747"/>
			</radialGradient>
			<path style="&st3;" d="M8.1,17.5c0,0.5-0.4,0.8-0.8,0.8S6.4,18,6.4,17.5c0-0.5,0.4-0.8,0.8-0.8s0.8,0.4,0.8,0.8z"/>
		</g>
		<path style="&st11;" d="M10,41.4H9.7V5.6H10v35.8z"/>
		<linearGradient id="aigrd4" gradientUnits="userSpaceOnUse" x1="9.6719" y1="6.5542" x2="9.2488" y2="40.0826">
			<stop  offset="0" style="stop-color:#EDEDED"/>
			<stop  offset="1" style="stop-color:#CACACA"/>
		</linearGradient>
		<path style="&st12;" d="M9.6,41.4H9.3V5.6h0.4v35.8z"/>
		<path style="&st11;" d="M5.9,8.8L5.3,40.4c-0.5-0.5-0.6-1.4-0.6-1.4l0-31.3c0,0,0-0.8,0.7-1.7c0.7-0.9,2-1,2-1l28,0L8.4,6.3c-1.1,0-1.7,0.5-1.9,0.8c-0.2,0.2-0.6,1-0.6,1.7z"/>
		<path style="&st7;" d="M36.7,37.6L37.3,6c0.5,0.5,0.6,1.4,0.6,1.4l0,31.3c0,0,0,0.8-0.7,1.7c-0.8,0.9-2,1-2,1l-28,0l26.9-1.3c1.1,0,1.7-0.5,1.9-0.8c0.2-0.2,0.6-1,0.6-1.7z"/>
	</g>
	<g id="Layer_x0020_5" style="&st10;">
		<g>
			<path style="&st9;" d="M33.7,30.3c0,0.3,0.3,0.6,0.6,0.6c0.3,0,0.6-0.3,0.6-0.6c0-0.3-0.3-0.6-0.6-0.6c-0.3,0-0.6,0.3-0.6,0.6z M33.6,30.3c0-0.4,0.3-0.7,0.7-0.7c0.4,0,0.7,0.3,0.7,0.7c0,0.4-0.3,0.7-0.7,0.7c-0.4,0-0.7-0.3-0.7-0.7z"/>
			<g>
				<path style="&st11;" d="M34,30.7V30h0.3c0.1,0,0.1,0,0.1,0c0,0,0.1,0,0.1,0.1c0,0,0,0.1,0,0.1c0,0.1,0,0.1-0.1,0.1c0,0-0.1,0.1-0.2,0.1c0,0,0,0,0.1,0c0,0,0.1,0.1,0.1,0.1l0.1,0.2h-0.1l-0.1-0.2c0,0-0.1-0.1-0.1-0.1c0,0,0,0,0,0c0,0,0,0,0,0c0,0,0,0-0.1,0h-0.1
					v0.3H34z M34.1,30.3h0.2c0,0,0.1,0,0.1,0c0,0,0,0,0.1,0c0,0,0,0,0-0.1c0,0,0-0.1,0-0.1c0,0-0.1,0-0.1,0h-0.2v0.2z"/>
			</g>
		</g>
		<g style="&st2;">
			<path style="&st8;" d="M23.6,11.2c-2.5,2.2,8.4,21.9,11,16.9c2.9-5.7-26.1,6.3-19.8,8c7.3,1.9,13.5-29,8.8-24.8z"/>
			<path style="&st11;" d="M22.9,11c-3,3.9,7.1,21.9,11.8,17.7c2.6-2.3-1.1-3-2.9-2.7c-5,0.9-10.1,3-14.5,5.5c-0.9,0.5-6.4,3.5-3.7,5c3.1,1.7,6.1-2.8,7.2-4.8c2.9-5,4.4-11.3,4.9-17.1c0.2-1.8,0.1-6-2.7-3.9c-0.9,0.7-0.3,1.6,0.6,0.9c0.4-0.3,0.3,5,0.2,5.5
				c-0.5,3.4-1.4,6.7-2.5,10c-1,2.7-2.4,6.8-5.1,8.2c-2.1,1.1-1.5-0.8-0.5-1.5c1.2-0.9,2.6-1.6,3.9-2.2c2.8-1.4,5.7-2.5,8.7-3.4c1.1-0.4,2.3-0.6,3.5-0.8c1.9-0.3,2,1.3,0.7,0.5c-2.6-1.5-4.4-5.1-5.8-7.6c-0.9-1.6-4.2-7-2.8-8.9c0.7-0.9-0.8-0.9-1.3-0.3z"/>
		</g>
		<g>
			<path style="&st8;" d="M22.6,10.7c-2.5,2.2,8.4,21.9,11,16.9c2.9-5.7-26.1,6.3-19.8,8c7.3,1.9,13.5-29,8.8-24.8z"/>
			<path style="&st4;" d="M21.9,10.6c-3,3.9,7.1,21.9,11.8,17.7c2.6-2.3-1.1-3-2.9-2.7c-5,0.9-10.1,3-14.5,5.5c-0.9,0.5-6.4,3.5-3.7,5c3.1,1.7,6.1-2.8,7.2-4.8c2.9-5,4.4-11.3,4.9-17.1c0.2-1.8,0.1-6-2.7-3.9c-0.9,0.7-0.3,1.6,0.6,0.9c0.4-0.3,0.3,5,0.2,5.5
				c-0.5,3.4-1.4,6.7-2.5,10c-1,2.7-2.4,6.8-5.1,8.2c-2.1,1.1-1.5-0.8-0.5-1.5c1.2-0.9,2.6-1.6,3.9-2.2c2.8-1.4,5.7-2.5,8.7-3.4c1.1-0.4,2.3-0.6,3.5-0.8c1.9-0.3,2,1.3,0.7,0.5c-2.6-1.5-4.4-5.1-5.8-7.6c-0.9-1.6-4.2-7-2.8-8.9c0.7-0.9-0.8-0.9-1.3-0.3z"/>
		</g>
	</g>
	<g id="Layer_x0020_4" style="&st10;">
		<path style="&st8;" d="M43,48H0V0h43v48z"/>
	</g>
</svg>
