<?xml version="1.0" encoding="iso-8859-1"?>
<!-- Generator: Adobe Illustrator 9.0, SVG Export Plug-In  -->
<!DOCTYPE svg PUBLIC "-//W3C//DTD SVG 20000303 Stylable//EN"   "http://www.w3.org/TR/2000/03/WD-SVG-20000303/DTD/svg-20000303-stylable.dtd" [
	<!ENTITY st0 "fill:url(#aigrd1);stroke:none;">
	<!ENTITY st1 "opacity:0.6833;fill:#F7FCB7;stroke:none;">
	<!ENTITY st2 "fill:#000000;stroke:none;">
	<!ENTITY st3 "opacity:0.2;stroke:none;">
	<!ENTITY st4 "fill:url(#aigrd6);stroke:none;">
	<!ENTITY st5 "opacity:0.525;fill:#F4FA95;stroke:none;">
	<!ENTITY st6 "opacity:0.3667;fill:#F0F972;stroke:none;">
	<!ENTITY st7 "opacity:0.8417;fill:#FBFDDB;stroke:none;">
	<!ENTITY st8 "fill:url(#aigrd3);stroke:none;">
	<!ENTITY st9 "opacity:0.3;stroke:none;">
	<!ENTITY st10 "fill-rule:nonzero;clip-rule:nonzero;fill:#FFFFFF;stroke:#000000;stroke-miterlimit:4;">
	<!ENTITY st11 "fill:#FFFFFF;stroke:none;">
	<!ENTITY st12 "opacity:5.000000e-002;fill:#E8F52F;stroke:none;">
	<!ENTITY st13 "fill:url(#aigrd5);stroke:none;">
	<!ENTITY st14 "fill:url(#aigrd2);stroke:none;">
	<!ENTITY st15 "fill:#BEBEBE;stroke:none;">
	<!ENTITY st16 "fill:none;stroke:none;">
	<!ENTITY st17 "opacity:0.2083;fill:#ECF751;stroke:none;">
	<!ENTITY st18 "fill:#515151;stroke:none;">
	<!ENTITY st19 "fill-rule:nonzero;clip-rule:nonzero;stroke:#000000;stroke-miterlimit:4;">
	<!ENTITY st20 "stroke:none;">
	<!ENTITY st21 "fill:url(#aigrd4);stroke:none;">
]>
<svg  width="43.9pt" height="48pt" viewBox="0 0 43.9 48" xml:space="preserve">
	<g id="Layer_x0020_1" style="&st10;">
		<path style="&st2;" d="M8.1,3.6c-2.9,0-5.2,2.3-5.2,5.2v30.8c0,2.9,2.3,5.2,5.2,5.2h27.5c2.9,0,5.2-2.3,5.2-5.2V8.8c0-2.9-2.3-5.2-5.2-5.2H8.1z"/>
		<linearGradient id="aigrd1" gradientUnits="userSpaceOnUse" x1="12.1387" y1="7.7627" x2="31.4539" y2="41.3164">
			<stop  offset="0" style="stop-color:#F0F0F0"/>
			<stop  offset="1" style="stop-color:#D6D6D6"/>
		</linearGradient>
		<path style="&st0;" d="M38.2,39.6c0,1.6-1.3,2.8-2.8,2.8H7.9c-1.6,0-2.8-1.3-2.8-2.8V8.8c0-1.6,1.3-2.8,2.8-2.8h27.5c1.6,0,2.8,1.3,2.8,2.8v30.8z"/>
		<g>
			<radialGradient id="aigrd2" cx="7.8247" cy="30.7285" r="1.247" fx="7.8247" fy="30.7285" gradientUnits="userSpaceOnUse">
				<stop  offset="0" style="stop-color:#F0F0F0"/>
				<stop  offset="1" style="stop-color:#474747"/>
			</radialGradient>
			<path style="&st14;" d="M8.4,30.4c0,0.5-0.4,0.8-0.8,0.8s-0.8-0.4-0.8-0.8s0.4-0.8,0.8-0.8s0.8,0.4,0.8,0.8z"/>
			<radialGradient id="aigrd3" cx="7.8247" cy="18.8711" r="1.247" fx="7.8247" fy="18.8711" gradientUnits="userSpaceOnUse">
				<stop  offset="0" style="stop-color:#F0F0F0"/>
				<stop  offset="1" style="stop-color:#474747"/>
			</radialGradient>
			<path style="&st8;" d="M8.4,18.5c0,0.5-0.4,0.8-0.8,0.8S6.7,19,6.7,18.5c0-0.5,0.4-0.8,0.8-0.8s0.8,0.4,0.8,0.8z"/>
		</g>
		<path style="&st20;" d="M10.4,42.4H10V6.6h0.4v35.8z"/>
		<linearGradient id="aigrd4" gradientUnits="userSpaceOnUse" x1="10.0195" y1="7.5537" x2="9.5965" y2="41.0821">
			<stop  offset="0" style="stop-color:#EDEDED"/>
			<stop  offset="1" style="stop-color:#CACACA"/>
		</linearGradient>
		<path style="&st21;" d="M10,42.4H9.6V6.6H10v35.8z"/>
		<path style="&st20;" d="M6.3,9.8L5.7,41.4C5.2,40.9,5,39.9,5,39.9L5,8.7c0,0,0-0.8,0.7-1.7c0.7-0.9,2-1,2-1l28,0L8.8,7.3c-1.1,0-1.7,0.5-1.9,0.8c-0.2,0.2-0.6,1-0.6,1.7z"/>
		<path style="&st15;" d="M37,38.6L37.6,7c0.5,0.5,0.6,1.4,0.6,1.4l0,31.3c0,0,0,0.8-0.7,1.7c-0.8,0.9-2,1-2,1l-28,0l26.9-1.3c1.1,0,1.7-0.5,1.9-0.8c0.2-0.2,0.6-1,0.6-1.7z"/>
	</g>
	<g id="Layer_x0020_2" style="&st19;">
		<path style="&st16;" d="M43.9,48H0V0h43.9v48z"/>
	</g>
	<g id="Layer_x0020_4" style="&st19;">
		<linearGradient id="aigrd5" gradientUnits="userSpaceOnUse" x1="18.625" y1="26.3604" x2="18.6395" y2="23.5268">
			<stop  offset="0" style="stop-color:#163069"/>
			<stop  offset="1" style="stop-color:#83A1CB"/>
		</linearGradient>
		<path style="&st13;" d="M23.4,26.1h-9.5v-7.3h9.5v7.3z"/>
		<linearGradient id="aigrd6" gradientUnits="userSpaceOnUse" x1="18.6455" y1="24.2773" x2="18.6455" y2="17.8771">
			<stop  offset="0" style="stop-color:#D0D6E5"/>
			<stop  offset="1" style="stop-color:#093A80"/>
		</linearGradient>
		<path style="&st4;" d="M14,18.9h9.3v4.4H14v-4.4z"/>
		<g>
			<g>
				<path style="&st12;" d="M17.5,20.9c0,0.8-0.6,1.5-1.3,1.5s-1.3-0.7-1.3-1.5c0-0.8,0.6-1.5,1.3-1.5s1.3,0.7,1.3,1.5z"/>
				<path style="&st17;" d="M17.4,20.9c0,0.7-0.5,1.3-1.2,1.3S15,21.6,15,20.9c0-0.7,0.5-1.3,1.2-1.3s1.2,0.6,1.2,1.3z"/>
				<path style="&st6;" d="M17.2,20.9c0,0.7-0.5,1.2-1.1,1.2s-1.1-0.5-1.1-1.2c0-0.7,0.5-1.2,1.1-1.2s1.1,0.5,1.1,1.2z"/>
				<path style="&st5;" d="M17.1,20.9c0,0.6-0.4,1.1-0.9,1.1s-0.9-0.5-0.9-1.1c0-0.6,0.4-1.1,0.9-1.1s0.9,0.5,0.9,1.1z"/>
				<path style="&st1;" d="M17,20.9c0,0.5-0.4,0.9-0.8,0.9s-0.8-0.4-0.8-0.9c0-0.5,0.4-0.9,0.8-0.9s0.8,0.4,0.8,0.9z"/>
				<path style="&st7;" d="M16.9,20.9c0,0.4-0.3,0.8-0.7,0.8s-0.7-0.3-0.7-0.8c0-0.4,0.3-0.8,0.7-0.8s0.7,0.3,0.7,0.8z"/>
				<path style="&st11;" d="M16.7,20.9c0,0.4-0.3,0.6-0.6,0.6s-0.6-0.3-0.6-0.6c0-0.4,0.3-0.6,0.6-0.6s0.6,0.3,0.6,0.6z"/>
			</g>
		</g>
		<path style="&st9;" d="M21.7,24.2h-1.5l2.8,1.6l-1.3-1.6z"/>
		<path style="&st18;" d="M19.3,24h2.4l0.4-0.3h-0.8c0,0,0.7-0.2,0.8-1.1s-1.1-2-1.1-2s0,0,0,0c0,0.2,0.3,1.7,0.1,2.4c-0.1,0.5-0.4,0.6-0.4,0.6h-1.5l0.1,0.3z"/>
		<path style="&st18;" d="M20.7,23.6h-1.4l1.6-2.8l-0.2,2.8z"/>
		<path style="&st3;" d="M34.9,38.2h-9.4v-28h9.4v28z"/>
		<path style="&st3;" d="M23.3,38.2h-9.4v-9.6h9.4v9.6z"/>
		<path style="&st3;" d="M23.3,16.6h-9.4v-6.4h9.4v6.4z"/>
	</g>
</svg>
