<?xml version="1.0" encoding="iso-8859-1"?>
<!-- Generator: Adobe Illustrator 9.0, SVG Export Plug-In  -->
<!DOCTYPE svg PUBLIC "-//W3C//DTD SVG 20000303 Stylable//EN"   "http://www.w3.org/TR/2000/03/WD-SVG-20000303/DTD/svg-20000303-stylable.dtd" [
	<!ENTITY st0 "fill:url(#aigrd1);stroke:none;">
	<!ENTITY st1 "fill:#919187;stroke:none;">
	<!ENTITY st2 "fill:url(#aigrd3);stroke:none;">
	<!ENTITY st3 "opacity:0.35;stroke:none;">
	<!ENTITY st4 "fill:#808078;stroke:none;">
	<!ENTITY st5 "fill:#C1C2B4;stroke:none;">
	<!ENTITY st6 "fill:#F1F2E1;stroke:none;">
	<!ENTITY st7 "fill:url(#aigrd2);stroke:none;">
	<!ENTITY st8 "fill:none;stroke:none;">
	<!ENTITY st9 "fill-rule:nonzero;clip-rule:nonzero;stroke:#000000;stroke-miterlimit:4;">
	<!ENTITY st10 "stroke:none;">
]>
<svg  width="66pt" height="48pt" viewBox="0 0 66 48" xml:space="preserve">
	<g id="Layer_x0020_1" style="&st9;">
		<path style="&st10;" d="M40.2,7.9c-1,0.3-1.9,0.8-2.6,1.3c-0.7,0.4-1.3,0.8-1.7,0.8C35.5,10,34,9.7,33,9.4c-3.7-0.8-8.8-2-11.8-0.9c-1.2,0.5-2.5,1.9-3.9,4.4c-0.6-0.1-1.3-0.2-1.3-0.2C10.7,11.8,9.8,12,9,12.4c-0.8,0.5-1.3,1.3-1.5,2.5C7,18.5,9.4,29.9,11.8,32.4
			c1.7,1.7,11.6,5.1,15.8,6.4c3.7,1.2,7.2,2.3,9.9,2.9c4.5,1.2,5.8,1.1,6.7,0.6c0.8-0.4,5.5-3.9,8.8-14.6c0.5-1.7,1.9-6.8,1.9-9.7c0-0.6-0.1-1.1-0.2-1.5c-0.8-1.9-2.4-2.3-3.4-2.5c-0.2,0-0.5-0.1-0.7-0.2c0-0.1,0-0.4,0-0.5c-0.1-0.9-0.1-2.3-1.4-3.6
			c-2.1-2.1-6.7-2.5-9-1.9z"/>
		<path style="&st3;" d="M41.5,44.8c-3.9,0.6-28.3-6.6-30.3-8.8c-2-2.2,8.7-5.3,13.8-5.7c5.1-0.4,29.9,3.8,32.6,6.6c2.6,2.8-12.2,7.3-16.1,8z"/>
		<path style="&st10;" d="M40.1,9c-0.9,0.3-1.7,0.7-2.3,1.1C37,10.6,36.2,11,35.5,11c-0.4,0-1.7-0.3-3-0.6c-3.6-0.8-8.6-1.9-11.2-0.9c-2.9,1.1-6.3,9.9-6.9,11.6c-1.3,3.5-2.7,8-1.9,9.5c0.2,0.4,0.8,1.5,9,4.3c5,1.7,10.6,3.2,14.9,4.1c7.1,1.4,9,0.7,9.8,0
			c2.5-2.1,4.5-8.1,5.5-11.5c0.1-0.4,2.5-8.6,1.7-10.5c-0.6-1.4-1.8-1.7-2.7-1.9c-0.5-0.1-0.9-0.2-1.2-0.5c-0.2-0.2-0.3-0.5-0.3-1.1c-0.1-0.8-0.1-1.9-1.1-2.9c-1.8-1.8-6-2.2-8-1.6z"/>
		<linearGradient id="aigrd1" gradientUnits="userSpaceOnUse" x1="36.9648" y1="12.4141" x2="29.7414" y2="31.7628">
			<stop  offset="0" style="stop-color:#989C80"/>
			<stop  offset="1" style="stop-color:#000000"/>
		</linearGradient>
		<path style="&st0;" d="M21.1,10.5c-3.1,1.2-9.4,17.5-8.3,19.7C14,32.3,41.6,41,45,38.2c3.8-3.2,7.6-19.1,6.9-20.8c-0.7-1.7-2.6-1-3.7-2c-1.1-1.1,0-2.6-1.4-4c-1.4-1.4-5.2-1.9-7-1.4c-1.8,0.5-3.1,2.1-4.9,2.1c-1.8,0-10.5-2.9-13.8-1.6z"/>
		<path style="&st5;" d="M13,29.7c0.3-5.4,5.1-17.8,7.9-19.2c2.8-1.5,12.5,1.6,14.1,1.6s2.8-1.5,4.9-2.1c2.1-0.6,5.7,0.1,7,1.4c1.1,1.1,0.7,3.2,1.2,3.8c0.5,0.5,3.1,1.2,3.6,1.8c0,0-3-0.8-3.8-1.6c-0.8-0.8-0.6-2.5-1.3-3.2c-0.6-0.6-5.7-1.7-7.1-1.2
			c-1.4,0.6-2.5,2.1-4.4,2.4c-1.9,0.3-10.8-2.8-13.5-1.2C18.8,13.7,13,29.7,13,29.7z"/>
		<path style="&st4;" d="M51.1,16.4c1.4,1.1-1.5,14.3-5.4,21.1c4.3-6,6.4-17.8,6.4-19.3c0-0.4-0.2-1.3-1-1.7z"/>
		<path style="&st10;" d="M9.2,13.4c-0.8,0.4-0.9,1.5-1,1.8c-0.5,3.5,2,14.5,4,16.6c1.6,1.6,14,5.7,15.4,6.2c3.7,1.2,7.2,2.3,9.8,2.9c4.5,1.2,5.4,1,5.9,0.7c0.5-0.3,0.8-0.9,1.1-1.9c1-4.1,0.5-15.8-0.8-18c-0.3-0.5-1.1-1.2-6.1-2.7c-2.9-0.9-6.8-1.9-11-2.9
			c-4.1-0.9-8-1.8-11.1-2.3c-5.5-0.9-6-0.6-6.4-0.4z"/>
		<linearGradient id="aigrd2" gradientUnits="userSpaceOnUse" x1="27.624" y1="26.7422" x2="33.3166" y2="41.3359">
			<stop  offset="0" style="stop-color:#DEDFCE"/>
			<stop  offset="1" style="stop-color:#C2C4B5"/>
		</linearGradient>
		<path style="&st7;" d="M42.5,40.5c1.8-1,1.3-16.3,0-18.5c-1.3-2.2-31.4-8.9-33.2-7.9c-1.8,1,1.3,14.8,3.3,16.8c2,2,28.1,10.7,29.9,9.6z"/>
		<linearGradient id="aigrd3" gradientUnits="userSpaceOnUse" x1="20.3672" y1="21.459" x2="23.1299" y2="31.2714">
			<stop  offset="0" style="stop-color:#DEDFCE"/>
			<stop  offset="1" style="stop-color:#FFFFFF"/>
		</linearGradient>
		<path style="&st2;" d="M21,34.4c-5.6-12.3,13.5-3.2,9.5-16.5c0,0-20.1-4.9-21.2-3.9c-1.7,1.7,1,13.7,3.1,16.6c0.9,1.2,8.6,3.7,8.6,3.7z"/>
		<path style="&st6;" d="M12.9,31.1c-1.7-2.6-4.6-13.9-2.4-15.2c3.3-2,28.2,4.4,28.2,4.4c-2.3-0.8-26.5-7.6-29.4-6.2c-1.7,0.8,1.2,15.6,3.6,17z"/>
		<path style="&st1;" d="M42.5,22.1c1.1,1.4,1.8,17.2-0.1,18.3c-1.9,1.1-21.3-5.9-21.3-5.9s19.2,6.6,20.9,5.2c1.7-1.4,1.5-10.4,0.5-17.6z"/>
	</g>
	<g id="bbox" style="&st9;">
		<path style="&st8;" d="M66,48H0V0h66v48z"/>
	</g>
</svg>
