<?xml version="1.0" encoding="UTF-8" standalone="no"?>
<!DOCTYPE svg PUBLIC "-//W3C//DTD SVG 20010904//EN"
"http://www.w3.org/TR/2001/REC-SVG-20010904/DTD/svg10.dtd">
<!-- Created with Sodipodi ("http://www.sodipodi.com/") -->
<svg
   width="24pt"
   height="24pt"
   viewBox="0 0 24 24"
   xml:space="preserve"
   xmlns="http://www.w3.org/2000/svg"
   xmlns:xml="http://www.w3.org/XML/1998/namespace"
   xmlns:sodipodi="http://sodipodi.sourceforge.net/DTD/sodipodi-0.dtd"
   xmlns:xlink="http://www.w3.org/1999/xlink"
   id="svg629"
   sodipodi:version="0.32"
   sodipodi:docname="/home/adam/Projekt/AROS/images/Gorilla/Elements/MagnifyingGlass.svg"
   sodipodi:docbase="/home/adam/Projekt/AROS/images/Gorilla/Elements">
  <defs
     id="defs660">
    <linearGradient
       id="aigrd1"
       gradientUnits="userSpaceOnUse"
       x1="19.8018"
       y1="17.0322"
       x2="17.5176"
       y2="19.3164">
      <stop
         offset="0"
         style="stop-color:#304A2F"
         id="stop634" />
      <stop
         offset="0.3315"
         style="stop-color:#6FAB6C"
         id="stop635" />
      <stop
         offset="1"
         style="stop-color:#304A2F"
         id="stop636" />
    </linearGradient>
    <radialGradient
       id="aigrd2"
       cx="13.2148"
       cy="13.3359"
       r="8.6705"
       fx="13.2148"
       fy="13.3359"
       gradientUnits="userSpaceOnUse">
      <stop
         offset="0"
         style="stop-color:#FFFFFF"
         id="stop642" />
      <stop
         offset="0.7303"
         style="stop-color:#3F4A8E"
         id="stop643" />
      <stop
         offset="0.8388"
         style="stop-color:#3A4A92"
         id="stop644" />
      <stop
         offset="0.997"
         style="stop-color:#2C499E"
         id="stop645" />
      <stop
         offset="1"
         style="stop-color:#2C499E"
         id="stop646" />
    </radialGradient>
    <linearGradient
       id="aigrd3"
       gradientUnits="userSpaceOnUse"
       x1="7.7285"
       y1="7.0679"
       x2="11.9571"
       y2="11.2965">
      <stop
         offset="0"
         style="stop-color:#FFFFFF"
         id="stop649" />
      <stop
         offset="1"
         style="stop-color:#A8BDDB"
         id="stop650" />
    </linearGradient>
  </defs>
  <sodipodi:namedview
     id="base" />
  <g
     id="Layer_x0020_2"
     style="fill-rule:nonzero;clip-rule:nonzero;stroke:#000000;stroke-miterlimit:4;">
    <path
       style="fill:none;stroke:none;"
       d="M24,24H0V0h24v24z"
       id="path658" />
  </g>
  <g
     id="g687">
    <path
       style="font-size:12;stroke:#000000;stroke-width:0.7566;"
       d="M2.8,10.5c0,4.5,3.7,8.2,8.2,8.2c1.4,0,2.9-0.4,4.1-1.1c0.1,0.3,0.3,0.6,0.5,0.8l2.5,2.5c0.4,0.4,1,0.7,1.6,0.7s1.2-0.2,1.6-0.7s0.7-1,0.7-1.6c0-0.6-0.2-1.2-0.7-1.6l-2.5-2.5c-0.2-0.2-0.5-0.4-0.8-0.5c0.7-1.3,1.1-2.7,1.1-4.2    c0-4.5-3.7-8.2-8.2-8.2c-4.5,0-8.2,3.7-8.2,8.2z M5.2,10.5c0-3.2,2.6-5.8,5.8-5.8c3.2,0,5.8,2.6,5.8,5.8c0,3.2-2.6,5.8-5.8,5.8c-3.2,0-5.8-2.6-5.8-5.8z"
       id="path631" />
    <path
       style="font-size:12;fill:#919191;"
       d="M21.1,18.3l-2.6-2.6c-0.4-0.4-1.1-0.6-1.7-0.4c1.1-1.3,1.8-3,1.8-4.9c0-4.2-3.4-7.7-7.7-7.7c-4.2,0-7.7,3.4-7.7,7.7c0,4.2,3.4,7.7,7.7,7.7c1.8,0,3.5-0.7,4.9-1.7c-0.2,0.6-0.1,1.2,0.4,1.7l2.6,2.6c0.6,0.6,1.7,0.6,2.3,0    c0.6-0.6,0.6-1.7,0-2.3z M11,17.1c-3.7,0-6.6-3-6.6-6.6c0-3.7,3-6.6,6.6-6.6c3.7,0,6.6,3,6.6,6.6c0,3.7-3,6.6-6.6,6.6z"
       id="path632" />
    <path
       style="font-size:12;fill:url(#aigrd1);"
       d="M18.5,15.7L16.2,18l2.6,2.6l2.3-2.3l-2.6-2.6z"
       id="path637" />
    <path
       style="font-size:12;opacity:0.54;fill:none;stroke:#ffffff;stroke-width:0.7422;stroke-linecap:round;"
       d="M17.8,16.5l2.4,2.4"
       id="path638" />
    <path
       style="font-size:12;opacity:0.5;fill:none;stroke:#ffffff;stroke-width:0.3711;stroke-linecap:round;"
       d="M3.7,10.3c0-3.9,3.2-7.1,7.1-7.1"
       id="path639" />
    <path
       style="font-size:12;opacity:0.5;fill:none;stroke:#ffffff;stroke-width:0.3711;stroke-linecap:round;"
       d="M17.8,11c0,3.5-2.8,6.3-6.3,6.3"
       id="path640" />
    <path
       style="font-size:12;opacity:0.47;fill:url(#aigrd2);"
       d="M16.4,10.4c0,3-2.4,5.4-5.4,5.4c-3,0-5.4-2.4-5.4-5.4C5.5,7.4,8,5,11,5c3,0,5.4,2.4,5.4,5.4z"
       id="path647" />
    <path
       style="font-size:12;fill:url(#aigrd3);"
       d="M6,10.4c0-2.7,2.2-5,5-5c6.7,0-5,11-5,5z"
       id="path651" />
    <path
       style="font-size:12;opacity:0.48;fill:url(#aigrd3);"
       d="M6,10.4c0-2.7,2.2-5,5-5c6.7,0-5,11-5,5z"
       id="path656" />
  </g>
</svg>
