<?xml version="1.0" encoding="iso-8859-1"?>
<!-- Generator: Adobe Illustrator 9.0, SVG Export Plug-In  -->
<!DOCTYPE svg PUBLIC "-//W3C//DTD SVG 20000303 Stylable//EN"   "http://www.w3.org/TR/2000/03/WD-SVG-20000303/DTD/svg-20000303-stylable.dtd" [
	<!ENTITY st0 "fill:url(#aigrd5);">
	<!ENTITY st1 "fill:url(#aigrd6);">
	<!ENTITY st2 "opacity:0.005;">
	<!ENTITY st3 "opacity:0.015;">
	<!ENTITY st4 "fill:url(#aigrd1);stroke:none;">
	<!ENTITY st5 "fill:#000000;stroke:none;">
	<!ENTITY st6 "opacity:0.01;">
	<!ENTITY st7 "opacity:0.02;">
	<!ENTITY st8 "opacity:0.52;">
	<!ENTITY st9 "opacity:0.0012;">
	<!ENTITY st10 "opacity:0.0025;">
	<!ENTITY st11 "opacity:0.0037;">
	<!ENTITY st12 "opacity:0.0062;">
	<!ENTITY st13 "opacity:0.0075;">
	<!ENTITY st14 "opacity:0.0088;">
	<!ENTITY st15 "opacity:0.0112;">
	<!ENTITY st16 "opacity:0.0125;">
	<!ENTITY st17 "opacity:0.0137;">
	<!ENTITY st18 "opacity:0.0162;">
	<!ENTITY st19 "opacity:0.0175;">
	<!ENTITY st20 "opacity:0.0187;">
	<!ENTITY st21 "fill:url(#aigrd3);stroke:none;">
	<!ENTITY st22 "fill-rule:nonzero;clip-rule:nonzero;fill:#FFFFFF;stroke:#000000;stroke-miterlimit:4;">
	<!ENTITY st23 "opacity:0;">
	<!ENTITY st24 "opacity:0.4;">
	<!ENTITY st25 "fill:url(#aigrd2);stroke:none;">
	<!ENTITY st26 "fill:#BEBEBE;stroke:none;">
	<!ENTITY st27 "fill:none;stroke:none;">
	<!ENTITY st28 "fill:#000000;">
	<!ENTITY st29 "opacity:0.52;fill:url(#aigrd7);">
	<!ENTITY st30 "fill-rule:nonzero;clip-rule:nonzero;stroke:#000000;stroke-miterlimit:4;">
	<!ENTITY st31 "stroke:none;">
	<!ENTITY st32 "fill:#0F1226;">
	<!ENTITY st33 "fill:url(#aigrd4);stroke:none;">
]>
<svg  width="44.572pt" height="48pt" viewBox="0 0 44.572 48" xml:space="preserve">
	<g id="Layer_x0020_1" style="&st22;">
		<path style="&st5;" d="M9.324,2.56c-2.877,0-5.217,2.34-5.217,5.217v30.779c0,2.877,2.34,5.218,5.217,5.218h27.461c2.877,0,5.217-2.341,5.217-5.218V7.776c0-2.876-2.34-5.217-5.217-5.217H9.324z"/>
		<linearGradient id="aigrd1" gradientUnits="userSpaceOnUse" x1="13.375" y1="6.7632" x2="32.6902" y2="40.3169">
			<stop  offset="0" style="stop-color:#F0F0F0"/>
			<stop  offset="1" style="stop-color:#D6D6D6"/>
		</linearGradient>
		<path style="&st4;" d="M39.395,38.556c0,1.572-1.275,2.846-2.846,2.846H9.086c-1.572,0-2.846-1.273-2.846-2.846V7.776c0-1.571,1.274-2.846,2.846-2.846h27.462c1.57,0,2.846,1.274,2.846,2.846v30.779z"/>
		<g>
			<radialGradient id="aigrd2" cx="9.0605" cy="29.7285" r="1.247" fx="9.0605" fy="29.7285" gradientUnits="userSpaceOnUse">
				<stop  offset="0" style="stop-color:#F0F0F0"/>
				<stop  offset="1" style="stop-color:#474747"/>
			</radialGradient>
			<path style="&st25;" d="M9.662,29.373c0,0.468-0.379,0.848-0.847,0.848s-0.847-0.38-0.847-0.848s0.379-0.847,0.847-0.847s0.847,0.379,0.847,0.847z"/>
			<radialGradient id="aigrd3" cx="9.0605" cy="17.8711" r="1.247" fx="9.0605" fy="17.8711" gradientUnits="userSpaceOnUse">
				<stop  offset="0" style="stop-color:#F0F0F0"/>
				<stop  offset="1" style="stop-color:#474747"/>
			</radialGradient>
			<path style="&st21;" d="M9.662,17.516c0,0.468-0.379,0.847-0.847,0.847s-0.847-0.379-0.847-0.847c0-0.468,0.379-0.847,0.847-0.847s0.847,0.379,0.847,0.847z"/>
		</g>
		<path style="&st31;" d="M11.619,41.383h-0.383V5.557h0.383v35.826z"/>
		<linearGradient id="aigrd4" gradientUnits="userSpaceOnUse" x1="11.2563" y1="6.5542" x2="10.8333" y2="40.0826">
			<stop  offset="0" style="stop-color:#EDEDED"/>
			<stop  offset="1" style="stop-color:#CACACA"/>
		</linearGradient>
		<path style="&st33;" d="M11.234,41.383h-0.383V5.557h0.383v35.826z"/>
		<path style="&st31;" d="M7.52,8.762L6.899,40.375c-0.451-0.451-0.631-1.432-0.631-1.432L6.229,7.66c0,0-0.038-0.807,0.703-1.739C7.681,4.977,8.929,4.92,8.929,4.92l28.022,0.04L10.008,6.273c-1.088,0-1.671,0.539-1.909,0.822C7.907,7.325,7.532,8.069,7.52,8.762z"
			/>
		<path style="&st26;" d="M38.242,37.577l0.621-31.613c0.451,0.451,0.631,1.431,0.631,1.431l0.039,31.284c0,0,0.037,0.807-0.703,1.739c-0.75,0.944-1.998,1.001-1.998,1.001l-28.021-0.04l26.943-1.313c1.088,0,1.67-0.539,1.908-0.822
			c0.193-0.229,0.568-0.974,0.58-1.666z"/>
	</g>
	<g id="Layer_x0020_4" style="&st30;">
		<path style="&st27;" d="M44.572,48H0V0h44.572v48z"/>
	</g>
	<g id="Layer_x0020_5" style="&st22;">
		<g style="&st31;">
			<path style="&st28;" d="M30.171,27.887c-0.277-0.066-1.002-0.217-1.956-0.217c-1.044,0-1.462,0.901-1.797,1.627c-0.212,0.452-0.428,0.918-0.771,1.264c-1.089,1.088-2.325,2.321-2.325,3.697c0,1.105,0.952,1.681,1.646,2.1c0.272,0.165,0.531,0.322,0.679,0.469
				c0.184,0.184,0.322,0.798,0.433,1.292c0.17,0.748,0.346,1.524,0.813,1.99c0.568,0.571,1.381,0.245,1.863-0.013c0.35,0.115,0.742,0.171,1.156,0.227c0.659,0.093,1.341,0.187,1.676,0.523c0.016,0.013,0.028,0.025,0.028,0.078c0,0.005,0,0.012,0,0.02
				c-0.041,0.686-2.401,3.024-3.392,3.799l0.442,0.16c0,0,3.678-0.768,4.235-0.924c0.34,0.353,2.239,2.326,2.239,2.326v-1.46c0-0.658,0.354-1.304,0.697-1.927c0.303-0.552,0.651-1.186,0.651-1.813c0-0.393-0.135-0.782-0.502-1.148
				c-0.512-0.512-1.288-0.788-2.082-1.028c0.563-0.265,0.727-0.608,0.84-0.967c0.041-0.131,0.057-0.175,0.11-0.229c0.098-0.099,0.317-0.25,0.531-0.397c0.697-0.479,1.566-1.078,1.566-1.943c0-0.842-0.434-1.544-0.814-2.164c0,0-0.163-0.269-0.171-0.281
				c-0.002-0.01-0.004-0.021-0.004-0.033c0-0.118,0.087-0.38,0.142-0.544c0.098-0.296,0.221-0.669,0.221-1.059c0-0.366-0.109-0.747-0.452-1.091c-0.208-0.208-0.386-0.518-0.571-0.846c-0.435-0.759-0.975-1.704-2.223-1.704c-1.191,0-2.519,0.164-2.911,0.217z"/>
			<path style="&st32;" d="M30.465,33.854c0,0-2.377,3.282-2.377,4.754c0,1.473,2.717,0.681,3.792,1.755c1.075,1.076-2.548,3.906-2.548,3.906l3.623-1.02l1.473,1.528c0-1.868,2.151-3.339,1.019-4.472c-1.132-1.133-4.359-1.012-4.527-2.491
				c-0.17-1.478-0.454-3.961-0.454-3.961z"/>
			<radialGradient id="aigrd5" cx="32.2754" cy="35.4619" r="5.9909" fx="32.2754" fy="35.4619" gradientUnits="userSpaceOnUse">
				<stop  offset="0" style="stop-color:#E41E08"/>
				<stop  offset="1" style="stop-color:#901505"/>
			</radialGradient>
			<path style="&st0;" d="M32.955,28.192c1.359,0,1.585,1.586,2.378,2.379c0.792,0.793-0.388,1.949,0,2.604c0.387,0.652,0.905,1.358,0.905,2.15s-1.466,1.466-1.924,1.925c-0.459,0.459-0.004,0.914-1.245,1.246c-1.241,0.331-1.813-0.113-2.604-0.113
				s-2.604,1.924-3.283,1.244c-0.679-0.679-0.622-2.659-1.244-3.283c-0.623-0.622-2.151-1.019-2.151-2.15c0-1.131,1.132-2.264,2.151-3.283c1.018-1.02,1.018-2.718,2.15-2.718c1.132,0,1.925,0.229,1.925,0.229s1.584-0.229,2.942-0.229z"/>
			<radialGradient id="aigrd6" cx="27.9756" cy="32.1553" r="6.6567" fx="27.9756" fy="32.1553" gradientUnits="userSpaceOnUse">
				<stop  offset="0" style="stop-color:#E41E08"/>
				<stop  offset="1" style="stop-color:#901505"/>
			</radialGradient>
			<path style="&st1;" d="M34.994,33.854c0,2.5-2.027,4.528-4.529,4.528c-2.501,0-4.527-2.028-4.527-4.528c0-2.502,2.026-4.53,4.527-4.53c2.502,0,4.529,2.028,4.529,4.53z"/>
			<path style="&st8;" d="M25.934,31.547c0,0-1.557,1.558-1.747,2.186c-0.191,0.627,0.519,1.146,0.519,1.146s-0.532-1.571,1.229-3.332z"/>
			<path style="&st8;" d="M26.753,37.446c0,0,0.329,2.401,1.093,1.938c-0.558-0.191-1.093-1.938-1.093-1.938z"/>
			<path style="&st8;" d="M27.024,29.718c0,0,0.303-1.692,1.858-1.31c-1.011,0-1.858,1.31-1.858,1.31z"/>
			<path style="&st8;" d="M33.853,28.735c0,0-0.272-0.71-2.622-0.3c1.557,0,2.622,0.3,2.622,0.3z"/>
			<linearGradient id="aigrd7" gradientUnits="userSpaceOnUse" x1="27.4932" y1="31.2744" x2="29.8409" y2="33.5955">
				<stop  offset="0" style="stop-color:#FFFFFF"/>
				<stop  offset="1" style="stop-color:#901505"/>
			</linearGradient>
			<path style="&st29;" d="M30.737,29.719c-3.271-0.088-4.84,2.991-4.211,5.364c1.957-1.021,4.211-2.897,4.211-5.364z"/>
			<g>
				<g>
					<path style="&st23;" d="M33.727,36.426c-1.214,1.624-3.179,2.205-4.389,1.301s-1.206-2.952,0.007-4.575c1.212-1.623,3.178-2.206,4.387-1.302c1.21,0.905,1.206,2.953-0.005,4.576z"/>
					<path style="&st9;" d="M33.71,36.416c-1.167,1.562-3.054,2.122-4.214,1.255c-1.159-0.867-1.153-2.834,0.013-4.394c1.165-1.561,3.052-2.123,4.211-1.256c1.16,0.868,1.154,2.835-0.01,4.395z"/>
					<path style="&st10;" d="M33.692,36.407c-1.119,1.498-2.928,2.038-4.037,1.208c-1.11-0.83-1.102-2.715,0.018-4.212c1.117-1.497,2.926-2.039,4.035-1.21c1.109,0.831,1.102,2.717-0.016,4.214z"/>
					<path style="&st11;" d="M33.675,36.397c-1.072,1.436-2.801,1.954-3.861,1.162c-1.06-0.793-1.049-2.597,0.022-4.031c1.071-1.434,2.801-1.954,3.86-1.162c1.06,0.793,1.05,2.597-0.021,4.031z"/>
					<path style="&st2;" d="M33.658,36.388c-1.025,1.372-2.676,1.871-3.686,1.116c-1.01-0.756-0.997-2.479,0.027-3.85s2.675-1.871,3.685-1.116c1.01,0.756,0.997,2.479-0.026,3.85z"/>
					<path style="&st12;" d="M33.642,36.379c-0.979,1.309-2.551,1.787-3.511,1.068c-0.96-0.717-0.944-2.358,0.033-3.667s2.55-1.788,3.509-1.07c0.96,0.719,0.945,2.36-0.031,3.669z"/>
					<path style="&st13;" d="M33.624,36.369c-0.932,1.246-2.424,1.703-3.334,1.022c-0.91-0.68-0.893-2.24,0.038-3.485c0.931-1.246,2.424-1.704,3.333-1.023c0.91,0.681,0.893,2.241-0.037,3.486z"/>
					<path style="&st14;" d="M33.606,36.359c-0.884,1.184-2.298,1.62-3.158,0.977c-0.859-0.643-0.84-2.122,0.044-3.304c0.883-1.183,2.298-1.62,3.157-0.978c0.859,0.644,0.841,2.123-0.043,3.305z"/>
					<path style="&st6;" d="M33.59,36.35c-0.837,1.121-2.173,1.537-2.983,0.931c-0.809-0.605-0.787-2.003,0.049-3.122c0.837-1.12,2.173-1.537,2.982-0.932c0.81,0.607,0.789,2.004-0.048,3.123z"/>
					<path style="&st15;" d="M33.573,36.341c-0.79,1.058-2.048,1.453-2.808,0.884c-0.76-0.568-0.735-1.885,0.054-2.941c0.79-1.057,2.047-1.453,2.807-0.885c0.76,0.57,0.736,1.886-0.053,2.942z"/>
					<path style="&st16;" d="M33.556,36.331c-0.742,0.995-1.922,1.37-2.632,0.838c-0.709-0.531-0.683-1.767,0.06-2.76s1.921-1.369,2.631-0.839c0.709,0.533,0.685,1.768-0.059,2.761z"/>
					<path style="&st17;" d="M33.538,36.321c-0.695,0.933-1.795,1.286-2.455,0.792c-0.659-0.494-0.631-1.648,0.064-2.578c0.695-0.931,1.795-1.285,2.455-0.792c0.659,0.495,0.632,1.648-0.064,2.578z"/>
					<path style="&st3;" d="M33.521,36.313c-0.648,0.869-1.67,1.202-2.28,0.744c-0.609-0.455-0.578-1.528,0.07-2.396c0.648-0.868,1.67-1.202,2.279-0.746c0.609,0.458,0.58,1.53-0.069,2.397z"/>
					<path style="&st18;" d="M33.505,36.303c-0.602,0.806-1.545,1.119-2.104,0.698c-0.56-0.418-0.526-1.41,0.075-2.214c0.602-0.806,1.544-1.119,2.104-0.7c0.56,0.421,0.527,1.412-0.074,2.216z"/>
					<path style="&st19;" d="M33.487,36.293c-0.555,0.743-1.418,1.035-1.929,0.652c-0.509-0.381-0.474-1.292,0.08-2.033c0.556-0.742,1.419-1.034,1.929-0.652c0.51,0.383,0.476,1.292-0.08,2.033z"/>
					<path style="&st20;" d="M33.47,36.284c-0.507,0.68-1.292,0.951-1.752,0.605c-0.46-0.344-0.422-1.173,0.085-1.852c0.508-0.679,1.293-0.95,1.753-0.606c0.459,0.346,0.423,1.174-0.086,1.853z"/>
					<path style="&st7;" d="M33.453,36.274c-0.46,0.617-1.167,0.868-1.577,0.56c-0.409-0.307-0.369-1.055,0.091-1.67c0.461-0.616,1.167-0.867,1.577-0.561c0.409,0.309,0.371,1.056-0.091,1.671z"/>
				</g>
			</g>
			<path style="&st24;" d="M32.241,40.34c0.355,0.506,0,1.146,0,1.146c0.601,0.301,2.048-0.694,3.194,0c0.304-0.694-0.088-1.071-0.602-1.327l-2.593,0.181z"/>
		</g>
	</g>
</svg>
