<?xml version="1.0" encoding="iso-8859-1"?>
<!-- Generator: Adobe Illustrator 9.0, SVG Export Plug-In  -->
<!DOCTYPE svg PUBLIC "-//W3C//DTD SVG 20000303 Stylable//EN"   "http://www.w3.org/TR/2000/03/WD-SVG-20000303/DTD/svg-20000303-stylable.dtd" [
	<!ENTITY st0 "fill:url(#aigrd1);stroke:none;">
	<!ENTITY st1 "fill:#000000;stroke:none;">
	<!ENTITY st2 "opacity:0.2;stroke:none;">
	<!ENTITY st3 "opacity:0.72;fill-rule:evenodd;clip-rule:evenodd;fill:url(#aigrd6);stroke:none;">
	<!ENTITY st4 "fill:url(#aigrd3);stroke:none;">
	<!ENTITY st5 "fill-rule:nonzero;clip-rule:nonzero;fill:#FFFFFF;stroke:#000000;stroke-miterlimit:4;">
	<!ENTITY st6 "fill:url(#aigrd2);stroke:none;">
	<!ENTITY st7 "fill-rule:evenodd;clip-rule:evenodd;fill:url(#aigrd5);stroke:none;">
	<!ENTITY st8 "fill:#BEBEBE;stroke:none;">
	<!ENTITY st9 "fill:none;stroke:none;">
	<!ENTITY st10 "fill-rule:evenodd;clip-rule:evenodd;stroke:none;">
	<!ENTITY st11 "fill-rule:nonzero;clip-rule:nonzero;stroke:#000000;stroke-miterlimit:4;">
	<!ENTITY st12 "stroke:none;">
	<!ENTITY st13 "fill:url(#aigrd4);stroke:none;">
]>
<svg  width="51.9pt" height="48pt" viewBox="0 0 51.9 48" xml:space="preserve">
	<g id="Layer_x0020_1" style="&st5;">
		<path style="&st1;" d="M12.1,3.6c-2.9,0-5.2,2.3-5.2,5.2v30.8c0,2.9,2.3,5.2,5.2,5.2h27.5c2.9,0,5.2-2.3,5.2-5.2V8.8c0-2.9-2.3-5.2-5.2-5.2H12.1z"/>
		<linearGradient id="aigrd1" gradientUnits="userSpaceOnUse" x1="16.1748" y1="7.7627" x2="35.49" y2="41.3164">
			<stop  offset="0" style="stop-color:#F0F0F0"/>
			<stop  offset="1" style="stop-color:#D6D6D6"/>
		</linearGradient>
		<path style="&st0;" d="M42.2,39.6c0,1.6-1.3,2.8-2.8,2.8H11.9c-1.6,0-2.8-1.3-2.8-2.8V8.8c0-1.6,1.3-2.8,2.8-2.8h27.5c1.6,0,2.8,1.3,2.8,2.8v30.8z"/>
		<g>
			<radialGradient id="aigrd2" cx="11.8608" cy="30.7285" r="1.247" fx="11.8608" fy="30.7285" gradientUnits="userSpaceOnUse">
				<stop  offset="0" style="stop-color:#F0F0F0"/>
				<stop  offset="1" style="stop-color:#474747"/>
			</radialGradient>
			<path style="&st6;" d="M12.5,30.4c0,0.5-0.4,0.8-0.8,0.8s-0.8-0.4-0.8-0.8s0.4-0.8,0.8-0.8s0.8,0.4,0.8,0.8z"/>
			<radialGradient id="aigrd3" cx="11.8608" cy="18.8711" r="1.247" fx="11.8608" fy="18.8711" gradientUnits="userSpaceOnUse">
				<stop  offset="0" style="stop-color:#F0F0F0"/>
				<stop  offset="1" style="stop-color:#474747"/>
			</radialGradient>
			<path style="&st4;" d="M12.5,18.5c0,0.5-0.4,0.8-0.8,0.8s-0.8-0.4-0.8-0.8c0-0.5,0.4-0.8,0.8-0.8s0.8,0.4,0.8,0.8z"/>
		</g>
		<path style="&st12;" d="M14.4,42.4H14V6.6h0.4v35.8z"/>
		<linearGradient id="aigrd4" gradientUnits="userSpaceOnUse" x1="14.0557" y1="7.5537" x2="13.6326" y2="41.0821">
			<stop  offset="0" style="stop-color:#EDEDED"/>
			<stop  offset="1" style="stop-color:#CACACA"/>
		</linearGradient>
		<path style="&st13;" d="M14,42.4h-0.4V6.6H14v35.8z"/>
		<path style="&st12;" d="M10.3,9.8L9.7,41.4c-0.5-0.5-0.6-1.4-0.6-1.4L9,8.7c0,0,0-0.8,0.7-1.7c0.7-0.9,2-1,2-1l28,0L12.8,7.3c-1.1,0-1.7,0.5-1.9,0.8c-0.2,0.2-0.6,1-0.6,1.7z"/>
		<path style="&st8;" d="M41,38.6L41.7,7c0.5,0.5,0.6,1.4,0.6,1.4l0,31.3c0,0,0,0.8-0.7,1.7c-0.8,0.9-2,1-2,1l-28,0l26.9-1.3c1.1,0,1.7-0.5,1.9-0.8c0.2-0.2,0.6-1,0.6-1.7z"/>
	</g>
	<g id="Layer_x0020_3" style="&st11;">
		<path style="&st10;" d="M37.7,18.5c0-0.1,0-0.2,0-0.2c-0.1-0.3-0.3-0.5-0.6-0.5c0,0-5.3-0.8-6-0.9c-0.3-0.7-2.7-5.5-2.7-5.5c-0.1-0.3-0.4-0.4-0.7-0.4c-0.3,0-0.6,0.2-0.7,0.4c0,0-2.4,4.8-2.7,5.5c-0.7,0.1-6,0.9-6,0.9c-0.3,0-0.5,0.3-0.6,0.5c0,0.1,0,0.2,0,0.2
			c0,0.2,0.1,0.4,0.2,0.6c0,0,3.8,3.7,4.4,4.3c-0.1,0.7-1,6-1,6c0,0,0,0.1,0,0.1c0,0.3,0.1,0.5,0.3,0.6c0.2,0.2,0.6,0.2,0.8,0.1c0,0,4.7-2.5,5.4-2.8c0.6,0.3,5.4,2.8,5.4,2.8c0.3,0.1,0.6,0.1,0.8-0.1c0.2-0.2,0.3-0.4,0.3-0.6c0,0,0-0.1,0-0.1c0,0-0.9-5.3-1-6
			c0.5-0.5,4.4-4.3,4.4-4.3c0.2-0.2,0.2-0.4,0.2-0.6z"/>
		<radialGradient id="aigrd5" cx="29.6538" cy="24.0718" r="12.2578" fx="29.6538" fy="24.0718" gradientUnits="userSpaceOnUse">
			<stop  offset="5.618000e-003" style="stop-color:#FFB310"/>
			<stop  offset="1" style="stop-color:#664A02"/>
		</radialGradient>
		<path style="&st7;" d="M27.6,11.7l2.9,5.8l6.4,0.9L32.3,23l1.1,6.4l-5.8-3l-5.8,3l1.1-6.4l-4.7-4.5l6.4-0.9l2.9-5.8z"/>
		<g>
			<path style="&st2;" d="M34.9,36.1H20.3v-2.5h14.6v2.5z"/>
		</g>
		<linearGradient id="aigrd6" gradientUnits="userSpaceOnUse" x1="26.6689" y1="13.7456" x2="26.6689" y2="29.4497">
			<stop  offset="0" style="stop-color:#F9FAE9"/>
			<stop  offset="1" style="stop-color:#F5C417"/>
		</linearGradient>
		<path style="&st3;" d="M25.1,18l-5.6,0.8l4,3.9L23.2,25c3.7-1.5,6.6-5.4,10.6-6.5L30.1,18l-2.5-5l-2.5,5z"/>
	</g>
	<g id="Layer_x0020_4" style="&st11;">
		<path style="&st9;" d="M51.9,48H0V0h51.9v48z"/>
	</g>
</svg>
