<?xml version="1.0" encoding="iso-8859-1"?>
<!-- Generator: Adobe Illustrator 9.0, SVG Export Plug-In  -->
<!DOCTYPE svg PUBLIC "-//W3C//DTD SVG 20000303 Stylable//EN"   "http://www.w3.org/TR/2000/03/WD-SVG-20000303/DTD/svg-20000303-stylable.dtd" [
	<!ENTITY st0 "fill:url(#aigrd1);stroke:none;">
	<!ENTITY st1 "fill:#000000;stroke:none;">
	<!ENTITY st2 "fill:url(#aigrd11);stroke:none;">
	<!ENTITY st3 "fill:url(#aigrd9);stroke:none;">
	<!ENTITY st4 "fill:#4F4F3D;stroke:none;">
	<!ENTITY st5 "fill:url(#aigrd6);stroke:none;">
	<!ENTITY st6 "fill:url(#aigrd3);stroke:none;">
	<!ENTITY st7 "fill:url(#aigrd13);stroke:none;">
	<!ENTITY st8 "fill-rule:nonzero;clip-rule:nonzero;fill:#FFFFFF;stroke:#000000;stroke-miterlimit:4;">
	<!ENTITY st9 "fill:url(#aigrd10);stroke:none;">
	<!ENTITY st10 "fill-rule:nonzero;clip-rule:nonzero;fill:#BEBEBE;stroke:#000000;stroke-miterlimit:4;">
	<!ENTITY st11 "fill:url(#aigrd8);stroke:none;">
	<!ENTITY st12 "fill:#FFFFFF;stroke:none;">
	<!ENTITY st13 "fill:url(#aigrd5);stroke:none;">
	<!ENTITY st14 "fill:url(#aigrd2);stroke:none;">
	<!ENTITY st15 "fill:#BEBEBE;stroke:none;">
	<!ENTITY st16 "fill:none;stroke:none;">
	<!ENTITY st17 "fill:url(#aigrd12);stroke:none;">
	<!ENTITY st18 "fill-rule:nonzero;clip-rule:nonzero;stroke:#000000;stroke-miterlimit:4;">
	<!ENTITY st19 "fill:#898976;stroke:none;">
	<!ENTITY st20 "fill:url(#aigrd7);stroke:none;">
	<!ENTITY st21 "stroke:none;">
	<!ENTITY st22 "fill:#FCFCFC;stroke:none;">
	<!ENTITY st23 "fill:url(#aigrd4);stroke:none;">
]>
<svg  width="52pt" height="48pt" viewBox="0 0 52 48" xml:space="preserve">
	<g id="Layer_x0020_1" style="&st8;">
		<path style="&st1;" d="M9.2,2.6C6.3,2.6,4,4.9,4,7.8v30.8c0,2.9,2.3,5.2,5.2,5.2h27.5c2.9,0,5.2-2.3,5.2-5.2V7.8c0-2.9-2.3-5.2-5.2-5.2H9.2z"/>
		<linearGradient id="aigrd1" gradientUnits="userSpaceOnUse" x1="13.2734" y1="6.7627" x2="32.5887" y2="40.3164">
			<stop  offset="0" style="stop-color:#F0F0F0"/>
			<stop  offset="1" style="stop-color:#D6D6D6"/>
		</linearGradient>
		<path style="&st0;" d="M39.3,38.6c0,1.6-1.3,2.8-2.8,2.8H9c-1.6,0-2.8-1.3-2.8-2.8V7.8c0-1.6,1.3-2.8,2.8-2.8h27.5c1.6,0,2.8,1.3,2.8,2.8v30.8z"/>
		<g>
			<radialGradient id="aigrd2" cx="8.959" cy="29.7285" r="1.247" fx="8.959" fy="29.7285" gradientUnits="userSpaceOnUse">
				<stop  offset="0" style="stop-color:#F0F0F0"/>
				<stop  offset="1" style="stop-color:#474747"/>
			</radialGradient>
			<path style="&st14;" d="M9.6,29.4c0,0.5-0.4,0.8-0.8,0.8s-0.8-0.4-0.8-0.8s0.4-0.8,0.8-0.8s0.8,0.4,0.8,0.8z"/>
			<radialGradient id="aigrd3" cx="8.959" cy="17.8711" r="1.247" fx="8.959" fy="17.8711" gradientUnits="userSpaceOnUse">
				<stop  offset="0" style="stop-color:#F0F0F0"/>
				<stop  offset="1" style="stop-color:#474747"/>
			</radialGradient>
			<path style="&st6;" d="M9.6,17.5c0,0.5-0.4,0.8-0.8,0.8S7.9,18,7.9,17.5c0-0.5,0.4-0.8,0.8-0.8s0.8,0.4,0.8,0.8z"/>
		</g>
		<path style="&st21;" d="M11.5,41.4h-0.4V5.6h0.4v35.8z"/>
		<linearGradient id="aigrd4" gradientUnits="userSpaceOnUse" x1="11.1548" y1="6.5537" x2="10.7317" y2="40.0821">
			<stop  offset="0" style="stop-color:#EDEDED"/>
			<stop  offset="1" style="stop-color:#CACACA"/>
		</linearGradient>
		<path style="&st23;" d="M11.1,41.4h-0.4V5.6h0.4v35.8z"/>
		<path style="&st21;" d="M7.4,8.8L6.8,40.4c-0.5-0.5-0.6-1.4-0.6-1.4l0-31.3c0,0,0-0.8,0.7-1.7c0.7-0.9,2-1,2-1l28,0L9.9,6.3C8.8,6.3,8.2,6.8,8,7.1c-0.2,0.2-0.6,1-0.6,1.7z"/>
		<path style="&st15;" d="M38.1,37.6L38.8,6c0.5,0.5,0.6,1.4,0.6,1.4l0,31.3c0,0,0,0.8-0.7,1.7c-0.8,0.9-2,1-2,1l-28,0l26.9-1.3c1.1,0,1.7-0.5,1.9-0.8c0.2-0.2,0.6-1,0.6-1.7z"/>
	</g>
	<g id="Layer_x0020_3" style="&st10;">
		<path style="&st1;" d="M17.7,14.1c-2.1,0-3.8,1.7-3.8,3.8v25.3c0,2.1,1.7,3.8,3.8,3.8h26.9c2.1,0,3.8-1.7,3.8-3.8V17.9c0-2.1-1.7-3.8-3.8-3.8H17.7z"/>
		<linearGradient id="aigrd5" gradientUnits="userSpaceOnUse" x1="23.252" y1="16.7476" x2="39.5013" y2="44.9753">
			<stop  offset="0" style="stop-color:#D2D2D2"/>
			<stop  offset="1" style="stop-color:#EDEDED"/>
		</linearGradient>
		<path style="&st13;" d="M46.5,42.6c0,1.4-1.1,2.5-2.5,2.5H18.4c-1.4,0-2.5-1.1-2.5-2.5V18.5c0-1.4,1.1-2.5,2.5-2.5H44c1.4,0,2.5,1.1,2.5,2.5v24.1z"/>
		<linearGradient id="aigrd6" gradientUnits="userSpaceOnUse" x1="31.5059" y1="36.6328" x2="31.5059" y2="23.6997">
			<stop  offset="0" style="stop-color:#BFBFBF"/>
			<stop  offset="1" style="stop-color:#666666"/>
		</linearGradient>
		<path style="&st5;" d="M44.3,39.3H18.7V21.9h25.6v17.4z"/>
		<path style="&st22;" d="M16.9,19l-0.5,25.2C16,43.8,15.9,43,15.9,43l0-24.9c0,0,0-0.6,0.6-1.4C17,16,18,15.9,18,15.9l22.3,0l-21.4,1c-0.9,0-1.3,0.4-1.5,0.7c-0.2,0.2-0.5,0.8-0.5,1.3z"/>
		<path style="&st21;" d="M45.5,42L46,17c0.4,0.4,0.5,1.2,0.5,1.2l0,24.7c0,0,0,0.6-0.6,1.4c-0.6,0.7-1.7,0.9-1.7,0.9l-22.1,0L43.5,44c0.9,0,1.3-0.4,1.5-0.6c0.2-0.2,0.4-0.8,0.5-1.3z"/>
		<path style="&st21;" d="M44.3,21.9l0.6-0.6l-26.8-0.1l0,18.7l0.6-0.7V21.9h25.6z"/>
		<path style="&st12;" d="M18.1,40l26.7-0.1V21.3l-0.6,0.6v17.4H18.7L18.1,40z"/>
		<path style="&st1;" d="M18.7,21.9v17.4h25.6V21.9H18.7z M43.8,38.8H19.3V22.5h24.5v16.3z"/>
	</g>
	<g id="Layer_x0020_5" style="&st18;">
		<path style="&st21;" d="M40.9,24.7c-1.4,1.2-2.9,2.3-3.5,2.5c-1.5-1-3.3-1.5-5.2-1.2c-1,0.1-1.9,0.4-2.4,0.6c-0.4-0.2-3.2-1.6-3.2-1.6s0.5,2.3,0.7,2.8c-0.2,0.2-0.3,0.4-0.4,0.6c-0.1-0.2-0.3-0.4-0.5-0.6c-1.4-1.6-3.3-2.1-4.4-1.1c-0.4,0.3-0.6,0.8-0.6,1.4
			c0,0.1,0,0.1,0,0.2c0,0.9,0.5,2,1.3,2.9c0.3,0.3,0.6,0.6,0.9,0.8c1.1,1.1,2.9,2.5,5.3,3.3c0.5,0.2,0.9,0.3,1.4,0.4l0,0l0.1,0c0,0,0,0,0,0c1.3,0.2,2.6,0.3,3.9,0.1c2.8-0.4,5-2.3,6.4-5.7c1-2.5,1.2-4.8,1.2-4.9l0.1-1.5l-1.1,1z"/>
		<radialGradient id="aigrd7" cx="28.1953" cy="29.3604" r="9.2751" fx="28.1953" fy="29.3604" gradientUnits="userSpaceOnUse">
			<stop  offset="0" style="stop-color:#DEBEA9"/>
			<stop  offset="1" style="stop-color:#4F4F3D"/>
		</radialGradient>
		<path style="&st20;" d="M22.2,29.5c0,0,4.2,6.6,11.8,5.6c6.3-0.8,7.1-10.1,7.1-10.1s-3.1,2.7-4,2.7c-3.4-2.6-7.4-0.6-7.4-0.6L27.4,26l0.6,2.4c0,0,0,1.4-1.4,1.9s-4.4-0.8-4.4-0.8z"/>
		<radialGradient id="aigrd8" cx="28.0752" cy="28.8232" r="2.3318" fx="28.0752" fy="28.8232" gradientUnits="userSpaceOnUse">
			<stop  offset="0" style="stop-color:#FFFFFF"/>
			<stop  offset="0.238" style="stop-color:#FCFCFC"/>
			<stop  offset="0.4278" style="stop-color:#F2F2F2"/>
			<stop  offset="0.6008" style="stop-color:#E1E1E1"/>
			<stop  offset="0.764" style="stop-color:#C9C9C9"/>
			<stop  offset="0.9188" style="stop-color:#ABABAB"/>
			<stop  offset="1" style="stop-color:#989898"/>
		</radialGradient>
		<path style="&st11;" d="M30.3,29.3c0,0.9-0.7,1.6-1.6,1.6c-0.9,0-1.6-0.7-1.6-1.6c0-0.9,0.7-1.6,1.6-1.6c0.9,0,1.6,0.7,1.6,1.6z"/>
		<radialGradient id="aigrd9" cx="30.9922" cy="28.9248" r="3.0418" fx="30.9922" fy="28.9248" gradientUnits="userSpaceOnUse">
			<stop  offset="0" style="stop-color:#FFFFFF"/>
			<stop  offset="0.238" style="stop-color:#FCFCFC"/>
			<stop  offset="0.4278" style="stop-color:#F2F2F2"/>
			<stop  offset="0.6008" style="stop-color:#E1E1E1"/>
			<stop  offset="0.764" style="stop-color:#C9C9C9"/>
			<stop  offset="0.9188" style="stop-color:#ABABAB"/>
			<stop  offset="1" style="stop-color:#989898"/>
		</radialGradient>
		<path style="&st3;" d="M33.9,29.6c0,1.1-0.9,2.1-2.1,2.1c-1.1,0-2.1-0.9-2.1-2.1s0.9-2.1,2.1-2.1c1.1,0,2.1,0.9,2.1,2.1z"/>
		<radialGradient id="aigrd10" cx="28.7158" cy="29.5068" r="0.7744" fx="28.7158" fy="29.5068" gradientUnits="userSpaceOnUse">
			<stop  offset="0" style="stop-color:#FFFFFF"/>
			<stop  offset="3.902066e-002" style="stop-color:#DDDDDD"/>
			<stop  offset="9.917545e-002" style="stop-color:#AFAFAF"/>
			<stop  offset="0.165" style="stop-color:#858585"/>
			<stop  offset="0.2351" style="stop-color:#616161"/>
			<stop  offset="0.3105" style="stop-color:#434343"/>
			<stop  offset="0.3929" style="stop-color:#2A2A2A"/>
			<stop  offset="0.4853" style="stop-color:#171717"/>
			<stop  offset="0.5931" style="stop-color:#0A0A0A"/>
			<stop  offset="0.7307" style="stop-color:#020202"/>
			<stop  offset="1" style="stop-color:#000000"/>
		</radialGradient>
		<path style="&st9;" d="M29.5,29.7c0,0.3-0.2,0.5-0.5,0.5s-0.5-0.2-0.5-0.5c0-0.3,0.2-0.5,0.5-0.5s0.5,0.2,0.5,0.5z"/>
		<radialGradient id="aigrd11" cx="31.7998" cy="29.5859" r="1.224" fx="31.7998" fy="29.5859" gradientUnits="userSpaceOnUse">
			<stop  offset="0" style="stop-color:#FFFFFF"/>
			<stop  offset="3.902066e-002" style="stop-color:#DDDDDD"/>
			<stop  offset="9.917545e-002" style="stop-color:#AFAFAF"/>
			<stop  offset="0.165" style="stop-color:#858585"/>
			<stop  offset="0.2351" style="stop-color:#616161"/>
			<stop  offset="0.3105" style="stop-color:#434343"/>
			<stop  offset="0.3929" style="stop-color:#2A2A2A"/>
			<stop  offset="0.4853" style="stop-color:#171717"/>
			<stop  offset="0.5931" style="stop-color:#0A0A0A"/>
			<stop  offset="0.7307" style="stop-color:#020202"/>
			<stop  offset="1" style="stop-color:#000000"/>
		</radialGradient>
		<path style="&st2;" d="M33,29.8c0,0.5-0.4,0.8-0.8,0.8c-0.5,0-0.8-0.4-0.8-0.8c0-0.5,0.4-0.8,0.8-0.8c0.5,0,0.8,0.4,0.8,0.8z"/>
		<linearGradient id="aigrd12" gradientUnits="userSpaceOnUse" x1="31.9326" y1="31.2549" x2="34.7059" y2="36.4815">
			<stop  offset="0" style="stop-color:#000000"/>
			<stop  offset="0.526" style="stop-color:#4E4E46"/>
			<stop  offset="1" style="stop-color:#919181"/>
		</linearGradient>
		<path style="&st17;" d="M28.9,34.7c2.7,0.5,7.1-1,7.8-3.6c1.2,3.7-4.3,4.1-6.4,4l-1.4-0.4z"/>
		<radialGradient id="aigrd13" cx="23.4243" cy="27.9697" r="1.7735" fx="23.4243" fy="27.9697" gradientUnits="userSpaceOnUse">
			<stop  offset="0" style="stop-color:#FFFFFF"/>
			<stop  offset="3.892940e-002" style="stop-color:#F3F3F3"/>
			<stop  offset="0.2177" style="stop-color:#BFBFBF"/>
			<stop  offset="0.3936" style="stop-color:#949494"/>
			<stop  offset="0.563" style="stop-color:#737373"/>
			<stop  offset="0.7241" style="stop-color:#5B5B5B"/>
			<stop  offset="0.8736" style="stop-color:#4D4D4D"/>
			<stop  offset="1" style="stop-color:#484848"/>
		</radialGradient>
		<path style="&st7;" d="M25.9,28.1c1.2,1.3,1.5,2.9,0.7,3.7c-0.8,0.7-2.4,0.2-3.6-1.1c-1.2-1.3-1.5-2.9-0.7-3.7c0.8-0.7,2.4-0.2,3.6,1.1z"/>
		<path style="&st19;" d="M36.7,31c1.8,3.5-3.4,3.8-3.4,3.8s4.5-0.5,3.4-3.8z"/>
		<path style="&st4;" d="M36.7,31c-1.1,3.7-6.7,3.7-6.7,3.7s5.2-0.5,6.7-3.7z"/>
	</g>
	<g id="Layer_x0020_4" style="&st18;">
		<path style="&st16;" d="M52,48H0V0h52v48z"/>
	</g>
</svg>
