<?xml version="1.0" encoding="iso-8859-1"?>
<!-- Generator: Adobe Illustrator 9.0, SVG Export Plug-In  -->
<!DOCTYPE svg PUBLIC "-//W3C//DTD SVG 20000303 Stylable//EN"   "http://www.w3.org/TR/2000/03/WD-SVG-20000303/DTD/svg-20000303-stylable.dtd" [
	<!ENTITY st0 "fill:#82D0E3;stroke:none;">
	<!ENTITY st1 "fill:url(#aigrd1);stroke:none;">
	<!ENTITY st2 "fill:#000000;stroke:none;">
	<!ENTITY st3 "fill:url(#aigrd3);stroke:none;">
	<!ENTITY st4 "opacity:0.3;stroke:none;">
	<!ENTITY st5 "fill-rule:nonzero;clip-rule:nonzero;fill:#FFFFFF;stroke:#000000;stroke-miterlimit:4;">
	<!ENTITY st6 "fill:url(#aigrd5);stroke-width:0.425;">
	<!ENTITY st7 "fill:url(#aigrd2);stroke:none;">
	<!ENTITY st8 "fill:#BEBEBE;stroke:none;">
	<!ENTITY st9 "fill:none;stroke:none;">
	<!ENTITY st10 "fill-rule:nonzero;clip-rule:nonzero;stroke:#000000;stroke-miterlimit:4;">
	<!ENTITY st11 "stroke:none;">
	<!ENTITY st12 "fill:url(#aigrd4);stroke:none;">
]>
<svg  width="44.6pt" height="48pt" viewBox="0 0 44.6 48" xml:space="preserve">
	<g id="Layer_x0020_1" style="&st5;">
		<path style="&st2;" d="M9.3,2.6c-2.9,0-5.2,2.3-5.2,5.2v30.8c0,2.9,2.3,5.2,5.2,5.2h27.5c2.9,0,5.2-2.3,5.2-5.2V7.8c0-2.9-2.3-5.2-5.2-5.2H9.3z"/>
		<linearGradient id="aigrd1" gradientUnits="userSpaceOnUse" x1="13.375" y1="6.7632" x2="32.6902" y2="40.3169">
			<stop  offset="0" style="stop-color:#F0F0F0"/>
			<stop  offset="1" style="stop-color:#D6D6D6"/>
		</linearGradient>
		<path style="&st1;" d="M39.4,38.6c0,1.6-1.3,2.8-2.8,2.8H9.1c-1.6,0-2.8-1.3-2.8-2.8V7.8c0-1.6,1.3-2.8,2.8-2.8h27.5c1.6,0,2.8,1.3,2.8,2.8v30.8z"/>
		<g>
			<radialGradient id="aigrd2" cx="9.0605" cy="29.7285" r="1.247" fx="9.0605" fy="29.7285" gradientUnits="userSpaceOnUse">
				<stop  offset="0" style="stop-color:#F0F0F0"/>
				<stop  offset="1" style="stop-color:#474747"/>
			</radialGradient>
			<path style="&st7;" d="M9.7,29.4c0,0.5-0.4,0.8-0.8,0.8S8,29.8,8,29.4s0.4-0.8,0.8-0.8s0.8,0.4,0.8,0.8z"/>
			<radialGradient id="aigrd3" cx="9.0605" cy="17.8711" r="1.247" fx="9.0605" fy="17.8711" gradientUnits="userSpaceOnUse">
				<stop  offset="0" style="stop-color:#F0F0F0"/>
				<stop  offset="1" style="stop-color:#474747"/>
			</radialGradient>
			<path style="&st3;" d="M9.7,17.5c0,0.5-0.4,0.8-0.8,0.8S8,18,8,17.5c0-0.5,0.4-0.8,0.8-0.8s0.8,0.4,0.8,0.8z"/>
		</g>
		<path style="&st11;" d="M11.6,41.4h-0.4V5.6h0.4v35.8z"/>
		<linearGradient id="aigrd4" gradientUnits="userSpaceOnUse" x1="11.2563" y1="6.5542" x2="10.8333" y2="40.0826">
			<stop  offset="0" style="stop-color:#EDEDED"/>
			<stop  offset="1" style="stop-color:#CACACA"/>
		</linearGradient>
		<path style="&st12;" d="M11.2,41.4h-0.4V5.6h0.4v35.8z"/>
		<path style="&st11;" d="M7.5,8.8L6.9,40.4c-0.5-0.5-0.6-1.4-0.6-1.4l0-31.3c0,0,0-0.8,0.7-1.7c0.7-0.9,2-1,2-1l28,0L10,6.3c-1.1,0-1.7,0.5-1.9,0.8c-0.2,0.2-0.6,1-0.6,1.7z"/>
		<path style="&st8;" d="M38.2,37.6L38.9,6c0.5,0.5,0.6,1.4,0.6,1.4l0,31.3c0,0,0,0.8-0.7,1.7c-0.8,0.9-2,1-2,1l-28,0l26.9-1.3c1.1,0,1.7-0.5,1.9-0.8c0.2-0.2,0.6-1,0.6-1.7z"/>
	</g>
	<g id="Layer_x0020_3" style="&st10;">
		<path style="&st4;" d="M27.7,14.3c-1.7-1.7-12.9-4.7-8.7,2.4c2.1,3.6-3.6,7.2-0.5,12c3.8,5.7,14.3-0.2,8.5-5.5c-4.1-3.7,2.5-7.1,0.7-8.8z"/>
		<radialGradient id="aigrd5" cx="19.2734" cy="13.0234" r="20.1525" fx="19.2734" fy="13.0234" gradientUnits="userSpaceOnUse">
			<stop  offset="0" style="stop-color:#23ACCD"/>
			<stop  offset="1" style="stop-color:#274773"/>
		</radialGradient>
		<path style="&st6;" d="M27,13.4c-1.7-1.7-13.1-4.2-8.9,2.9c2.1,3.6-3.6,7.2-0.5,12c3.8,5.7,14.3-0.2,8.5-5.5C22,19,28.8,15.1,27,13.4z"/>
		<path style="&st11;" d="M31.5,17h-1l-3.3-3.3c0-0.1,0.1-0.2,0.1-0.2c0-0.2-0.2-0.4-0.4-0.4c-0.1,0-0.2,0-0.2,0.1l-3.4-3.4v-1h-0.1h-1.1v1.2h1l3.4,3.4c0,0.1-0.1,0.2-0.1,0.2c0,0.2,0.2,0.4,0.4,0.4c0.1,0,0.2,0,0.2-0.1l3.3,3.3v1h1.2V17h-0.1z M23.2,9.7
			c-0.1,0-0.7,0-0.8,0c0-0.1,0-0.7,0-0.8c0.1,0,0.7,0,0.8,0c0,0.1,0,0.7,0,0.8z M31.5,18c-0.1,0-0.7,0-0.8,0c0-0.1,0-0.7,0-0.8c0.1,0,0.7,0,0.8,0c0,0.1,0,0.7,0,0.8z"/>
		<path style="&st0;" d="M24.6,12.4c-6.8-1.9-7.8,0.3-7,2.3c0.5,1.3,1.5,2.6,1.2,3.9c-0.8,3-4.5,8.3,1,11.3C15,26.4,19,21,19.3,18.8c0.4-2.1-5.4-8.2,5.2-6.4z"/>
		<path style="&st11;" d="M19.9,10.9V9.8h-0.1h-1.1v1l-1.1,1.1c-0.1,0-0.2-0.1-0.2-0.1c-0.2,0-0.4,0.2-0.4,0.4c0,0.1,0,0.2,0.1,0.2l-1.1,1.1h-1v1.2h1.2v-1l1.1-1.1c0.1,0,0.2,0.1,0.2,0.1c0.2,0,0.4-0.2,0.4-0.4c0-0.1,0-0.2-0.1-0.2l1.1-1.1h1z M18.9,9.9
			c0.1,0,0.7,0,0.8,0c0,0.1,0,0.7,0,0.8c-0.1,0-0.7,0-0.8,0c0-0.1,0-0.7,0-0.8z M15.1,14.7c0-0.1,0-0.7,0-0.8c0.1,0,0.6,0,0.8,0l0,0c0,0.2,0,0.7,0,0.8c-0.1,0-0.7,0-0.8,0z"/>
		<g style="&st11;">
			<path d="M24.6,36.5c-0.2,0.4-0.3,0.5-0.3,0.7c0,0.1,0,0.1,0.1,0.1c0.1,0,0.1,0,0.1,0.1c0,0,0,0-0.1,0.1l-1,0.4C23.2,38,23.2,38,23.1,38C23,38,23,37.9,23,37.8c0-0.2,0.2-0.7,0.7-1.5l3.3-5.6c0-0.1,0-0.1-0.1-0.1c0,0,0,0-0.1,0h0c0,0-0.1,0-0.1-0.1
				c0,0,0-0.1,0.1-0.1l1.2-0.5c0.2-0.1,0.3-0.1,0.4-0.1c0.1,0,0.2,0.1,0.2,0.3l1,6.3c0.1,0.6,0.2,0.8,0.3,0.8c0.1,0,0.1,0,0.2-0.1c0.1,0,0.1,0,0.1,0c0,0,0.1,0,0.1,0.1c0,0,0,0.1-0.1,0.1l-1.4,0.6c-0.4,0.2-0.4,0.2-0.6,0.2c-0.2,0-0.3-0.1-0.4-0.6l-0.3-2.6
				c-0.8,0.3-1,0.4-1.4,0.4h-0.8l-0.7,1.3z M27.4,32.9c0-0.2-0.1-1.1-0.1-1.2v-0.1c-0.1,0.3-0.2,0.5-0.5,1l-0.9,1.6c-0.1,0.1-0.1,0.1-0.2,0.2c0.1,0,0.1,0,0.2,0h1.6l-0.2-1.5z"/>
			<path d="M33.9,36.8c0.1-0.4,0.1-0.6,0.2-0.8c-0.2,0.3-0.5,0.5-1.1,1c-0.8,0.7-1.3,1-1.8,1c-0.5,0-0.7-0.4-0.7-1c0-1.6,1-3.2,2.5-4.1c0.8-0.5,1.6-0.7,2.9-0.7h0.2c0.1,0,0.1,0,0.1,0.1l0,0L35.5,36c-0.1,0.3-0.1,0.5-0.1,0.7c0,0.2,0.1,0.3,0.2,0.3
				c0.2,0,0.5-0.1,0.8-0.3c0.1-0.1,0.2-0.1,0.2-0.1c0,0,0.1,0.1,0.1,0.1c0,0,0,0-0.1,0.1l-1,0.7c-0.7,0.4-1.2,0.7-1.5,0.7c-0.3,0-0.4-0.1-0.4-0.4c0-0.1,0-0.3,0.1-0.5l0-0.2z M34.6,33c-0.1,0-0.2,0-0.3,0c-0.4,0-0.7,0-1,0.1c-0.4,0.5-0.7,0.9-0.9,1.4
				c-0.2,0.5-0.3,1.2-0.3,1.6c0,0.4,0.1,0.6,0.4,0.6c0.4,0,1.1-0.4,1.6-1l0.5-2.8z"/>
		</g>
	</g>
	<g id="Layer_x0020_4" style="&st10;">
		<path style="&st9;" d="M44.6,48H0V0h44.6v48z"/>
	</g>
</svg>
