<?xml version="1.0" encoding="iso-8859-1"?>
<!-- Generator: Adobe Illustrator 9.0, SVG Export Plug-In  -->
<!DOCTYPE svg PUBLIC "-//W3C//DTD SVG 20000303 Stylable//EN"   "http://www.w3.org/TR/2000/03/WD-SVG-20000303/DTD/svg-20000303-stylable.dtd" [
	<!ENTITY st0 "fill-rule:evenodd;clip-rule:evenodd;fill:url(#aigrd7);stroke:none;">
	<!ENTITY st1 "fill:url(#aigrd1);stroke:none;">
	<!ENTITY st2 "fill-rule:evenodd;clip-rule:evenodd;fill:url(#aigrd5);stroke-width:2.1416;">
	<!ENTITY st3 "fill:#000000;stroke:none;">
	<!ENTITY st4 "fill:url(#aigrd3);stroke:none;">
	<!ENTITY st5 "fill-rule:evenodd;clip-rule:evenodd;fill:url(#aigrd6);stroke:none;">
	<!ENTITY st6 "fill-rule:nonzero;clip-rule:nonzero;fill:#FFFFFF;stroke:#000000;stroke-miterlimit:4;">
	<!ENTITY st7 "fill-rule:evenodd;clip-rule:evenodd;fill:url(#aigrd8);stroke:none;">
	<!ENTITY st8 "fill:url(#aigrd2);stroke:none;">
	<!ENTITY st9 "fill:#BEBEBE;stroke:none;">
	<!ENTITY st10 "fill-rule:nonzero;clip-rule:nonzero;stroke:#000000;stroke-miterlimit:4;">
	<!ENTITY st11 "stroke:none;">
	<!ENTITY st12 "fill:url(#aigrd4);stroke:none;">
	<!ENTITY st13 "fill-rule:evenodd;clip-rule:evenodd;fill:none;stroke:none;">
]>
<svg  width="52pt" height="48pt" viewBox="0 0 52 48" xml:space="preserve">
	<g id="Layer_x0020_1" style="&st6;">
		<path style="&st3;" d="M12.2,3.6C9.3,3.6,7,5.9,7,8.8v30.8c0,2.9,2.3,5.2,5.2,5.2h27.5c2.9,0,5.2-2.3,5.2-5.2V8.8c0-2.9-2.3-5.2-5.2-5.2H12.2z"/>
		<linearGradient id="aigrd1" gradientUnits="userSpaceOnUse" x1="16.2729" y1="7.7627" x2="35.5882" y2="41.3164">
			<stop  offset="0" style="stop-color:#F0F0F0"/>
			<stop  offset="1" style="stop-color:#D6D6D6"/>
		</linearGradient>
		<path style="&st1;" d="M42.3,39.6c0,1.6-1.3,2.8-2.8,2.8H12c-1.6,0-2.8-1.3-2.8-2.8V8.8c0-1.6,1.3-2.8,2.8-2.8h27.5c1.6,0,2.8,1.3,2.8,2.8v30.8z"/>
		<g>
			<radialGradient id="aigrd2" cx="11.959" cy="30.7285" r="1.247" fx="11.959" fy="30.7285" gradientUnits="userSpaceOnUse">
				<stop  offset="0" style="stop-color:#F0F0F0"/>
				<stop  offset="1" style="stop-color:#474747"/>
			</radialGradient>
			<path style="&st8;" d="M12.6,30.4c0,0.5-0.4,0.8-0.8,0.8s-0.8-0.4-0.8-0.8s0.4-0.8,0.8-0.8s0.8,0.4,0.8,0.8z"/>
			<radialGradient id="aigrd3" cx="11.959" cy="18.8711" r="1.247" fx="11.959" fy="18.8711" gradientUnits="userSpaceOnUse">
				<stop  offset="0" style="stop-color:#F0F0F0"/>
				<stop  offset="1" style="stop-color:#474747"/>
			</radialGradient>
			<path style="&st4;" d="M12.6,18.5c0,0.5-0.4,0.8-0.8,0.8s-0.8-0.4-0.8-0.8c0-0.5,0.4-0.8,0.8-0.8s0.8,0.4,0.8,0.8z"/>
		</g>
		<path style="&st11;" d="M14.5,42.4h-0.4V6.6h0.4v35.8z"/>
		<linearGradient id="aigrd4" gradientUnits="userSpaceOnUse" x1="14.1538" y1="7.5537" x2="13.7308" y2="41.0821">
			<stop  offset="0" style="stop-color:#EDEDED"/>
			<stop  offset="1" style="stop-color:#CACACA"/>
		</linearGradient>
		<path style="&st12;" d="M14.1,42.4h-0.4V6.6h0.4v35.8z"/>
		<path style="&st11;" d="M10.4,9.8L9.8,41.4c-0.5-0.5-0.6-1.4-0.6-1.4l0-31.3c0,0,0-0.8,0.7-1.7c0.7-0.9,2-1,2-1l28,0L12.9,7.3c-1.1,0-1.7,0.5-1.9,0.8c-0.2,0.2-0.6,1-0.6,1.7z"/>
		<path style="&st9;" d="M41.1,38.6L41.8,7c0.5,0.5,0.6,1.4,0.6,1.4l0,31.3c0,0,0,0.8-0.7,1.7c-0.8,0.9-2,1-2,1l-28,0l26.9-1.3c1.1,0,1.7-0.5,1.9-0.8c0.2-0.2,0.6-1,0.6-1.7z"/>
	</g>
	<g id="Layer_x0020_2" style="&st10;">
		<radialGradient id="aigrd5" cx="24.7788" cy="19.9541" r="14.5385" fx="24.7788" fy="19.9541" gradientUnits="userSpaceOnUse">
			<stop  offset="0" style="stop-color:#2286B7"/>
			<stop  offset="1" style="stop-color:#190F50"/>
		</radialGradient>
		<path style="&st2;" d="M16.9,24.4c0,5.6,4.6,10.2,10.2,10.2c5.6,0,10.2-4.6,10.2-10.2c0-5.6-4.6-10.2-10.2-10.2c-5.6,0-10.2,4.6-10.2,10.2z"/>
		<radialGradient id="aigrd6" cx="23.8584" cy="19.9419" r="15.3151" fx="23.8584" fy="19.9419" gradientUnits="userSpaceOnUse">
			<stop  offset="0" style="stop-color:#99BBA8"/>
			<stop  offset="4.483276e-002" style="stop-color:#94B8A9"/>
			<stop  offset="9.596599e-002" style="stop-color:#87B0A9"/>
			<stop  offset="0.1502" style="stop-color:#72A1A9"/>
			<stop  offset="0.2065" style="stop-color:#538FA8"/>
			<stop  offset="0.264" style="stop-color:#2E79A7"/>
			<stop  offset="0.2865" style="stop-color:#1D70A5"/>
			<stop  offset="0.8539" style="stop-color:#190F50"/>
			<stop  offset="1" style="stop-color:#585287"/>
		</radialGradient>
		<path style="&st5;" d="M16.9,24.4c0,5.6,4.6,10.2,10.2,10.2c5.6,0,10.2-4.6,10.2-10.2c0-5.6-4.6-10.2-10.2-10.2c-5.6,0-10.2,4.6-10.2,10.2z"/>
		<radialGradient id="aigrd7" cx="23.4648" cy="19.8594" r="12.6016" fx="23.4648" fy="19.8594" gradientUnits="userSpaceOnUse">
			<stop  offset="0" style="stop-color:#D5D690"/>
			<stop  offset="0.2202" style="stop-color:#CFD08C"/>
			<stop  offset="0.4404" style="stop-color:#BFBF80"/>
			<stop  offset="0.6607" style="stop-color:#A4A46D"/>
			<stop  offset="0.8799" style="stop-color:#828257"/>
			<stop  offset="0.927" style="stop-color:#7A7A52"/>
			<stop  offset="1" style="stop-color:#9C9C68"/>
		</radialGradient>
		<path style="&st0;" d="M25.8,18.3l2.4,2.1l1.2-2l1.7,1.8l-2.8,1.6l-0.4,2.5l0.6,1h-0.6l-0.7-1h-2.3L24,25.8l2.3,1.3l3.3,1.9l-2.7,2.3v2.3l-2.1-4.7l0.8-1.4l-2.4-1.6v-2l-1.1-4.1l-1.3-0.8l0.2-1.4l1.8-1.3v1.6l3.1,0.5z"/>
		<radialGradient id="aigrd8" cx="24.7778" cy="20.7046" r="10.9014" fx="24.7778" fy="20.7046" gradientUnits="userSpaceOnUse">
			<stop  offset="0" style="stop-color:#D5D690"/>
			<stop  offset="0.2202" style="stop-color:#CFD08C"/>
			<stop  offset="0.4404" style="stop-color:#BFBF80"/>
			<stop  offset="0.6607" style="stop-color:#A4A46D"/>
			<stop  offset="0.8799" style="stop-color:#828257"/>
			<stop  offset="0.927" style="stop-color:#7A7A52"/>
			<stop  offset="1" style="stop-color:#9C9C68"/>
		</radialGradient>
		<path style="&st7;" d="M32.9,17.1v1.3l0.7,1.3v2l1.1,0.6l0.2-1.3l-0.7-1.2h1l-2.3-2.8z"/>
	</g>
	<g id="Layer_x0020_3" style="&st10;">
		<path style="&st13;" d="M52,48H0V0h52v48z"/>
	</g>
</svg>
