<?xml version="1.0" encoding="UTF-8" standalone="no"?>
<!DOCTYPE svg PUBLIC "-//W3C//DTD SVG 20010904//EN"
"http://www.w3.org/TR/2001/REC-SVG-20010904/DTD/svg10.dtd">
<!-- Created with Sodipodi ("http://www.sodipodi.com/") -->
<svg
   width="24pt"
   height="24pt"
   viewBox="0 0 24 24"
   xml:space="preserve"
   xmlns="http://www.w3.org/2000/svg"
   xmlns:xml="http://www.w3.org/XML/1998/namespace"
   xmlns:sodipodi="http://sodipodi.sourceforge.net/DTD/sodipodi-0.dtd"
   xmlns:xlink="http://www.w3.org/1999/xlink"
   id="svg548"
   sodipodi:version="0.32"
   sodipodi:docname="/home/adam/skiftnyckel.svg"
   sodipodi:docbase="/home/adam">
  <defs
     id="defs625" />
  <sodipodi:namedview
     id="base" />
  <g
     id="Layer_x0020_3"
     style="fill-rule:nonzero;clip-rule:nonzero;fill:#FFFFFF;stroke:#000000;stroke-miterlimit:4;">
    <linearGradient
       id="aigrd1"
       gradientUnits="userSpaceOnUse"
       x1="10.73"
       y1="-4.4619"
       x2="10.73"
       y2="20.1426">
      <stop
         offset="0"
         style="stop-color:#B8B8B8"
         id="stop551" />
      <stop
         offset="0.2528"
         style="stop-color:#E9E9E9"
         id="stop552" />
      <stop
         offset="0.2978"
         style="stop-color:#909090"
         id="stop553" />
      <stop
         offset="0.2992"
         style="stop-color:#919191"
         id="stop554" />
      <stop
         offset="0.3458"
         style="stop-color:#AAAAAA"
         id="stop555" />
      <stop
         offset="0.3973"
         style="stop-color:#BEBEBE"
         id="stop556" />
      <stop
         offset="0.4565"
         style="stop-color:#CCCCCC"
         id="stop557" />
      <stop
         offset="0.5295"
         style="stop-color:#D4D4D4"
         id="stop558" />
      <stop
         offset="0.6573"
         style="stop-color:#D6D6D6"
         id="stop559" />
      <stop
         offset="1"
         style="stop-color:#A2A2A2"
         id="stop560" />
    </linearGradient>
    <path
       style="fill:url(#aigrd1);stroke-width:2.5514;stroke-linecap:round;stroke-linejoin:round;"
       d="M18.9,17.5l-8.6-8.9c0.5-1.2,1-2.8,0.7-3.5C10.3,4,7.7,3,7.7,3l-1,1l1.8,1.8L7.8,8.3L5.4,8.9L3.6,7.1l-1,1c0,0,0.6,2.8,2.1,3.3c0.9,0.3,2.3-0.2,3.4-0.6l8.5,8.9c0.6,0.6,1.5,0.6,2.1,0c0.6-0.6,0.6-1.5,0-2.1z"
       id="path561" />
    <linearGradient
       id="aigrd2"
       gradientUnits="userSpaceOnUse"
       x1="6.7681"
       y1="2.3311"
       x2="6.7681"
       y2="20.2795">
      <stop
         offset="0"
         style="stop-color:#B8B8B8"
         id="stop563" />
      <stop
         offset="0.2528"
         style="stop-color:#F8F8F8"
         id="stop564" />
      <stop
         offset="0.2978"
         style="stop-color:#C2C2C2"
         id="stop565" />
      <stop
         offset="0.3067"
         style="stop-color:#C6C6C6"
         id="stop566" />
      <stop
         offset="0.3647"
         style="stop-color:#D9D9D9"
         id="stop567" />
      <stop
         offset="0.4313"
         style="stop-color:#E7E7E7"
         id="stop568" />
      <stop
         offset="0.5135"
         style="stop-color:#F0F0F0"
         id="stop569" />
      <stop
         offset="0.6573"
         style="stop-color:#F2F2F2"
         id="stop570" />
      <stop
         offset="1"
         style="stop-color:#A2A2A2"
         id="stop571" />
    </linearGradient>
    <path
       style="fill:url(#aigrd2);stroke:none;"
       d="M10.9,5.1C10.3,4,7.7,3,7.7,3l-1,1l1.8,1.8L7.8,8.3L5.4,8.9L3.6,7.1l-1,1c0,0,0.6,2.8,2.1,3.3c1.5,0.5,4.9-1.3,4.9-1.3s1.9-3.7,1.3-4.9z"
       id="path572" />
    <path
       style="fill:#787878;stroke:none;"
       d="M8.7,9.1l9.9,10.4"
       id="path573" />
    <linearGradient
       id="aigrd3"
       gradientUnits="userSpaceOnUse"
       x1="13.3486"
       y1="3.1245"
       x2="13.3486"
       y2="19.9968">
      <stop
         offset="0"
         style="stop-color:#B8B8B8"
         id="stop575" />
      <stop
         offset="0.2528"
         style="stop-color:#F8F8F8"
         id="stop576" />
      <stop
         offset="0.2978"
         style="stop-color:#C2C2C2"
         id="stop577" />
      <stop
         offset="0.3067"
         style="stop-color:#C6C6C6"
         id="stop578" />
      <stop
         offset="0.3647"
         style="stop-color:#D9D9D9"
         id="stop579" />
      <stop
         offset="0.4313"
         style="stop-color:#E7E7E7"
         id="stop580" />
      <stop
         offset="0.5135"
         style="stop-color:#F0F0F0"
         id="stop581" />
      <stop
         offset="0.6573"
         style="stop-color:#F2F2F2"
         id="stop582" />
      <stop
         offset="1"
         style="stop-color:#A2A2A2"
         id="stop583" />
    </linearGradient>
    <path
       style="fill:url(#aigrd3);stroke:none;"
       d="M7.9,8.3c-0.6,0.6-0.6,1.5,0,2.1l8.9,9.2c0.6,0.6,1.5,0.6,2.1,0c0.6-0.6,0.6-1.5,0-2.1L10,8.3c-0.6-0.6-1.5-0.6-2.1,0z"
       id="path584" />
    <path
       style="stroke:none;"
       d="M7,4.3L6.7,4l1-1c0,0,2.2,0.8,3,1.7C9.6,4,7.8,3.5,7.8,3.5L7,4.3z"
       id="path585" />
    <path
       style="stroke:none;"
       d="M2.6,8.1l1-1l1.8,1.8l2.5-0.7l0.6-2.5L8.2,8.5l-3,1L3.6,7.7L2.7,8.6L2.6,8.1z"
       id="path586" />
    <path
       style="stroke:none;"
       d="M10.2,8.5l8.6,9l-8.3-8l-0.3-1.1z"
       id="path587" />
    <radialGradient
       id="aigrd4"
       cx="17.6094"
       cy="18.3066"
       r="0.9138"
       fx="17.6094"
       fy="18.3066"
       gradientUnits="userSpaceOnUse">
      <stop
         offset="0"
         style="stop-color:#4D4D4D"
         id="stop589" />
      <stop
         offset="1"
         style="stop-color:#B8B8B8"
         id="stop590" />
    </radialGradient>
    <path
       style="fill:url(#aigrd4);stroke:none;"
       d="M18.4,18.7c0,0.3-0.3,0.6-0.6,0.6c-0.3,0-0.6-0.3-0.6-0.6c0-0.3,0.3-0.6,0.6-0.6c0.3,0,0.6,0.3,0.6,0.6z"
       id="path591" />
  </g>
  <g
     id="Layer_x0020_4"
     style="fill-rule:nonzero;clip-rule:nonzero;stroke:#000000;stroke-miterlimit:4;">
    <path
       style="fill:none;stroke:none;"
       d="M24,24H0V0h24v24z"
       id="path623" />
  </g>
</svg>
