<?xml version="1.0" encoding="iso-8859-1"?>
<!-- Generator: Adobe Illustrator 9.0, SVG Export Plug-In  -->
<!DOCTYPE svg PUBLIC "-//W3C//DTD SVG 20000303 Stylable//EN"   "http://www.w3.org/TR/2000/03/WD-SVG-20000303/DTD/svg-20000303-stylable.dtd" [
	<!ENTITY st0 "fill-rule:nonzero;clip-rule:nonzero;fill:#E6E6E6;stroke:#000000;stroke-miterlimit:4;">
	<!ENTITY st1 "fill:url(#aigrd1);stroke:none;">
	<!ENTITY st2 "fill:#000000;stroke:none;">
	<!ENTITY st3 "fill:url(#aigrd9);stroke:none;">
	<!ENTITY st4 "fill:url(#aigrd6);stroke:none;">
	<!ENTITY st5 "fill:url(#aigrd3);stroke:none;">
	<!ENTITY st6 "fill:#545454;stroke:none;">
	<!ENTITY st7 "fill-rule:nonzero;clip-rule:nonzero;fill:#FFFFFF;stroke:#000000;stroke-miterlimit:4;">
	<!ENTITY st8 "fill:url(#aigrd10);stroke:none;">
	<!ENTITY st9 "fill:url(#aigrd8);stroke:none;">
	<!ENTITY st10 "fill:#3B3B3B;stroke:none;">
	<!ENTITY st11 "fill:url(#aigrd5);stroke:none;">
	<!ENTITY st12 "fill:url(#aigrd2);stroke:none;">
	<!ENTITY st13 "fill:#BEBEBE;stroke:none;">
	<!ENTITY st14 "fill:none;stroke:none;">
	<!ENTITY st15 "fill:#454545;stroke:none;">
	<!ENTITY st16 "fill:#9F9F9F;stroke:none;">
	<!ENTITY st17 "fill-rule:nonzero;clip-rule:nonzero;stroke:#000000;stroke-miterlimit:4;">
	<!ENTITY st18 "fill:url(#aigrd7);stroke:none;">
	<!ENTITY st19 "stroke:none;">
	<!ENTITY st20 "fill:url(#aigrd4);stroke:none;">
]>
<svg  width="60.9pt" height="48pt" viewBox="0 0 60.9 48" xml:space="preserve">
	<g id="Layer_x0020_1" style="&st7;">
		<path style="&st2;" d="M7.2,3.6C4.3,3.6,2,5.9,2,8.8v30.8c0,2.9,2.3,5.2,5.2,5.2h27.5c2.9,0,5.2-2.3,5.2-5.2V8.8c0-2.9-2.3-5.2-5.2-5.2H7.2z"/>
		<linearGradient id="aigrd1" gradientUnits="userSpaceOnUse" x1="11.2373" y1="7.7637" x2="30.5521" y2="41.3167">
			<stop  offset="0" style="stop-color:#F0F0F0"/>
			<stop  offset="1" style="stop-color:#D6D6D6"/>
		</linearGradient>
		<path style="&st1;" d="M37.3,39.6c0,1.6-1.3,2.8-2.8,2.8H6.9c-1.6,0-2.8-1.3-2.8-2.8V8.8c0-1.6,1.3-2.8,2.8-2.8h27.5c1.6,0,2.8,1.3,2.8,2.8v30.8z"/>
		<g>
			<radialGradient id="aigrd2" cx="6.9224" cy="30.7285" r="1.247" fx="6.9224" fy="30.7285" gradientUnits="userSpaceOnUse">
				<stop  offset="0" style="stop-color:#F0F0F0"/>
				<stop  offset="1" style="stop-color:#474747"/>
			</radialGradient>
			<path style="&st12;" d="M7.5,30.4c0,0.5-0.4,0.8-0.8,0.8s-0.8-0.4-0.8-0.8s0.4-0.8,0.8-0.8s0.8,0.4,0.8,0.8z"/>
			<radialGradient id="aigrd3" cx="6.9224" cy="18.8711" r="1.247" fx="6.9224" fy="18.8711" gradientUnits="userSpaceOnUse">
				<stop  offset="0" style="stop-color:#F0F0F0"/>
				<stop  offset="1" style="stop-color:#474747"/>
			</radialGradient>
			<path style="&st5;" d="M7.5,18.5c0,0.5-0.4,0.8-0.8,0.8S5.8,19,5.8,18.5c0-0.5,0.4-0.8,0.8-0.8s0.8,0.4,0.8,0.8z"/>
		</g>
		<path style="&st19;" d="M9.5,42.4H9.1V6.6h0.4v35.8z"/>
		<linearGradient id="aigrd4" gradientUnits="userSpaceOnUse" x1="9.1187" y1="7.5537" x2="8.6956" y2="41.0821">
			<stop  offset="0" style="stop-color:#EDEDED"/>
			<stop  offset="1" style="stop-color:#CACACA"/>
		</linearGradient>
		<path style="&st20;" d="M9.1,42.4H8.7V6.6h0.4v35.8z"/>
		<path style="&st19;" d="M5.4,9.8L4.8,41.4c-0.5-0.5-0.6-1.4-0.6-1.4l0-31.3c0,0,0-0.8,0.7-1.7c0.7-0.9,2-1,2-1l28,0L7.9,7.3C6.8,7.3,6.2,7.8,6,8.1c-0.2,0.2-0.6,1-0.6,1.7z"/>
		<path style="&st13;" d="M36.1,38.6L36.7,7c0.5,0.5,0.6,1.4,0.6,1.4l0,31.3c0,0,0,0.8-0.7,1.7c-0.8,0.9-2,1-2,1l-28,0l26.9-1.3c1.1,0,1.7-0.5,1.9-0.8c0.2-0.2,0.6-1,0.6-1.7z"/>
	</g>
	<g id="Layer_x0020_2" style="&st17;">
		<path style="&st14;" d="M60.9,48H0V0h60.9v48z"/>
	</g>
	<g id="Layer_x0020_3" style="&st0;">
		<path style="&st2;" d="M25,31.6c1.2,4.4,6.9,5,11.5,5.5c2.1,0.2,4.8,0.5,5.5,1.2c1.8,1.8-0.2,5.6-0.2,5.6L40,47l3.3-1.1c2.9-1,11-3.1,14.3-0.8l2.3,1.7l-0.2-2.9c-0.4-4.8-1.6-8.1-3.9-10c-3.2-2.7-7.8-2.3-12.7-1.8C38,32.6,32.1,33.2,27,30L24,28.2l0.9,3.3z"/>
		<path style="&st2;" d="M29.3,8c-3.1,0.8-6.3,2.7-8.8,5.2c-2.5,2.6-4.4,5.7-5.2,8.8c-0.3,1.3-0.5,2.5-0.5,3.7c0,1.2,0.2,2.4,0.5,3.6c0.7,2.2,1.9,4.1,3.7,5.4c2,2.8,5.2,4.3,9,4.3c4.5,0,9.2-2,12.7-5.6c3.6-3.6,5.6-8.2,5.6-12.7c0-3.7-1.5-6.8-4.1-8.8
			c-1.3-1.8-3.2-3.2-5.5-3.9c-2.3-0.7-4.9-0.7-7.5,0z"/>
		<linearGradient id="aigrd5" gradientUnits="userSpaceOnUse" x1="33.3794" y1="26.7363" x2="39.1466" y2="33.3609">
			<stop  offset="0" style="stop-color:#959595"/>
			<stop  offset="1" style="stop-color:#5B5B5B"/>
		</linearGradient>
		<path style="&st11;" d="M31.4,11.5c-5.9,1.6-11.3,7-12.8,12.9c-1.7,6.7,1.8,12.8,9,12.8c8.6,0,16.7-8.1,16.7-16.7c0-7.3-6.2-10.8-12.9-9z M27.7,28.3c-0.4,2.4-2.5,4.4-4.6,4.5c-2,0.1-3.1-1.7-2.6-3.9c0.5-2.1,2.3-4,4.2-4.2c2-0.3,3.3,1.3,3,3.5z M29.2,18.1
			c-0.3,1.9-2.2,3.8-4.1,4.1c-1.8,0.3-2.9-1-2.5-2.8c0.4-1.7,2.1-3.4,3.8-3.8c1.8-0.4,3.1,0.7,2.8,2.5z M39.3,27.2c-0.1,2.6-2.5,5-5.1,5.1c-2.5,0.1-4.2-1.8-3.8-4.3c0.3-2.3,2.4-4.4,4.7-4.7c2.4-0.3,4.4,1.3,4.3,3.8z M39.8,16c-0.1,2.1-2.2,4.2-4.6,4.6
			c-2.3,0.4-3.8-1-3.5-2.9c0.3-1.9,2.1-3.7,4.2-4.2c2.2-0.5,4,0.6,3.9,2.6z"/>
		<radialGradient id="aigrd6" cx="28.2583" cy="19.8921" r="10.8806" fx="28.2583" fy="19.8921" gradientUnits="userSpaceOnUse">
			<stop  offset="0" style="stop-color:#454545"/>
			<stop  offset="1" style="stop-color:#333333"/>
		</radialGradient>
		<path style="&st4;" d="M38.8,21.2c0,5.3-5.1,10.4-10.5,10.4c-4.5,0-6.7-3.8-5.6-8c1-3.7,4.3-7.1,8-8c4.2-1.1,8.1,1.1,8.1,5.6z"/>
		<radialGradient id="aigrd7" cx="37.9126" cy="36.582" r="26.9701" fx="37.9126" fy="36.582" gradientUnits="userSpaceOnUse">
			<stop  offset="0" style="stop-color:#767676"/>
			<stop  offset="1" style="stop-color:#484848"/>
		</radialGradient>
		<path style="&st18;" d="M37.2,19.6C37.2,25,32.1,30,26.8,30c-4.5,0-6.7-3.8-5.6-8c1-3.7,4.3-7.1,8-8c4.2-1.1,8.1,1.1,8.1,5.6z"/>
		<path style="&st10;" d="M42.1,14c3.5,3.5,3.6,11.4-1.8,17.4c-5.4,6.1-13.5,7.4-18.3,4.1C35.5,42,49.3,23.9,42.1,14z"/>
		<radialGradient id="aigrd8" cx="24.0972" cy="30.1602" r="14.1515" fx="24.0972" fy="30.1602" gradientUnits="userSpaceOnUse">
			<stop  offset="0" style="stop-color:#767676"/>
			<stop  offset="1" style="stop-color:#484848"/>
		</radialGradient>
		<path style="&st9;" d="M58.4,44c-4.5-3.2-15.5,0.6-15.5,0.6s2.6-4.7,0-7.2c-2.6-2.6-15-0.4-16.6-6.1c13.5,8.3,30.6-7.3,32.1,12.8z"/>
		<radialGradient id="aigrd9" cx="46.0688" cy="32.1396" r="14.4322" fx="46.0688" fy="32.1396" gradientUnits="userSpaceOnUse">
			<stop  offset="0" style="stop-color:#767676"/>
			<stop  offset="1" style="stop-color:#484848"/>
		</radialGradient>
		<path style="&st3;" d="M58.3,43.9c-4.5-3.2-15.5,0.6-15.5,0.6s5.8-9.2-5.5-10.8c13.4-1.4,20.5-2.1,21,10.2z"/>
		<path style="&st16;" d="M43.9,36.6c1.4,5.1-1.1,7.9-1.1,7.9s2.3-4.1,0.5-7.6c-2.2-4.2-12-0.3-17.1-5.7c5.3,5.3,16.2-0.2,17.7,5.4z"/>
		<linearGradient id="aigrd10" gradientUnits="userSpaceOnUse" x1="13.5117" y1="4.3452" x2="41.2827" y2="35.9386">
			<stop  offset="0" style="stop-color:#FFFFFF"/>
			<stop  offset="1" style="stop-color:#959595"/>
		</linearGradient>
		<path style="&st8;" d="M29.3,9.4c-5.9,1.6-11.3,7-12.8,12.9c-1.7,6.7,1.8,12.8,9,12.8c8.6,0,16.7-8.1,16.7-16.7c0-7.3-6.2-10.8-12.9-9z M25.6,26.1c-0.4,2.4-2.5,4.4-4.6,4.5c-2,0.1-3.1-1.7-2.6-3.9c0.5-2.1,2.3-4,4.2-4.2c2-0.3,3.3,1.3,3,3.5z M27.1,16
			c-0.3,1.9-2.2,3.8-4.1,4.1c-1.8,0.3-2.9-1-2.5-2.8c0.4-1.7,2.1-3.4,3.8-3.8c1.8-0.4,3.1,0.7,2.8,2.5z M37.2,25c-0.1,2.6-2.5,5-5.1,5.1c-2.5,0.1-4.2-1.8-3.8-4.3c0.3-2.3,2.4-4.4,4.7-4.7c2.4-0.3,4.4,1.3,4.3,3.8z M37.7,13.8c-0.1,2.1-2.2,4.2-4.6,4.6
			c-2.3,0.4-3.8-1-3.5-2.9c0.3-1.9,2.1-3.7,4.2-4.2c2.2-0.5,4,0.6,3.9,2.6z"/>
		<path style="&st10;" d="M36,22c-1.5-1.3-4.2-1.2-6,0.6c-1.9,1.9-2.8,5-0.4,6.8C26,24.9,32.2,19.7,36,22z"/>
		<path style="&st19;" d="M29.6,29.4c4.9,3.3,10.5-4.5,6.4-7.4c3.8,3.9-2,9.9-6.4,7.4z"/>
		<path style="&st6;" d="M26.6,13.9c-0.7-0.7-2.5-1-4.5,0.8c-1.3,1.2-2.5,3.7-0.8,5c-2.1-2.1,2.5-7.5,5.4-5.8z"/>
		<path style="&st19;" d="M21.2,19.7c0.7,0.7,2.5,1,4.5-0.8c1.3-1.2,2.5-3.7,0.8-5c2.1,2.1-2.5,7.5-5.4,5.8z"/>
		<path style="&st15;" d="M24.5,23.1c-0.7-0.7-2.6-0.9-4.5,0.8c-2.1,2-2.4,5.1-0.7,6.3c-2.4-3.1,2-8.6,5.2-7.2z"/>
		<path style="&st19;" d="M19.6,30.4c0.7,0.7,2.6,0.9,4.5-0.8c2.1-2,2.4-5.1,0.7-6.3c2.4,3.1-2,8.6-5.2,7.2z"/>
		<path style="&st6;" d="M36.6,11.6c-0.7-0.7-3.4-0.8-5.4,1c-1.8,1.7-2.3,3.8-0.8,5.2c-2.6-3.4,3-7.7,6.1-6.3z"/>
		<path style="&st19;" d="M31,18.2c0.7,0.7,3.4,0.8,5.4-1c1.8-1.7,2.3-3.8,0.8-5.2c2.6,3.4-3,7.7-6.1,6.3z"/>
		<path style="&st10;" d="M39.9,11.8c3.5,3.5,3.6,11.4-1.8,17.4c-5.4,6.1-13.5,7.4-18.3,4.1c13.5,6.4,27.4-11.7,20.1-21.6z"/>
	</g>
</svg>
