<?xml version="1.0" encoding="iso-8859-1"?>
<!-- Generator: Adobe Illustrator 9.0, SVG Export Plug-In  -->
<!DOCTYPE svg PUBLIC "-//W3C//DTD SVG 20000303 Stylable//EN"   "http://www.w3.org/TR/2000/03/WD-SVG-20000303/DTD/svg-20000303-stylable.dtd" [
	<!ENTITY st0 "fill:url(#aigrd1);stroke:none;">
	<!ENTITY st1 "fill:#000000;stroke:none;">
	<!ENTITY st2 "fill:none;stroke-width:0.4766;">
	<!ENTITY st3 "fill:url(#aigrd3);stroke:none;">
	<!ENTITY st4 "fill-rule:nonzero;clip-rule:nonzero;fill:#FFFFFF;stroke:#000000;stroke-miterlimit:4;">
	<!ENTITY st5 "fill:url(#aigrd2);stroke:none;">
	<!ENTITY st6 "fill:#BEBEBE;stroke:none;">
	<!ENTITY st7 "fill:none;stroke:none;">
	<!ENTITY st8 "fill-rule:nonzero;clip-rule:nonzero;stroke:#000000;stroke-miterlimit:4;">
	<!ENTITY st9 "stroke:none;">
	<!ENTITY st10 "fill:url(#aigrd4);stroke:none;">
]>
<svg  width="42.5pt" height="48pt" viewBox="0 0 42.5 48" xml:space="preserve">
	<g id="Layer_x0020_1" style="&st4;">
		<path style="&st1;" d="M8.2,3.6C5.3,3.6,3,5.9,3,8.8v30.8c0,2.9,2.3,5.2,5.2,5.2h27.5c2.9,0,5.2-2.3,5.2-5.2V8.8c0-2.9-2.3-5.2-5.2-5.2H8.2z"/>
		<linearGradient id="aigrd1" gradientUnits="userSpaceOnUse" x1="12.2363" y1="7.7627" x2="31.5515" y2="41.3164">
			<stop  offset="0" style="stop-color:#F0F0F0"/>
			<stop  offset="1" style="stop-color:#D6D6D6"/>
		</linearGradient>
		<path style="&st0;" d="M38.3,39.6c0,1.6-1.3,2.8-2.8,2.8H7.9c-1.6,0-2.8-1.3-2.8-2.8V8.8c0-1.6,1.3-2.8,2.8-2.8h27.5c1.6,0,2.8,1.3,2.8,2.8v30.8z"/>
		<g>
			<radialGradient id="aigrd2" cx="7.9224" cy="30.7285" r="1.247" fx="7.9224" fy="30.7285" gradientUnits="userSpaceOnUse">
				<stop  offset="0" style="stop-color:#F0F0F0"/>
				<stop  offset="1" style="stop-color:#474747"/>
			</radialGradient>
			<path style="&st5;" d="M8.5,30.4c0,0.5-0.4,0.8-0.8,0.8s-0.8-0.4-0.8-0.8s0.4-0.8,0.8-0.8s0.8,0.4,0.8,0.8z"/>
			<radialGradient id="aigrd3" cx="7.9224" cy="18.8711" r="1.247" fx="7.9224" fy="18.8711" gradientUnits="userSpaceOnUse">
				<stop  offset="0" style="stop-color:#F0F0F0"/>
				<stop  offset="1" style="stop-color:#474747"/>
			</radialGradient>
			<path style="&st3;" d="M8.5,18.5c0,0.5-0.4,0.8-0.8,0.8S6.8,19,6.8,18.5c0-0.5,0.4-0.8,0.8-0.8s0.8,0.4,0.8,0.8z"/>
		</g>
		<path style="&st9;" d="M10.5,42.4h-0.4V6.6h0.4v35.8z"/>
		<linearGradient id="aigrd4" gradientUnits="userSpaceOnUse" x1="10.1172" y1="7.5537" x2="9.6941" y2="41.0821">
			<stop  offset="0" style="stop-color:#EDEDED"/>
			<stop  offset="1" style="stop-color:#CACACA"/>
		</linearGradient>
		<path style="&st10;" d="M10.1,42.4H9.7V6.6h0.4v35.8z"/>
		<path style="&st9;" d="M6.4,9.8L5.8,41.4c-0.5-0.5-0.6-1.4-0.6-1.4l0-31.3c0,0,0-0.8,0.7-1.7c0.7-0.9,2-1,2-1l28,0L8.9,7.3C7.8,7.3,7.2,7.8,7,8.1c-0.2,0.2-0.6,1-0.6,1.7z"/>
		<path style="&st6;" d="M37.1,38.6L37.7,7c0.5,0.5,0.6,1.4,0.6,1.4l0,31.3c0,0,0,0.8-0.7,1.7c-0.8,0.9-2,1-2,1l-28,0l26.9-1.3c1.1,0,1.7-0.5,1.9-0.8c0.2-0.2,0.6-1,0.6-1.7z"/>
	</g>
	<g id="Layer_x0020_2" style="&st8;">
		<path style="&st7;" d="M42.5,48H0V0h42.5v48z"/>
		<path style="&st9;" d="M29.5,13.6l-0.3-0.1l0,5.1c-0.4-0.3-1-0.4-1.6-0.1c-0.9,0.3-1.5,1-1.3,1.5s1,0.8,1.9,0.5c0.8-0.3,1.4-0.8,1.3-1.4l0-5.5z"/>
		<path style="&st9;" d="M32.6,26c0.4,0.4,1.9,0.5,1.9,1.8c0.4-1.9-1.5-1.8-2.2-3.5l0,5.1c-0.4-0.3-1-0.4-1.6-0.1c-0.9,0.3-1.5,1-1.3,1.5c0.2,0.6,1,0.8,1.9,0.5c0.8-0.3,1.4-0.8,1.3-1.4l0-3.9z"/>
		<path style="&st9;" d="M17.8,28.1c0.4,0.4,1.9,0.5,1.9,1.8c0.4-1.9-1.5-1.8-2.2-3.5l0,5.1c-0.4-0.3-1-0.4-1.6-0.1c-0.9,0.3-1.5,1-1.3,1.5c0.2,0.6,1,0.8,1.9,0.5c0.8-0.3,1.4-0.8,1.3-1.4l0-3.9z"/>
		<path style="&st9;" d="M22.6,12.6c0.4,0.4,1.9,0.5,1.9,1.8c0.4-1.9-1.5-1.8-2.2-3.5l0,5.1c-0.4-0.3-1-0.4-1.6-0.1c-0.9,0.3-1.5,1-1.3,1.5c0.2,0.6,1,0.8,1.9,0.5c0.8-0.3,1.4-0.8,1.3-1.4l0-3.9z"/>
		<path style="&st9;" d="M17.8,12.6c0.4,0.4,1.9,0.5,1.9,1.8c0.4-1.9-1.5-1.8-2.2-3.5l0,5.1c-0.4-0.3-1-0.4-1.6-0.1c-0.9,0.3-1.5,1-1.3,1.5c0.2,0.6,1,0.8,1.9,0.5c0.8-0.3,1.4-0.8,1.3-1.4l0-3.9z"/>
		<g style="&st9;">
			<path d="M27.6,28.4l-0.3-0.1l0,5.1c-0.4-0.3-1-0.4-1.7-0.1c-0.9,0.3-1.5,1-1.3,1.5c0.2,0.6,1,0.8,1.9,0.5c0.8-0.3,1.4-0.8,1.3-1.4l0-5.5z"/>
			<path d="M22.8,28.4l-0.3-0.1l0,5.1c-0.4-0.3-1-0.4-1.6-0.1c-0.9,0.3-1.5,1-1.3,1.5c0.2,0.6,1,0.8,1.9,0.5c0.8-0.3,1.4-0.8,1.3-1.4l0-5.5z"/>
			<path d="M22.8,29.8h4.5v-1.5h-4.5v1.5z"/>
		</g>
		<g style="&st2;">
			<g>
				<path d="M35.6,31.9h-23"/>
				<path d="M12.6,29.9h23"/>
				<path d="M35.6,33.7h-23v-5.8h23v5.8z"/>
			</g>
			<path d="M12.6,33.7v1.9h23v-1.9"/>
		</g>
		<g style="&st2;">
			<g>
				<path d="M35.6,17.6h-23"/>
				<path d="M12.6,15.6h23"/>
				<path d="M35.6,19.4h-23v-5.8h23v5.8z"/>
			</g>
			<path d="M12.6,19.4v1.9h23v-1.9"/>
		</g>
	</g>
</svg>
