<?xml version="1.0" encoding="UTF-8" standalone="no"?>
<!DOCTYPE svg PUBLIC "-//W3C//DTD SVG 20010904//EN"
"http://www.w3.org/TR/2001/REC-SVG-20010904/DTD/svg10.dtd">
<!-- Created with Sodipodi ("http://www.sodipodi.com/") -->
<svg
   width="24pt"
   height="24pt"
   viewBox="0 0 24 24"
   xml:space="preserve"
   xmlns="http://www.w3.org/2000/svg"
   xmlns:xml="http://www.w3.org/XML/1998/namespace"
   xmlns:sodipodi="http://sodipodi.sourceforge.net/DTD/sodipodi-0.dtd"
   xmlns:xlink="http://www.w3.org/1999/xlink"
   id="svg548"
   sodipodi:version="0.32"
   sodipodi:docname="/home/adam/Projekt/AROS/images/Gorilla/Elements/Arrow.svg"
   sodipodi:docbase="/home/adam/Projekt/AROS/images/Gorilla/Elements">
  <defs
     id="defs572">
    <radialGradient
       id="aigrd1"
       cx="12.3335"
       cy="9.5859"
       r="10.8032"
       fx="12.3335"
       fy="9.5859"
       gradientUnits="userSpaceOnUse">
      <stop
         offset="0"
         style="stop-color:#F7EB9F"
         id="stop552" />
      <stop
         offset="6.478396e-002"
         style="stop-color:#F7E99A"
         id="stop553" />
      <stop
         offset="0.1448"
         style="stop-color:#F7E48A"
         id="stop554" />
      <stop
         offset="0.233"
         style="stop-color:#F8DA6F"
         id="stop555" />
      <stop
         offset="0.3269"
         style="stop-color:#FACD4C"
         id="stop556" />
      <stop
         offset="0.4243"
         style="stop-color:#FEBC24"
         id="stop557" />
      <stop
         offset="0.4719"
         style="stop-color:#FFB310"
         id="stop558" />
      <stop
         offset="1"
         style="stop-color:#996E04"
         id="stop559" />
    </radialGradient>
    <linearGradient
       id="aigrd2"
       gradientUnits="userSpaceOnUse"
       x1="-6.272"
       y1="13.0537"
       x2="-6.272"
       y2="10.5907"
       gradientTransform="matrix(-1 0 0 1 0.9932 0)">
      <stop
         offset="0"
         style="stop-color:#48AA53"
         id="stop564" />
      <stop
         offset="0.9199"
         style="stop-color:#388540"
         id="stop565" />
      <stop
         offset="1"
         style="stop-color:#37823F"
         id="stop566" />
    </linearGradient>
  </defs>
  <sodipodi:namedview
     id="base" />
  <path
     style="font-size:12;stroke:#000000;stroke-width:0.8701;"
     d="M6.3,3.8C5.9,4,5.7,4.3,5.7,4.7c0,0,0,1.5,0,2.5c-1.1,0-3.6,0-3.6,0c-0.6,0-1,0.4-1,1l0,4.4c0,0.6,0.5,1,1,1c0,0,2.5,0,3.6,0c0,0.9,0,2.4,0,2.4c0,0.4,0.2,0.7,0.6,0.9c0.4,0.1,0.8,0.1,1-0.2l5.5-5.5c0.6-0.6,0.4-1.2,0-1.6l0,0L7.4,4    C7.1,3.7,6.7,3.7,6.3,3.8z"
     id="path561" />
  <path
     style="font-size:12;fill:#51af55;"
     d="M6.6,4.7c0-0.1,0.1-0.1,0.2-0.1l5.5,5.6c0.2,0.2,0.1,0.2,0,0.3l-5.5,5.5c0,0-0.1,0-0.1,0v-3.3H2.1C2,12.7,2,12.7,2,12.6l0-4.4C2,8.1,2,8,2.1,8h4.5l0-3.3z"
     id="path562" />
  <path
     style="font-size:12;fill:url(#aigrd2);"
     d="M11.6,10.4H2.9l0,1.5h4.3v2.6l4.4-4.1z"
     id="path567" />
  <path
     style="font-size:12;opacity:0.47;fill:#ffffff;"
     d="M2.3,8.4l0,4.4c-0.2,0-0.3,0-0.3-0.1l0-4.2C2,8,1.9,8,2.3,8h4.4l0-3.3C6.7,4.5,6.9,4.8,7,4.9l0,3.4H2.3z"
     id="path568" />
  <g
     id="Layer_x0020_2"
     style="fill-rule:nonzero;clip-rule:nonzero;stroke:#000000;stroke-miterlimit:4;">
    <path
       style="fill:none;stroke:none;"
       d="M24,24H0V0h24v24z"
       id="path570" />
  </g>
</svg>
