<?xml version="1.0" encoding="iso-8859-1"?>
<!-- Generator: Adobe Illustrator 9.0, SVG Export Plug-In  -->
<!DOCTYPE svg PUBLIC "-//W3C//DTD SVG 20000303 Stylable//EN"   "http://www.w3.org/TR/2000/03/WD-SVG-20000303/DTD/svg-20000303-stylable.dtd" [
	<!ENTITY st0 "fill:url(#aigrd1);stroke:none;">
	<!ENTITY st1 "opacity:0.79;fill:url(#aigrd3);stroke:none;">
	<!ENTITY st2 "stroke-width:0.8919;">
	<!ENTITY st3 "fill:url(#aigrd2);stroke:none;">
	<!ENTITY st4 "fill:none;stroke:none;">
	<!ENTITY st5 "fill-rule:nonzero;clip-rule:nonzero;stroke:#000000;stroke-miterlimit:4;">
]>
<svg  width="24pt" height="24pt" viewBox="0 0 24 24" xml:space="preserve">
	<g id="Layer_x0020_3" style="&st5;">
		<path style="&st2;" d="M1.4,12.1c0,5.9,4.8,10.8,10.8,10.8S22.9,18,22.9,12.1S18.1,1.3,12.2,1.3S1.4,6.1,1.4,12.1z M9.2,12.1c0-1.6,1.3-3,3-3c1.6,0,3,1.3,3,3s-1.3,3-3,3c-1.6,0-3-1.3-3-3z"/>
		<linearGradient id="aigrd1" gradientUnits="userSpaceOnUse" x1="9.7915" y1="5.7217" x2="14.1862" y2="17.3771">
			<stop  offset="0" style="stop-color:#FFFFFF"/>
			<stop  offset="0.2661" style="stop-color:#FBFBFB"/>
			<stop  offset="0.5261" style="stop-color:#EFEFEF"/>
			<stop  offset="0.7829" style="stop-color:#DCDCDC"/>
			<stop  offset="1" style="stop-color:#C5C5C5"/>
		</linearGradient>
		<path style="&st0;" d="M2.3,12.1c0,5.4,4.4,9.9,9.9,9.9s9.9-4.4,9.9-9.9c0-5.4-4.4-9.9-9.9-9.9s-9.9,4.4-9.9,9.9z M8.3,12.1c0-2.1,1.7-3.9,3.9-3.9S16,9.9,16,12.1s-1.7,3.9-3.9,3.9s-3.9-1.7-3.9-3.9z"/>
		<linearGradient id="aigrd2" gradientUnits="userSpaceOnUse" x1="14.2744" y1="23.126" x2="10.1678" y2="1.3849">
			<stop  offset="0" style="stop-color:#FFFFFF"/>
			<stop  offset="0.4944" style="stop-color:#858585"/>
			<stop  offset="0.5225" style="stop-color:#FFFFFF"/>
			<stop  offset="1" style="stop-color:#C2C2C2"/>
		</linearGradient>
		<path style="&st3;" d="M12.2,2.7c-5.2,0-9.4,4.2-9.4,9.4c0,5.2,4.2,9.4,9.4,9.4c5.2,0,9.4-4.2,9.4-9.4c0-5.2-4.2-9.4-9.4-9.4z M12.2,16.4c-2.4,0-4.3-1.9-4.3-4.3s1.9-4.3,4.3-4.3c2.4,0,4.3,1.9,4.3,4.3s-1.9,4.3-4.3,4.3z"/>
		<linearGradient id="aigrd3" gradientUnits="userSpaceOnUse" x1="10.9272" y1="7.8765" x2="13.4655" y2="16.3374">
			<stop  offset="0" style="stop-color:#FFFFFF"/>
			<stop  offset="1" style="stop-color:#C2C2C2"/>
		</linearGradient>
		<path style="&st1;" d="M12.2,6.4c-3.1,0-5.7,2.5-5.7,5.7s2.5,5.7,5.7,5.7s5.7-2.5,5.7-5.7s-2.5-5.7-5.7-5.7z M12.2,15.9c-2.1,0-3.9-1.7-3.9-3.9s1.7-3.9,3.9-3.9S16,9.9,16,12.1s-1.7,3.9-3.9,3.9z"/>
	</g>
	<g id="Layer_x0020_2" style="&st5;">
		<path style="&st4;" d="M24,24H0V0h24v24z"/>
	</g>
</svg>
