<?xml version="1.0" encoding="UTF-8" standalone="no"?>
<!-- Created with Inkscape (http://www.inkscape.org/) -->
<svg
   xmlns:a="http://ns.adobe.com/AdobeSVGViewerExtensions/3.0/"
   xmlns:svg="http://www.w3.org/2000/svg"
   xmlns="http://www.w3.org/2000/svg"
   version="1.0"
   width="48pt"
   height="48pt"
   viewBox="0 0 256 256"
   id="svg2"
   xml:space="preserve"><defs
   id="defs122" />
	
		<g
   id="Layer_1">
			<rect
   width="256"
   height="256"
   x="0"
   y="0"
   style="fill:none"
   id="_x3C_Slice_x3E_" /> 
			<g
   id="g8">
				
					<linearGradient
   x1="36.11084"
   y1="180.14648"
   x2="219.8502"
   y2="180.14648"
   id="XMLID_12_"
   gradientUnits="userSpaceOnUse">
					<stop
   style="stop-color:#333333;stop-opacity:1"
   offset="0"
   id="stop11" />
					<stop
   style="stop-color:#000000;stop-opacity:1"
   offset="1"
   id="stop13" />
					<a:midPointStop
   style="stop-color:#333333"
   offset="0" />
					<a:midPointStop
   style="stop-color:#333333"
   offset="0.5" />
					<a:midPointStop
   style="stop-color:#000000"
   offset="1" />
				</linearGradient>
				<path
   d="M 119.91211,117.84082 L 119.91211,117.84082 L 41.635742,136.31348 C 36.265625,137.58008 32.6875,139.61328 31,142.35547 C 30.24707,143.57617 29.848633,144.95508 29.848633,146.3418 L 29.922852,147.08594 L 29.954102,147.29297 C 29.954102,147.29492 30.072266,148.17578 30.072266,148.17578 C 30.072266,148.17578 30.085938,148.17383 30.086914,148.17383 C 30.09668,148.25 30.12207,148.42578 30.12207,148.42578 L 30.128906,148.42383 C 30.134766,148.46875 30.155273,148.61328 30.155273,148.61328 L 30.163086,148.61328 C 30.169922,148.66406 30.19043,148.81445 30.19043,148.81445 L 30.201172,148.8125 C 30.210938,148.88672 30.235352,149.05859 30.235352,149.05859 L 30.244141,149.05859 C 30.250977,149.10547 30.270508,149.25 30.270508,149.25 L 30.282227,149.25 C 30.291992,149.32031 30.316406,149.49023 30.316406,149.49023 L 30.324219,149.49023 C 30.331055,149.53906 30.350586,149.69141 30.350586,149.69141 L 30.359375,149.68945 C 30.367188,149.74219 30.387696,149.89258 30.387696,149.89258 L 30.400391,149.89258 C 30.411133,149.9668 30.435547,150.14063 30.435547,150.14063 L 30.442383,150.13867 C 30.449219,150.18945 30.469727,150.33789 30.469727,150.33789 L 30.480469,150.33594 C 30.490235,150.4043 30.514649,150.57422 30.514649,150.57422 L 30.522461,150.57422 C 30.529297,150.625 30.549805,150.77539 30.549805,150.77539 C 30.549805,150.77539 30.559571,150.77344 30.560547,150.77344 C 30.56836,150.83594 30.591797,150.99805 30.591797,150.99805 L 30.600586,150.99609 C 30.60254,151.00781 30.608399,151.05078 30.608399,151.05078 C 30.611329,151.07227 30.621094,151.08203 30.625001,151.10156 C 30.641602,151.22266 30.669922,151.42969 30.669922,151.42969 L 30.680665,151.42773 C 30.689454,151.49219 30.712891,151.6582 30.712891,151.6582 L 30.720704,151.6582 C 30.728516,151.71289 30.749024,151.86914 30.749024,151.86914 L 30.75879,151.86719 C 30.766602,151.92578 30.789063,152.08008 30.789063,152.08008 L 30.797852,152.07813 C 30.804688,152.13281 30.826172,152.28711 30.826172,152.28711 L 30.836915,152.28516 C 30.84668,152.35156 30.869141,152.51563 30.869141,152.51563 L 30.878907,152.51367 C 30.886719,152.57422 30.90918,152.73633 30.90918,152.73633 L 30.918946,152.73633 C 30.926758,152.79297 30.948243,152.94922 30.948243,152.94922 C 30.948243,152.94922 30.955079,152.94727 30.956055,152.94727 C 30.962891,152.99805 30.983399,153.14649 30.983399,153.14649 L 30.993165,153.14649 C 31.001954,153.20703 31.023438,153.36719 31.023438,153.36719 L 31.033204,153.36719 C 31.041993,153.42969 31.064454,153.5918 31.064454,153.5918 L 31.078126,153.58984 C 31.088868,153.66602 31.113282,153.84375 31.113282,153.84375 L 31.121094,153.8418 C 31.12793,153.89063 31.147462,154.03906 31.147462,154.03906 L 31.157227,154.03711 C 31.166016,154.09961 31.188477,154.25977 31.188477,154.25977 L 31.19629,154.25977 C 31.203126,154.30859 31.222657,154.45508 31.222657,154.45508 L 31.233399,154.45313 C 31.242188,154.51758 31.265626,154.67969 31.265626,154.67969 L 31.275391,154.67969 C 31.28418,154.74414 31.307618,154.91211 31.307618,154.91211 L 31.316407,154.91016 C 31.324219,154.96484 31.345704,155.12109 31.345704,155.12109 L 31.356446,155.11914 C 31.365235,155.18164 31.387696,155.3457 31.387696,155.3457 L 31.395509,155.3457 C 31.403321,155.40039 31.423829,155.55469 31.423829,155.55469 L 31.436524,155.55274 C 31.44629,155.625 31.47168,155.79883 31.47168,155.79883 L 31.479493,155.79688 C 31.488282,155.85352 31.510743,156.01172 31.510743,156.01172 L 31.517579,156.01172 C 31.523438,156.05469 31.542969,156.19727 31.542969,156.19727 L 31.551759,156.19531 C 31.560548,156.25977 31.583009,156.42383 31.583009,156.42383 L 31.59668,156.42188 C 31.608399,156.5 31.63379,156.68164 31.63379,156.68164 L 31.639649,156.67969 C 31.644532,156.71875 31.664063,156.85938 31.664063,156.85938 L 31.673829,156.85742 C 31.682618,156.91797 31.705079,157.08008 31.705079,157.08008 L 31.712891,157.07813 C 31.719727,157.13281 31.741212,157.28711 31.741212,157.28711 L 31.749024,157.28711 C 31.75586,157.33789 31.777345,157.48633 31.777345,157.48633 L 31.791016,157.48438 C 31.802735,157.56641 31.828126,157.7461 31.828126,157.7461 L 31.835938,157.7461 C 31.842774,157.79688 31.864259,157.95117 31.864259,157.95117 L 31.873048,157.95117 C 31.881837,158.01172 31.904298,158.17383 31.904298,158.17383 L 31.914063,158.17383 C 31.921876,158.23047 31.944337,158.38672 31.944337,158.38672 L 31.94922,158.38477 C 31.955079,158.42774 31.97461,158.56641 31.97461,158.56641 C 31.97461,158.56641 31.984376,158.56445 31.985352,158.56445 C 31.994141,158.62891 32.016602,158.79297 32.016602,158.79297 L 32.028321,158.79102 C 32.039063,158.86524 32.063477,159.03906 32.063477,159.03906 L 32.075196,159.03711 C 32.084962,159.10938 32.110353,159.28125 32.110353,159.28125 L 32.117188,159.28125 C 32.125001,159.33399 32.146485,159.48828 32.146485,159.48828 L 32.15625,159.48828 C 32.164062,159.54492 32.186523,159.70313 32.186523,159.70313 L 32.200195,159.70117 C 32.213867,159.79688 32.256836,160.10352 32.256836,160.10352 L 32.269531,160.10156 C 32.279297,160.17578 32.303711,160.34961 32.303711,160.34961 L 32.3125,160.34766 C 32.321289,160.4043 32.34375,160.56446 32.34375,160.56446 L 32.353516,160.5625 C 32.362305,160.625 32.384766,160.79492 32.384766,160.79492 L 32.395508,160.79297 C 32.404297,160.85352 32.427734,161.01758 32.427734,161.01758 L 32.433594,161.01563 C 32.439453,161.0586 32.458984,161.20117 32.458984,161.20117 L 32.466797,161.19922 C 32.473633,161.25196 32.494141,161.40235 32.494141,161.40235 C 32.494141,161.40235 32.504883,161.40039 32.505859,161.40039 C 32.514649,161.46875 32.538086,161.63672 32.538086,161.63672 L 32.548828,161.63477 C 32.557617,161.69922 32.581055,161.86524 32.581055,161.86524 L 32.589844,161.86524 C 32.597657,161.91992 32.620117,162.07617 32.620117,162.07617 L 32.63086,162.07227 C 32.640625,162.14453 32.665039,162.31446 32.665039,162.31446 C 32.665039,162.31446 32.670899,162.31446 32.671875,162.31446 C 32.677735,162.35742 32.697266,162.50196 32.697266,162.50196 L 32.705078,162.50196 C 32.712891,162.55469 32.733399,162.70899 32.733399,162.70899 L 32.747071,162.70703 C 32.757813,162.78711 32.783203,162.9668 32.783203,162.9668 L 32.790039,162.9668 C 32.796875,163.01172 32.817383,163.15821 32.817383,163.15821 L 32.827149,163.15625 C 32.836914,163.21875 32.859375,163.38477 32.859375,163.38477 L 32.867188,163.38281 C 32.875,163.4375 32.896484,163.59375 32.896484,163.59375 L 32.907227,163.5918 C 32.916016,163.6543 32.938477,163.81836 32.938477,163.81836 L 32.948242,163.81641 C 32.956055,163.875 32.978516,164.03516 32.978516,164.03516 L 32.988281,164.0332 C 32.996094,164.0918 33.018555,164.25195 33.018555,164.25195 L 33.027344,164.25 C 33.036133,164.30859 33.058594,164.46875 33.058594,164.46875 L 33.067383,164.46875 C 33.075195,164.52344 33.097656,164.68164 33.097656,164.68164 L 33.104492,164.67969 C 33.112305,164.73438 33.133789,164.89062 33.133789,164.89062 L 33.143555,164.88867 C 33.151367,164.94531 33.173828,165.10352 33.173828,165.10352 L 33.181641,165.10156 C 33.19043,165.16016 33.211914,165.31836 33.211914,165.31836 L 33.224609,165.31641 C 33.235351,165.39258 33.259766,165.56836 33.259766,165.56836 L 33.267578,165.56641 C 33.275391,165.62109 33.296875,165.77344 33.296875,165.77344 L 33.307617,165.77344 C 33.316406,165.83594 33.339844,166 33.339844,166 L 33.344727,166 C 33.351562,166.04492 33.37207,166.18945 33.37207,166.18945 L 33.381836,166.1875 C 33.390625,166.25195 33.414063,166.41797 33.414063,166.41797 L 33.423828,166.41797 C 33.432617,166.47656 33.455078,166.63672 33.455078,166.63672 L 33.461914,166.63672 C 33.46875,166.68555 33.490234,166.83594 33.490234,166.83594 L 33.499023,166.83398 C 33.507813,166.89453 33.530273,167.05469 33.530273,167.05469 C 33.530273,167.05469 33.539063,167.05273 33.540039,167.05273 C 33.547852,167.11133 33.570312,167.27344 33.570312,167.27344 L 33.579102,167.27148 C 33.587891,167.33203 33.610352,167.49414 33.610352,167.49414 L 33.62207,167.49414 C 33.632813,167.56445 33.657227,167.73828 33.657227,167.73828 L 33.665039,167.73438 C 33.671875,167.78711 33.693359,167.94336 33.693359,167.94336 L 33.702149,167.94141 C 33.709961,167.99805 33.732422,168.1543 33.732422,168.1543 L 33.741211,168.1543 C 33.75,168.21094 33.771484,168.36914 33.771484,168.36914 L 33.779297,168.36719 C 33.787109,168.42188 33.808594,168.57617 33.808594,168.57617 L 33.819336,168.57422 C 33.828125,168.63867 33.851563,168.80664 33.851563,168.80664 L 33.860352,168.80469 C 33.870117,168.86914 33.883789,168.96484 33.883789,168.96484 L 33.895508,168.96289 C 33.910156,169.07031 33.939453,169.27344 33.939453,169.27344 L 33.944336,169.27148 C 33.950196,169.3125 33.96875,169.45117 33.96875,169.45117 L 33.980469,169.44922 C 33.989258,169.51758 34.013672,169.6875 34.013672,169.6875 L 34.022461,169.68555 C 34.03125,169.74414 34.053711,169.9043 34.053711,169.9043 L 34.0625,169.90234 C 34.071289,169.96289 34.09375,170.12695 34.09375,170.12695 L 34.104492,170.125 C 34.114258,170.18945 34.137695,170.35742 34.137695,170.35742 L 34.146484,170.35547 C 34.154297,170.41211 34.177734,170.57422 34.177734,170.57422 L 34.180664,170.57227 C 34.185547,170.60742 34.204102,170.73828 34.204102,170.73828 L 34.213867,170.73633 C 34.222656,170.79688 34.245117,170.95703 34.245117,170.95703 L 34.25293,170.95703 C 34.260742,171.01172 34.282227,171.16797 34.282227,171.16797 L 34.294922,171.16602 C 34.305664,171.24414 34.331055,171.42188 34.331055,171.42188 L 34.339844,171.42188 C 34.348633,171.48047 34.371094,171.64063 34.371094,171.64063 L 34.379883,171.63867 C 34.386719,171.68945 34.408203,171.8418 34.408203,171.8418 L 34.417969,171.83984 C 34.427734,171.90625 34.451172,172.07813 34.451172,172.07813 L 34.458984,172.07617 C 34.46582,172.125 34.486328,172.27539 34.486328,172.27539 L 34.496094,172.27344 C 34.506836,172.3418 34.530274,172.51563 34.530274,172.51563 L 34.538086,172.51367 C 34.544922,172.5625 34.566406,172.70898 34.566406,172.70898 L 34.578125,172.70703 C 34.588867,172.78125 34.614258,172.95898 34.614258,172.95898 L 34.620117,172.95703 C 34.62793,173.00781 34.649414,173.16211 34.649414,173.16211 L 34.65918,173.16016 C 34.667969,173.2168 34.69043,173.37695 34.69043,173.37695 L 34.699219,173.375 C 34.706055,173.43359 34.728516,173.5957 34.728516,173.5957 L 34.738281,173.59375 C 34.746094,173.65039 34.768555,173.80859 34.768555,173.80859 L 34.773437,173.80859 C 34.780273,173.85352 34.800781,173.99805 34.800781,173.99805 L 34.8125,173.99414 C 34.823242,174.06836 34.847656,174.24219 34.847656,174.24219 L 34.855469,174.24219 C 34.862305,174.29297 34.883789,174.44336 34.883789,174.44336 L 34.894531,174.44336 C 34.90332,174.50977 34.927734,174.68555 34.927734,174.68555 L 34.9375,174.68359 C 34.945313,174.73828 34.967773,174.89453 34.967773,174.89453 L 34.972656,174.89453 C 34.978516,174.93945 34.999023,175.08203 34.999023,175.08203 C 34.999023,175.08203 35.010742,175.08008 35.010742,175.07812 C 35.021484,175.15234 35.045899,175.32617 35.045899,175.32617 L 35.054688,175.32422 C 35.0625,175.38281 35.085938,175.54297 35.085938,175.54297 L 35.091797,175.54102 C 35.098633,175.5918 35.119141,175.73828 35.119141,175.73828 L 35.132813,175.73633 C 35.143555,175.81445 35.169922,175.99414 35.169922,175.99414 L 35.176758,175.99219 C 35.183594,176.03906 35.204102,176.18945 35.204102,176.18945 L 35.213867,176.18945 C 35.222657,176.25195 35.246094,176.42188 35.246094,176.42188 L 35.25586,176.41992 C 35.265625,176.48047 35.289063,176.64453 35.289063,176.64453 L 35.295899,176.64453 C 35.302735,176.69531 35.324219,176.85352 35.324219,176.85352 L 35.334961,176.85156 C 35.34375,176.91211 35.368164,177.08008 35.368164,177.08008 C 35.368164,177.08008 35.375977,177.07813 35.376953,177.07813 C 35.384766,177.13477 35.408203,177.29688 35.408203,177.29688 L 35.415039,177.29492 C 35.421875,177.34375 35.44336,177.49414 35.44336,177.49414 L 35.451172,177.49414 C 35.458008,177.54688 35.479492,177.70313 35.479492,177.70313 L 35.490235,177.70117 C 35.499024,177.76367 35.522461,177.92773 35.522461,177.92773 L 35.529297,177.92578 C 35.536133,177.97852 35.557617,178.12891 35.557617,178.12891 L 35.56836,178.12695 C 35.578125,178.19531 35.601563,178.36523 35.601563,178.36523 L 35.612305,178.36523 C 35.62207,178.42969 35.645508,178.59766 35.645508,178.59766 L 35.650391,178.59766 C 35.65625,178.63672 35.674805,178.77539 35.674805,178.77539 L 35.686524,178.77344 C 35.696289,178.84375 35.720703,179.01563 35.720703,179.01563 L 35.731446,179.01367 C 35.740235,179.07813 35.764649,179.24805 35.764649,179.24805 L 35.773438,179.24609 C 35.78125,179.30273 35.804688,179.46484 35.804688,179.46484 L 35.811524,179.46289 C 35.81836,179.51172 35.839844,179.66211 35.839844,179.66211 L 35.847656,179.66016 C 35.856446,179.71875 35.878906,179.87891 35.878906,179.87891 L 35.889649,179.87695 C 35.899414,179.94336 35.923828,180.11524 35.923828,180.11524 L 35.930664,180.11524 C 35.9375,180.16406 35.958985,180.31641 35.958985,180.31641 C 35.958985,180.31641 35.96875,180.31641 35.969727,180.31641 C 35.978516,180.38086 36.003906,180.55078 36.003906,180.55078 L 36.013672,180.54883 C 36.023438,180.61524 36.047852,180.78711 36.047852,180.78711 L 36.050781,180.78711 C 36.055664,180.82227 36.075196,180.95508 36.075196,180.95508 C 36.075196,180.95508 36.087891,180.95313 36.088867,180.95313 C 36.100586,181.03516 36.126953,181.2207 36.126953,181.2207 L 36.133789,181.21875 C 36.140625,181.26563 36.16211,181.41602 36.16211,181.41602 L 36.170899,181.41406 C 36.178711,181.47266 36.202149,181.63477 36.202149,181.63477 L 36.211914,181.63281 C 36.22168,181.69922 36.246094,181.87109 36.246094,181.87109 L 36.251953,181.86914 C 36.259766,181.91797 36.28125,182.06641 36.28125,182.06641 C 36.28125,182.06641 36.288086,182.06445 36.289063,182.06445 C 36.296875,182.12305 36.320313,182.2832 36.320313,182.2832 C 36.320313,182.2832 36.328125,182.28125 36.329102,182.28125 C 36.336914,182.33984 36.360352,182.5 36.360352,182.5 L 36.369141,182.5 C 36.376953,182.55664 36.399414,182.7168 36.399414,182.7168 L 36.408203,182.71484 C 36.416993,182.77149 36.439453,182.93359 36.439453,182.93359 C 36.439453,182.93359 36.448243,182.93164 36.449219,182.93164 C 36.457032,182.99219 36.480469,183.1582 36.480469,183.1582 L 36.490235,183.1582 C 36.499024,183.21875 36.523438,183.38672 36.523438,183.38672 L 36.53125,183.38477 C 36.541992,183.45899 36.557617,183.56445 36.557617,183.56445 L 36.561524,183.56445 C 36.569336,183.62109 36.591797,183.7793 36.591797,183.7793 L 36.607422,183.77734 C 36.620117,183.86719 36.649414,184.06055 36.649414,184.06055 L 36.652344,184.06055 C 36.658203,184.09766 36.677735,184.23438 36.677735,184.23438 L 36.6875,184.23438 C 36.697266,184.30078 36.722656,184.47266 36.722656,184.47266 L 36.728516,184.47266 C 36.735352,184.51953 36.756836,184.66797 36.756836,184.66797 L 36.764648,184.66797 C 36.773438,184.72656 36.796875,184.88867 36.796875,184.88867 L 36.807617,184.88867 C 36.816406,184.95313 36.84082,185.12109 36.84082,185.12109 L 36.847656,185.11914 C 36.855469,185.17188 36.87793,185.32617 36.87793,185.32617 C 36.87793,185.32617 36.888672,185.32422 36.889648,185.32422 C 36.899414,185.39649 36.925781,185.57422 36.925781,185.57422 L 36.931641,185.57422 C 36.938477,185.61719 36.959961,185.76758 36.959961,185.76758 L 36.966797,185.76758 C 36.973633,185.81836 36.996094,185.97461 36.996094,185.97461 L 37.003906,185.97266 C 37.011719,186.0293 37.035156,186.18555 37.035156,186.18555 L 37.040039,186.18555 C 37.046875,186.22852 37.066406,186.3711 37.066406,186.3711 L 37.078125,186.3711 C 37.088867,186.44727 37.115234,186.62695 37.115234,186.62695 L 37.125,186.62695 C 37.134766,186.6875 37.158203,186.85352 37.158203,186.85352 L 37.166992,186.85352 C 37.174805,186.91406 37.199219,187.08203 37.199219,187.08203 L 37.209961,187.08203 C 37.21875,187.14258 37.243164,187.31055 37.243164,187.31055 L 37.249024,187.3086 C 37.256836,187.35938 37.27832,187.51172 37.27832,187.51172 C 37.27832,187.51172 37.288086,187.51172 37.289063,187.51172 C 37.297852,187.57422 37.323242,187.74414 37.323242,187.74414 L 37.328125,187.74414 C 37.335938,187.79102 37.357422,187.93945 37.357422,187.93945 L 37.365235,187.93945 C 37.373047,187.9961 37.397461,188.16016 37.397461,188.16016 L 37.403321,188.1582 C 37.410156,188.20508 37.431641,188.35547 37.431641,188.35547 L 37.44043,188.35352 C 37.449219,188.41406 37.472657,188.58399 37.472657,188.58399 L 37.484375,188.58203 C 37.495118,188.65235 37.521485,188.82813 37.521485,188.82813 L 37.529297,188.82617 C 37.538086,188.88477 37.561524,189.04883 37.561524,189.04883 L 37.564454,189.04883 C 37.56836,189.08399 37.586914,189.2168 37.586914,189.2168 L 37.59961,189.21485 C 37.610352,189.28711 37.635742,189.46485 37.635742,189.46485 L 37.647461,189.46289 C 37.658203,189.53711 37.685547,189.7207 37.685547,189.7207 L 37.689453,189.71875 C 37.694336,189.75586 37.713868,189.89063 37.713868,189.89063 L 37.722657,189.88867 C 37.731446,189.94922 37.754883,190.11719 37.754883,190.11719 L 37.765625,190.11524 C 37.774415,190.17774 37.798829,190.3457 37.798829,190.3457 L 37.803711,190.3457 C 37.809571,190.38867 37.830079,190.53516 37.830079,190.53516 L 37.842774,190.5332 C 37.852539,190.60352 37.878907,190.7832 37.878907,190.7832 L 37.886719,190.78125 C 37.894532,190.83594 37.917969,190.9961 37.917969,190.9961 L 37.924805,190.9961 C 37.930664,191.0293 37.941407,191.10547 37.941407,191.10547 L 37.946289,191.10547 C 37.959961,191.19727 37.987305,191.39063 37.987305,191.39063 C 37.987305,191.39063 38.018555,191.38672 38.019532,191.38672 C 38.455079,193.4961 39.767579,195.34375 41.852539,196.54883 L 116.29785,239.47461 C 124.92285,244.44922 138.48242,244.36719 146.52539,239.29297 L 214.52246,196.38477 C 216.22656,195.3086 217.38379,193.73047 217.88281,191.94336 L 217.88672,191.94336 L 218.22363,190.2207 L 218.2207,190.2207 C 218.23145,190.16602 218.2627,190.00195 218.2627,190.00195 L 218.26074,190.00195 C 218.27149,189.94727 218.30274,189.7832 218.30274,189.7832 L 218.29981,189.7832 C 218.30957,189.73242 218.3418,189.57031 218.3418,189.57031 L 218.33984,189.57031 C 218.34863,189.51953 218.37988,189.36328 218.37988,189.36328 L 218.37793,189.36133 C 218.38867,189.30274 218.42188,189.13477 218.42188,189.13477 L 218.41797,189.13477 C 218.42188,189.12305 218.43652,189.04297 218.43652,189.04297 L 218.43457,189.04297 C 218.46191,188.89844 218.49902,188.70703 218.49902,188.70703 L 218.49414,188.70703 C 218.50195,188.66797 218.5166,188.58985 218.5166,188.58985 L 218.51465,188.58985 C 218.56152,188.35156 218.61719,188.06641 218.61719,188.06641 L 218.61328,188.06641 C 218.61426,188.0586 218.66797,187.78125 218.66797,187.78125 L 218.66309,187.78125 C 218.66504,187.78125 218.66699,187.78125 218.66699,187.78125 L 218.69922,187.61719 L 218.69629,187.61719 C 218.70996,187.54688 218.73828,187.40235 218.73828,187.40235 L 218.73438,187.40235 C 218.75879,187.27344 218.80566,187.02539 218.80566,187.02539 L 218.80371,187.02539 C 218.82324,186.92969 218.85449,186.76758 218.85449,186.76758 L 218.85059,186.76758 C 218.86621,186.68555 219.0127,185.94531 219.0127,185.94531 L 219.00195,185.94336 C 219.00293,185.9336 219.01563,185.86719 219.01563,185.86719 L 219.0127,185.86524 C 219.05078,185.67383 219.09277,185.46094 219.09277,185.46094 L 219.08984,185.46094 C 219.09766,185.41797 219.21387,184.80078 219.21387,184.80078 L 219.21094,184.79883 C 219.21289,184.78516 219.3252,184.22852 219.3252,184.22852 L 219.31445,184.22656 C 219.36621,183.95703 219.41309,183.71485 219.41309,183.71485 L 219.40918,183.71485 C 219.42481,183.63867 219.44922,183.51172 219.44922,183.51172 L 219.44434,183.51172 C 219.5293,183.08008 219.64551,182.49414 219.64551,182.49414 L 219.63281,182.49219 C 219.64063,182.45508 219.7627,181.83985 219.7627,181.83985 L 219.75879,181.83985 C 219.79785,181.64258 219.84375,181.41016 219.84375,181.41016 L 219.83106,181.4082 C 219.85547,181.27735 219.93652,180.84961 219.93652,180.84961 C 219.94629,180.79102 220.04297,180.31055 220.04297,180.31055 L 220.03125,180.3086 C 220.05566,180.1875 220.19922,179.45899 220.19922,179.45899 L 220.18457,179.45508 C 220.18848,179.43945 220.18848,179.43945 220.19238,179.42188 L 220.19434,179.42188 L 220.24414,179.16797 L 220.24121,179.16797 C 220.25488,179.0957 220.28418,178.95117 220.28418,178.95117 L 220.2793,178.95117 C 220.28906,178.89844 220.44043,178.14649 220.44043,178.14649 L 220.42774,178.14258 C 220.44629,178.04492 220.4834,177.85742 220.4834,177.85742 L 220.47949,177.85547 C 220.52051,177.63867 220.56055,177.4336 220.56055,177.4336 L 220.55566,177.4336 C 220.55664,177.42774 220.55664,177.42774 220.55859,177.41992 L 220.56055,177.41992 L 220.60059,177.22266 C 220.60059,177.22266 220.59766,177.22266 220.59668,177.22266 C 220.6123,177.14844 220.64062,177 220.64062,177 L 220.63867,177 C 220.71387,176.61133 220.79492,176.20117 220.79492,176.20117 L 220.7832,176.19922 C 220.7959,176.13477 220.82812,175.96484 220.82812,175.96484 L 220.82617,175.96289 C 220.85059,175.83984 220.87695,175.70508 220.87695,175.70508 L 220.87012,175.70313 C 220.93359,175.37695 220.99707,175.04688 220.99707,175.04688 L 220.99414,175.04492 L 221.18945,174.04492 L 221.18359,174.04492 C 221.2002,173.96289 221.22852,173.82227 221.22852,173.82227 L 221.22266,173.82227 C 221.25684,173.65234 221.30859,173.38867 221.30859,173.38867 L 221.30176,173.38672 C 221.34473,173.17578 221.38672,172.96484 221.38672,172.96484 L 221.38281,172.96289 C 221.40039,172.87109 221.42773,172.73047 221.42773,172.73047 L 221.41895,172.72852 C 221.44141,172.62109 221.54785,172.0918 221.54785,172.0918 L 221.53613,172.08789 C 221.59961,171.76562 221.66406,171.4375 221.66406,171.4375 L 221.66309,171.4375 C 221.67871,171.35742 221.70508,171.22266 221.70508,171.22266 L 221.69336,171.2207 C 221.71094,171.13086 221.75,170.93164 221.75,170.93164 L 221.74805,170.93164 C 221.76465,170.8457 221.90137,170.15039 221.90137,170.15039 L 221.89648,170.14844 C 221.93164,169.9668 221.98047,169.7207 221.98047,169.7207 L 221.97461,169.71875 C 221.98926,169.65039 222.02246,169.47852 222.02246,169.47852 L 222.0166,169.47852 C 222.04883,169.31836 222.10059,169.05859 222.10059,169.05859 L 222.09668,169.05859 C 222.10742,169.00195 222.13867,168.84961 222.13867,168.84961 L 222.13574,168.84961 C 222.14844,168.7832 222.17871,168.63086 222.17871,168.63086 L 222.16797,168.62891 C 222.19434,168.49023 222.33789,167.76367 222.33789,167.76367 L 222.33398,167.76367 C 222.34961,167.68359 222.37207,167.57031 222.37207,167.57031 L 222.36914,167.57031 C 222.38965,167.46875 222.63867,166.21875 222.63867,166.21875 C 222.63867,166.21875 222.61914,166.2168 222.61816,166.2168 C 222.62695,166.17187 222.65527,166.02734 222.65527,166.02734 L 222.65039,166.02734 C 222.68652,165.83984 222.73535,165.5957 222.73535,165.5957 L 222.72949,165.5957 C 222.74121,165.53711 222.77344,165.375 222.77344,165.375 L 222.76855,165.37305 C 222.80078,165.21289 222.85156,164.95508 222.85156,164.95508 L 222.84668,164.95312 C 222.88086,164.77734 222.93359,164.50977 222.93359,164.50977 L 222.92676,164.50977 C 222.95898,164.3457 223.00977,164.08789 223.00977,164.08789 L 223.00488,164.08594 C 223.03809,163.91406 223.09082,163.65234 223.09082,163.65234 L 223.08496,163.65234 C 223.09961,163.58203 223.13477,163.40625 223.13477,163.40625 L 223.12695,163.4043 C 223.1875,163.09375 223.24902,162.7832 223.24902,162.7832 L 223.24512,162.7832 C 223.25684,162.72266 223.29004,162.55859 223.29004,162.55859 L 223.28516,162.55859 C 223.29785,162.49609 223.33203,162.33008 223.33203,162.33008 L 223.32324,162.32812 C 223.36621,162.11328 223.40723,161.9082 223.40723,161.9082 L 223.40234,161.90625 L 223.48828,161.47461 L 223.48242,161.47266 C 223.49902,161.39258 223.52734,161.25391 223.52734,161.25391 L 223.52246,161.25195 C 223.55566,161.08789 223.60645,160.82617 223.60645,160.82617 L 223.59961,160.82422 C 223.64453,160.5957 223.6875,160.37891 223.6875,160.37891 L 223.68066,160.37695 C 223.72363,160.16406 223.76367,159.96289 223.76367,159.96289 L 223.76074,159.96289 C 223.7793,159.87305 223.80469,159.74219 223.80469,159.74219 L 223.79883,159.74219 C 223.83105,159.58008 223.88184,159.32031 223.88184,159.32031 L 223.87793,159.32031 C 223.8916,159.25195 223.92578,159.07812 223.92578,159.07812 L 223.91797,159.07617 C 223.95898,158.87891 224.00098,158.66992 224.00098,158.66992 L 223.99609,158.66602 C 224.00977,158.5957 224.08008,158.23242 224.08008,158.23242 L 224.07422,158.23242 C 224.11719,158.01562 224.16211,157.78711 224.16211,157.78711 L 224.1543,157.78516 C 224.19727,157.57227 224.24121,157.35937 224.24121,157.35937 L 224.23633,157.35937 C 224.25098,157.2832 224.2793,157.13867 224.2793,157.13867 L 224.27637,157.13867 C 224.29395,157.05078 224.31934,156.92187 224.31934,156.92187 L 224.31445,156.92187 C 224.35742,156.69922 224.39941,156.48242 224.39941,156.48242 L 224.39746,156.48242 C 224.40723,156.42969 224.43848,156.27539 224.43848,156.27539 L 224.43164,156.27539 C 224.47656,156.04687 224.51953,155.83203 224.51953,155.83203 L 224.5166,155.83008 C 224.52734,155.7793 224.55762,155.625 224.55762,155.625 L 224.55273,155.625 C 224.56348,155.56641 224.59668,155.40625 224.59668,155.40625 L 224.59277,155.4043 C 224.63477,155.18555 224.67578,154.97852 224.67578,154.97852 L 224.6709,154.97656 C 224.67676,154.94531 224.68164,154.92383 224.68652,154.89648 L 224.68848,154.89648 L 224.71875,154.74219 L 224.7168,154.74219 C 224.72559,154.69922 224.75586,154.54492 224.75586,154.54492 L 224.75098,154.54297 C 224.7627,154.48242 224.7959,154.31836 224.7959,154.31836 L 224.79297,154.31836 C 224.81152,154.2207 224.83594,154.10742 224.83594,154.10742 L 224.83008,154.10547 C 224.86719,153.91602 224.91406,153.67187 224.91406,153.67187 L 224.91113,153.67187 C 224.9209,153.61719 224.95312,153.46094 224.95312,153.46094 L 224.94727,153.45898 C 224.97949,153.29102 225.03125,153.02734 225.03125,153.02734 L 225.02441,153.02539 C 225.06055,152.84375 225.18848,152.20312 225.18848,152.20312 L 225.18066,152.20312 C 225.19629,152.12305 225.23145,151.94141 225.23145,151.94141 L 225.22656,151.93945 C 225.26563,151.73828 225.31055,151.50586 225.31055,151.50586 L 225.30664,151.50391 C 225.31738,151.44922 225.34961,151.28906 225.34961,151.28906 L 225.34766,151.28711 C 225.36328,151.20508 225.38965,151.08008 225.38965,151.08008 L 225.38281,151.07812 C 225.42871,150.8418 225.46875,150.63281 225.46875,150.63281 L 225.4668,150.63086 C 225.47754,150.58203 225.50781,150.42969 225.50781,150.42969 L 225.50488,150.42773 C 225.51563,150.37305 225.54785,150.21289 225.54785,150.21289 L 225.54395,150.21289 C 225.55566,150.1543 225.58887,149.98828 225.58887,149.98828 L 225.58398,149.98828 C 225.5957,149.92969 225.62793,149.76758 225.62793,149.76758 L 225.625,149.76758 C 225.6748,149.51758 225.73926,149.19336 225.73926,149.19336 L 225.72852,149.19141 C 225.75977,149.0293 225.8252,148.69141 225.8252,148.69141 L 225.82129,148.68945 C 225.83691,148.61719 225.86426,148.48242 225.86426,148.48242 L 225.85938,148.48047 C 225.89941,148.2793 225.94434,148.04883 225.94434,148.04883 L 225.93848,148.04883 C 225.95215,147.98047 226.02246,147.61523 226.02246,147.61523 C 226.02246,147.61523 225.97656,147.60547 225.97461,147.60547 C 226.04102,147.2168 226.15137,146.85547 226.15137,146.44531 C 226.15137,145.16992 225.80566,143.88672 225.15234,142.73633 C 223.49023,139.80859 219.70215,137.64648 213.89746,136.30859 L 133.74023,117.84277 C 129.68457,116.9082 123.86816,116.90723 119.91211,117.84082 z "
   style="fill:url(#XMLID_12_)"
   id="path15" />
				
					<linearGradient
   x1="36.125977"
   y1="180.15527"
   x2="219.87305"
   y2="180.15527"
   id="XMLID_13_"
   gradientUnits="userSpaceOnUse">
					<stop
   style="stop-color:#333333;stop-opacity:1"
   offset="0"
   id="stop18" />
					<stop
   style="stop-color:#616161;stop-opacity:1"
   offset="0.247191"
   id="stop20" />
					<stop
   style="stop-color:#949494;stop-opacity:1"
   offset="0.38764"
   id="stop22" />
					<stop
   style="stop-color:#dadada;stop-opacity:1"
   offset="0.51685399"
   id="stop24" />
					<stop
   style="stop-color:#555555;stop-opacity:1"
   offset="0.69662893"
   id="stop26" />
					<stop
   style="stop-color:#000000;stop-opacity:1"
   offset="1"
   id="stop28" />
					<a:midPointStop
   style="stop-color:#333333"
   offset="0" />
					<a:midPointStop
   style="stop-color:#333333"
   offset="0.5" />
					<a:midPointStop
   style="stop-color:#616161"
   offset="0.247191" />
					<a:midPointStop
   style="stop-color:#616161"
   offset="0.5" />
					<a:midPointStop
   style="stop-color:#949494"
   offset="0.38764" />
					<a:midPointStop
   style="stop-color:#949494"
   offset="0.5" />
					<a:midPointStop
   style="stop-color:#DADADA"
   offset="0.516854" />
					<a:midPointStop
   style="stop-color:#DADADA"
   offset="0.5" />
					<a:midPointStop
   style="stop-color:#555555"
   offset="0.6966289" />
					<a:midPointStop
   style="stop-color:#555555"
   offset="0.5" />
					<a:midPointStop
   style="stop-color:#000000"
   offset="1" />
				</linearGradient>
				<path
   d="M 211.9375,189.875 C 211.96094,189.80273 211.97266,189.73047 211.97754,189.6582 C 212.00098,189.58594 212.0127,189.51367 212.01758,189.43945 C 212.04102,189.36914 212.05273,189.29492 212.05762,189.22266 C 212.08105,189.15234 212.09082,189.07812 212.09668,189.00586 C 212.12012,188.93555 212.13086,188.86328 212.13574,188.78906 C 212.15918,188.71875 212.1709,188.64648 212.17578,188.57227 C 212.19922,188.50195 212.20996,188.42969 212.21484,188.35742 C 212.23828,188.28711 212.24902,188.21289 212.25488,188.14062 C 212.2793,188.06836 212.28906,187.99609 212.2959,187.92187 C 212.31934,187.85156 212.3291,187.7793 212.33398,187.70508 C 212.35742,187.63477 212.36816,187.5625 212.37305,187.49219 C 212.39746,187.41992 212.4082,187.3457 212.41406,187.27344 C 212.4375,187.20117 212.44824,187.12891 212.4541,187.05469 C 212.47754,186.98437 212.4873,186.91211 212.49219,186.83789 C 212.5166,186.76758 212.52637,186.69727 212.53223,186.62305 C 212.55566,186.55078 212.56738,186.47852 212.57227,186.4043 C 212.5957,186.33398 212.60645,186.26172 212.61133,186.19141 C 212.63574,186.11914 212.64551,186.04492 212.65234,185.97266 C 212.67578,185.90039 212.68555,185.82812 212.69141,185.75391 C 212.71484,185.68359 212.72559,185.61133 212.73047,185.53906 C 212.75391,185.4668 212.76465,185.39648 212.77051,185.32227 C 212.79395,185.25 212.80469,185.17969 212.80957,185.10547 C 212.83301,185.03516 212.84375,184.96289 212.84961,184.89062 C 212.87402,184.81836 212.88379,184.74609 212.88965,184.67187 C 212.91406,184.60156 212.92383,184.52734 212.92969,184.45312 C 212.95215,184.38281 212.96387,184.31055 212.96875,184.23828 C 212.99219,184.16602 213.00293,184.09375 213.00879,184.02148 C 213.03125,183.95117 213.04199,183.87695 213.04785,183.80469 C 213.07129,183.73437 213.08106,183.66211 213.08691,183.58789 C 213.11035,183.51758 213.12109,183.44727 213.12695,183.375 C 213.15039,183.30078 213.16211,183.22852 213.16699,183.1543 C 213.19043,183.08398 213.2002,183.01172 213.20606,182.93945 C 213.23047,182.86914 213.24023,182.79492 213.24609,182.7207 C 213.26953,182.65039 213.2793,182.58008 213.28516,182.50781 C 213.30859,182.43555 213.32031,182.36328 213.3252,182.28906 C 213.34863,182.2168 213.36035,182.14453 213.36523,182.07031 C 213.3877,182 213.39746,181.92773 213.4043,181.85742 C 213.42773,181.78516 213.43848,181.71289 213.44336,181.63867 C 213.46777,181.56836 213.47852,181.49609 213.4834,181.42187 C 213.50684,181.35156 213.51758,181.2793 213.52344,181.20508 C 213.54688,181.13281 213.55762,181.06055 213.56348,180.98828 C 213.58594,180.91602 213.5957,180.8457 213.60254,180.77344 C 213.62598,180.70117 213.63672,180.62695 213.6416,180.55273 C 213.66602,180.48242 213.67578,180.41211 213.68164,180.33789 C 213.7041,180.26758 213.71582,180.19531 213.7207,180.125 C 213.74512,180.05078 213.75684,179.97851 213.76172,179.9043 C 213.78516,179.83203 213.79492,179.75976 213.80176,179.6875 C 213.8252,179.61523 213.83496,179.54297 213.83984,179.4707 C 213.86328,179.40039 213.87402,179.32812 213.87891,179.25586 C 213.90332,179.18359 213.91406,179.11133 213.91992,179.03711 C 213.94238,178.9668 213.95215,178.89453 213.95899,178.82226 C 213.98242,178.75 213.99316,178.67773 213.99902,178.60547 C 214.02246,178.5332 214.0332,178.46094 214.03809,178.38672 C 214.06152,178.31641 214.07227,178.24414 214.07813,178.17187 C 214.10156,178.09961 214.11328,178.02539 214.11816,177.95117 C 214.14063,177.88086 214.15039,177.81055 214.15625,177.74023 C 214.17969,177.66797 214.19043,177.5957 214.19727,177.52344 C 214.2207,177.45117 214.23145,177.37695 214.23633,177.30273 C 214.25977,177.23242 214.27051,177.16211 214.27539,177.08789 C 214.29883,177.01758 214.31055,176.94531 214.31543,176.87109 C 214.33887,176.79883 214.34961,176.72656 214.35547,176.6543 C 214.37891,176.58203 214.38965,176.50976 214.39453,176.4375 C 214.41895,176.36719 214.42871,176.29492 214.43457,176.22266 C 214.45801,176.15039 214.46973,176.07617 214.47461,176.00195 C 214.49805,175.93164 214.50879,175.85937 214.51465,175.78516 C 214.53711,175.71484 214.54688,175.64453 214.55371,175.57226 C 214.57715,175.5 214.58789,175.42773 214.59277,175.35351 C 214.61719,175.2832 214.62695,175.21094 214.63184,175.13867 C 214.65625,175.06641 214.66699,174.99414 214.67285,174.91992 C 214.69629,174.84961 214.70703,174.77734 214.71191,174.70508 C 214.73535,174.63281 214.74609,174.55859 214.75195,174.48633 C 214.77539,174.41406 214.78613,174.3418 214.79102,174.26953 C 214.81348,174.19922 214.8252,174.12695 214.83008,174.05469 C 214.85352,173.98437 214.86524,173.91016 214.87012,173.83789 C 214.89453,173.76562 214.90527,173.69336 214.91113,173.61914 C 214.93359,173.54687 214.94336,173.47656 214.9502,173.4043 C 214.97363,173.33398 214.9834,173.25976 214.98926,173.1875 C 215.0127,173.11523 215.02344,173.04297 215.0293,172.96875 C 215.05176,172.89844 215.0625,172.82812 215.06836,172.7539 C 215.0918,172.68164 215.10352,172.60937 215.1084,172.53711 C 215.13184,172.46484 215.1416,172.39258 215.14844,172.32031 C 215.17188,172.25 215.18164,172.17578 215.1875,172.10156 C 215.21094,172.03125 215.22168,171.95898 215.22656,171.88672 C 215.25098,171.8164 215.26172,171.74219 215.26758,171.66797 C 215.29004,171.59765 215.29981,171.52734 215.30664,171.45508 C 215.33008,171.38281 215.34082,171.30859 215.3457,171.23633 C 215.37012,171.16601 215.37988,171.09375 215.38574,171.02148 C 215.40918,170.94922 215.41992,170.875 215.42578,170.80078 C 215.44824,170.73047 215.45899,170.66015 215.46484,170.58594 C 215.48828,170.51562 215.49902,170.44336 215.50488,170.36914 C 215.52832,170.29687 215.53906,170.22461 215.54395,170.15234 C 215.56836,170.08203 215.57813,170.00976 215.58301,169.9375 C 215.60742,169.86523 215.61817,169.79297 215.62402,169.71875 C 215.64649,169.64844 215.65723,169.57812 215.66309,169.5039 C 215.68652,169.43164 215.69727,169.35937 215.7041,169.2832 C 215.72656,169.21289 215.73633,169.14258 215.74219,169.07226 C 215.76563,169 215.77637,168.92578 215.78223,168.85156 C 215.80567,168.78125 215.81641,168.70898 215.82129,168.63672 C 215.84473,168.56445 215.85449,168.49219 215.86133,168.41992 C 215.88477,168.34765 215.89453,168.27539 215.90137,168.20117 C 215.92383,168.13086 215.93359,168.05859 215.93945,167.98828 C 215.96289,167.91601 215.97461,167.84375 215.97949,167.77148 C 216.00391,167.69922 216.01465,167.625 216.02051,167.55078 C 216.04395,167.48047 216.05469,167.4082 216.05957,167.33594 C 216.08301,167.26367 216.09277,167.1914 216.09961,167.11914 C 216.12305,167.04687 216.13281,166.97461 216.13867,166.90234 C 216.16211,166.83203 216.17285,166.75781 216.17871,166.68555 C 216.20215,166.61523 216.21289,166.54297 216.21875,166.46875 C 216.24121,166.39844 216.25098,166.32617 216.25781,166.2539 C 216.28125,166.18164 216.29199,166.10937 216.29688,166.03515 C 216.32129,165.96289 216.33106,165.89258 216.33594,165.82031 C 216.36035,165.74805 216.3711,165.67383 216.37695,165.60156 C 216.39942,165.53125 216.41016,165.45898 216.41602,165.38672 C 216.43945,165.31445 216.4502,165.24219 216.45703,165.16797 C 216.47949,165.09765 216.48926,165.02539 216.49512,164.95312 C 216.51953,164.88086 216.5293,164.80859 216.53516,164.73437 C 216.55859,164.66406 216.56934,164.58984 216.5752,164.51758 C 216.59766,164.44726 216.6084,164.37695 216.61426,164.30469 C 216.6377,164.23242 216.64844,164.1582 216.65527,164.08398 C 216.67774,164.01367 216.6875,163.9414 216.69336,163.86914 C 216.7168,163.79687 216.72754,163.72461 216.7334,163.65039 C 216.75586,163.58008 216.7666,163.50781 216.77246,163.4375 C 216.7959,163.36523 216.80762,163.29101 216.81348,163.21679 C 216.83594,163.14648 216.8457,163.07617 216.85254,163.0039 C 216.87598,162.93164 216.88574,162.85937 216.8916,162.78711 C 216.91504,162.71289 216.92676,162.64062 216.93164,162.5664 C 216.95508,162.49609 216.96582,162.42187 216.97168,162.34961 C 216.99414,162.27929 217.00391,162.20703 217.01074,162.13476 C 217.03418,162.06445 217.04395,161.99219 217.05078,161.91992 C 217.07422,161.84765 217.08399,161.77539 217.08985,161.70117 C 217.11328,161.6289 217.12402,161.55859 217.12891,161.48633 C 217.15235,161.41406 217.16309,161.34179 217.16895,161.26953 C 217.19336,161.19726 217.20313,161.125 217.20996,161.04883 C 217.23242,160.97851 217.24219,160.90625 217.24805,160.83398 C 217.27246,160.76367 217.28223,160.6914 217.28809,160.61914 C 217.31152,160.54687 217.32227,160.47461 217.32813,160.40039 C 217.35059,160.33008 217.36133,160.25781 217.36719,160.18554 C 217.39063,160.11328 217.40137,160.04101 217.40723,159.96875 C 217.43067,159.89648 217.44043,159.82422 217.44629,159.75 C 217.4707,159.67773 217.48047,159.60742 217.48535,159.53515 C 217.50879,159.46289 217.51953,159.39062 217.52539,159.31836 C 217.54883,159.24804 217.55957,159.17383 217.56543,159.10156 C 217.58887,159.03125 217.59961,158.95703 217.60645,158.88281 C 217.62891,158.8125 217.63867,158.74219 217.64453,158.66992 C 217.66797,158.59765 217.67871,158.52344 217.68457,158.45117 C 217.70801,158.3789 217.71875,158.30664 217.72363,158.23437 C 217.74707,158.16406 217.75781,158.09179 217.76367,158.01953 C 217.78809,157.94726 217.79785,157.87304 217.80469,157.79883 C 217.82715,157.72851 217.83594,157.65625 217.8418,157.58594 C 217.86524,157.51367 217.87695,157.43945 217.88281,157.36719 C 217.90527,157.29492 217.91602,157.22461 217.92188,157.15234 C 217.94531,157.08008 217.95703,157.00586 217.96192,156.93164 C 217.98535,156.86133 217.99512,156.79101 218.00195,156.71679 C 218.02539,156.64648 218.03516,156.57422 218.04102,156.50195 C 218.06445,156.42969 218.0752,156.35742 218.08106,156.2832 C 218.10449,156.21094 218.11524,156.13867 218.1211,156.0664 C 218.14356,155.99414 218.15332,155.92187 218.16016,155.84961 C 218.18262,155.77929 218.19238,155.70703 218.19824,155.63476 C 218.22266,155.56445 218.2334,155.49218 218.23926,155.41992 C 218.2627,155.3457 218.27344,155.27148 218.2793,155.19922 C 218.30176,155.12695 218.3125,155.05664 218.31836,154.98437 C 218.3418,154.91211 218.35156,154.83984 218.3584,154.76562 C 218.38184,154.69531 218.3916,154.62304 218.39746,154.54883 C 218.41992,154.47851 218.43067,154.4082 218.43653,154.33593 C 218.45996,154.26172 218.47168,154.18945 218.47754,154.11523 C 218.5,154.04492 218.51074,153.97461 218.5166,153.90234 C 218.54004,153.83008 218.54981,153.75586 218.55664,153.68164 C 218.58008,153.61133 218.58985,153.54101 218.5957,153.46679 C 218.61914,153.39648 218.62988,153.32226 218.63574,153.25 C 218.6582,153.17773 218.66895,153.10547 218.67481,153.0332 C 218.69824,152.96289 218.70899,152.88867 218.71485,152.8164 C 218.73828,152.74609 218.74805,152.67187 218.75488,152.59765 C 218.77735,152.52734 218.78711,152.45703 218.79297,152.38281 C 218.81641,152.3125 218.82715,152.24023 218.83301,152.16797 C 218.85645,152.0957 218.86817,152.02343 218.87403,151.94922 C 218.89649,151.8789 218.90625,151.80664 218.91309,151.73437 C 218.93653,151.66211 218.94629,151.58984 218.9541,151.51562 C 218.97656,151.44531 218.98633,151.37304 218.99219,151.29883 C 219.01563,151.22851 219.02637,151.15625 219.03223,151.08398 C 219.05469,151.01172 219.06543,150.93945 219.07129,150.86718 C 219.09473,150.79492 219.10449,150.72265 219.11133,150.64843 C 219.13477,150.57812 219.14453,150.5039 219.15039,150.43164 C 219.17481,150.36133 219.18457,150.28906 219.19043,150.21484 C 219.21289,150.14453 219.22363,150.07226 219.22949,150 C 219.25293,149.92773 219.26367,149.85547 219.26953,149.7832 C 219.29297,149.71093 219.30274,149.63867 219.30957,149.5664 C 219.33301,149.49609 219.34278,149.42383 219.34863,149.34961 C 219.37305,149.27734 219.38281,149.20507 219.38867,149.13086 C 219.41211,149.05859 219.42285,148.98632 219.42871,148.91406 C 219.45117,148.84375 219.46192,148.77148 219.46778,148.69922 C 219.49024,148.6289 219.5,148.55664 219.50781,148.48242 C 219.53125,148.41211 219.54102,148.33984 219.54688,148.26562 C 219.56934,148.19336 219.58008,148.12304 219.58594,148.04882 C 219.60938,147.97851 219.62012,147.90625 219.62598,147.83398 C 219.64942,147.76172 219.66016,147.68945 219.66699,147.61523 C 219.68946,147.54492 219.69922,147.47265 219.70606,147.40039 C 219.72949,147.32812 219.73926,147.25586 219.74512,147.17968 C 219.76758,147.10937 219.77832,147.03906 219.78418,146.96679 C 219.80762,146.89453 219.81934,146.82226 219.8252,146.74804 C 220.28613,145.31836 217.34961,143.54492 212.48828,142.42578 L 132.33106,123.95996 C 129.21875,123.24218 124.37207,123.23828 121.35352,123.95019 L 43.077148,142.42188 C 38.516602,143.5 35.817383,145.17383 36.154297,146.57812 C 36.155273,146.65234 36.175781,146.72461 36.193359,146.79688 C 36.195312,146.86914 36.21582,146.94141 36.233398,147.01367 C 36.234375,147.08594 36.255859,147.1582 36.273438,147.22852 C 36.274414,147.30273 36.295898,147.375 36.313477,147.44727 C 36.314453,147.52148 36.335938,147.5918 36.352539,147.66406 C 36.354492,147.73633 36.375,147.80859 36.392578,147.87891 C 36.393555,147.95313 36.414063,148.02539 36.431641,148.09766 C 36.432617,148.17188 36.454102,148.24219 36.47168,148.31445 C 36.473633,148.38867 36.494141,148.45898 36.510742,148.5293 C 36.512695,148.60352 36.533203,148.67578 36.550781,148.74805 C 36.552735,148.82031 36.573242,148.89258 36.590821,148.96484 C 36.592774,149.03711 36.613281,149.10938 36.63086,149.18164 C 36.631836,149.25391 36.652344,149.32617 36.669922,149.39844 C 36.671875,149.47266 36.692383,149.54297 36.709961,149.61523 C 36.711914,149.68945 36.732422,149.75977 36.75,149.83203 C 36.750977,149.9043 36.771485,149.97656 36.789063,150.04688 C 36.791016,150.12109 36.811524,150.19336 36.829102,150.26563 C 36.830079,150.33984 36.850586,150.41016 36.868164,150.48242 C 36.870118,150.55664 36.890625,150.62695 36.908204,150.69922 C 36.90918,150.77344 36.930664,150.84375 36.948243,150.91602 C 36.949219,150.99023 36.970704,151.0625 36.988282,151.13281 C 36.989258,151.20703 37.009766,151.27734 37.027344,151.34961 C 37.028321,151.42383 37.049805,151.49414 37.067383,151.56641 C 37.06836,151.64063 37.088868,151.71094 37.106446,151.7832 C 37.107422,151.85742 37.128907,151.92773 37.146485,152 C 37.147462,152.07227 37.168946,152.14453 37.185547,152.2168 C 37.187501,152.29102 37.208008,152.36133 37.225587,152.43359 C 37.226563,152.50781 37.248047,152.57813 37.265626,152.65039 C 37.266602,152.72461 37.28711,152.79688 37.304688,152.86914 C 37.306641,152.94141 37.327149,153.01367 37.344727,153.08594 C 37.34668,153.1582 37.367188,153.22852 37.38379,153.30078 C 37.385743,153.375 37.406251,153.44727 37.423829,153.51953 C 37.425782,153.5918 37.44629,153.66211 37.463868,153.73438 C 37.464845,153.80859 37.485352,153.87891 37.50293,153.95117 C 37.504884,154.02539 37.525391,154.09766 37.54297,154.16797 C 37.543946,154.24219 37.56543,154.31445 37.583009,154.38672 C 37.583985,154.45899 37.604493,154.53125 37.623048,154.60352 C 37.624024,154.67578 37.644532,154.74609 37.66211,154.81641 C 37.664063,154.89258 37.683595,154.96484 37.702149,155.03711 C 37.703126,155.11133 37.723634,155.18164 37.742188,155.25195 C 37.743165,155.32617 37.763673,155.39844 37.781251,155.46875 C 37.782228,155.54297 37.802735,155.61524 37.82129,155.6875 C 37.822267,155.76172 37.842774,155.83203 37.860353,155.9043 C 37.862306,155.97656 37.882813,156.04883 37.900392,156.12109 C 37.901368,156.19336 37.921876,156.26563 37.940431,156.33594 C 37.941407,156.41016 37.961915,156.48242 37.979493,156.55469 C 37.98047,156.62695 38.000978,156.70117 38.019532,156.77344 C 38.021485,156.8457 38.041993,156.91602 38.058595,156.98633 C 38.060548,157.06055 38.081056,157.13281 38.098634,157.20508 C 38.099611,157.27734 38.121095,157.34961 38.138673,157.42188 C 38.13965,157.49609 38.160157,157.56641 38.177736,157.63867 C 38.179689,157.71094 38.200196,157.7832 38.217775,157.85352 C 38.218751,157.92774 38.239259,158 38.256837,158.07227 C 38.25879,158.14649 38.279298,158.2168 38.297853,158.28906 C 38.298829,158.36133 38.319337,158.43359 38.336915,158.50391 C 38.338868,158.57813 38.3584,158.65039 38.375978,158.72266 C 38.377931,158.79492 38.398439,158.86719 38.416017,158.93945 C 38.41797,159.01172 38.438478,159.08399 38.456056,159.15625 C 38.457033,159.23047 38.47754,159.30274 38.496095,159.37305 C 38.497072,159.44727 38.517579,159.51758 38.535158,159.58789 C 38.537111,159.66211 38.556642,159.73438 38.575197,159.80664 C 38.576173,159.87891 38.596681,159.95117 38.614259,160.02344 C 38.616212,160.0957 38.63672,160.16797 38.654298,160.24024 C 38.655275,160.31445 38.675783,160.38672 38.694337,160.45703 C 38.695314,160.53125 38.716798,160.60156 38.7334,160.67188 C 38.735353,160.7461 38.754884,160.81836 38.773439,160.89063 C 38.774416,160.96289 38.794923,161.03516 38.813478,161.10742 C 38.814455,161.17969 38.834962,161.25195 38.852541,161.32422 C 38.853517,161.39844 38.874025,161.4707 38.89258,161.54297 C 38.893556,161.61524 38.915041,161.6875 38.931642,161.75781 C 38.933595,161.83203 38.954103,161.90235 38.971681,161.97461 C 38.972658,162.04688 38.993166,162.1211 39.010744,162.19336 C 39.012697,162.26563 39.033205,162.33594 39.050783,162.4082 C 39.052736,162.48242 39.073244,162.55274 39.090822,162.625 C 39.092775,162.69922 39.113283,162.77149 39.130861,162.8418 C 39.131838,162.91602 39.152345,162.98828 39.1709,163.0586 C 39.171877,163.13086 39.192385,163.20313 39.209963,163.27539 C 39.210939,163.34766 39.231447,163.41992 39.249025,163.49414 C 39.250978,163.56641 39.271486,163.63867 39.289064,163.71094 C 39.291017,163.7832 39.311525,163.85352 39.329103,163.92578 C 39.33008,164 39.350588,164.07227 39.369142,164.14453 C 39.370119,164.2168 39.390627,164.28906 39.408205,164.36133 C 39.410158,164.4336 39.429689,164.50391 39.448244,164.57617 C 39.449221,164.65039 39.469728,164.7207 39.487307,164.79297 C 39.48926,164.86719 39.509767,164.93945 39.527346,165.00977 C 39.528322,165.08399 39.54883,165.15625 39.567385,165.22656 C 39.568361,165.30078 39.588869,165.37305 39.606447,165.44531 C 39.607424,165.51758 39.627932,165.58789 39.646486,165.66211 C 39.647463,165.73438 39.667971,165.80664 39.685549,165.87891 C 39.687502,165.95117 39.70801,166.02344 39.725588,166.09571 C 39.727541,166.16797 39.747072,166.24024 39.765627,166.3125 C 39.766604,166.38477 39.787111,166.45703 39.80469,166.5293 C 39.806643,166.60156 39.82715,166.67383 39.844729,166.7461 C 39.846682,166.81836 39.866213,166.89063 39.883791,166.96289 C 39.885744,167.03516 39.906252,167.10742 39.92383,167.17969 C 39.925783,167.25391 39.946291,167.32422 39.963869,167.39649 C 39.965822,167.46875 39.98633,167.54102 40.003908,167.61328 C 40.004885,167.68555 40.025393,167.75781 40.043948,167.83008 C 40.044924,167.90235 40.065432,167.97461 40.08301,168.04688 C 40.084963,168.11914 40.104494,168.19141 40.122073,168.26172 C 40.124026,168.33594 40.143557,168.40821 40.162112,168.48047 C 40.164065,168.55274 40.183596,168.625 40.202151,168.69727 C 40.203127,168.76953 40.223635,168.8418 40.24219,168.91406 C 40.243166,168.98633 40.263674,169.0586 40.281252,169.13086 C 40.283205,169.20313 40.302737,169.27539 40.321291,169.34766 C 40.322268,169.42188 40.342776,169.49219 40.361331,169.56446 C 40.362307,169.63672 40.382815,169.70899 40.400393,169.7793 C 40.40137,169.85352 40.421877,169.92578 40.440432,169.99805 C 40.441409,170.07227 40.461917,170.14258 40.479495,170.2168 C 40.481448,170.28906 40.501956,170.35938 40.519534,170.42969 C 40.52051,170.50391 40.541018,170.57617 40.558596,170.64844 C 40.560549,170.72071 40.581057,170.79297 40.598635,170.86524 C 40.600588,170.9375 40.62012,171.01172 40.638674,171.08399 C 40.640628,171.15625 40.660159,171.22656 40.677737,171.29883 C 40.67969,171.3711 40.699221,171.44336 40.717776,171.51367 C 40.719729,171.58985 40.73926,171.66211 40.757815,171.73438 C 40.759768,171.80664 40.7793,171.87696 40.797854,171.94727 C 40.798831,172.02149 40.818362,172.09375 40.836917,172.16602 C 40.83887,172.24024 40.858401,172.31055 40.876956,172.38477 C 40.877932,172.45703 40.89844,172.52735 40.916018,172.59961 C 40.917971,172.67383 40.937503,172.7461 40.956057,172.81836 C 40.957034,172.89063 40.977542,172.96094 40.996097,173.03125 C 40.997073,173.10547 41.016604,173.17969 41.035159,173.25196 C 41.037112,173.32422 41.056643,173.39453 41.075198,173.4668 C 41.076175,173.53906 41.096683,173.61133 41.114261,173.6836 C 41.116214,173.75782 41.135745,173.82813 41.1543,173.90039 C 41.155276,173.97461 41.175784,174.04688 41.194339,174.11914 C 41.195315,174.19141 41.215823,174.26367 41.233401,174.33594 C 41.235354,174.40821 41.254886,174.47852 41.27344,174.55078 C 41.274417,174.625 41.294925,174.69532 41.31348,174.76758 C 41.314456,174.8418 41.334964,174.91407 41.352542,174.98633 C 41.354495,175.0586 41.374026,175.13086 41.392581,175.20117 C 41.393558,175.27539 41.414066,175.34766 41.431644,175.41992 C 41.433597,175.49219 41.453128,175.56446 41.471683,175.63672 C 41.473636,175.70899 41.493167,175.78125 41.511722,175.85157 C 41.513675,175.92578 41.533206,175.99805 41.551761,176.07032 C 41.552738,176.14258 41.573245,176.21485 41.590823,176.28516 C 41.592777,176.35938 41.612308,176.43164 41.630863,176.50391 C 41.631839,176.57617 41.652347,176.64649 41.669925,176.71875 C 41.671878,176.79297 41.691409,176.86524 41.709964,176.9375 C 41.711917,177.01172 41.731449,177.08203 41.750003,177.1543 C 41.75098,177.22657 41.771488,177.29883 41.789066,177.3711 C 41.791019,177.44336 41.81055,177.51563 41.829105,177.58789 C 41.830081,177.66016 41.850589,177.73242 41.869144,177.80469 C 41.870121,177.87696 41.890628,177.94922 41.908206,178.02149 C 41.91016,178.09375 41.929691,178.16602 41.948246,178.23633 C 41.949222,178.31055 41.96973,178.38282 41.988285,178.45508 C 41.989261,178.52735 42.008792,178.59961 42.027347,178.67188 C 42.028324,178.74414 42.048832,178.81641 42.067386,178.88867 C 42.068363,178.96094 42.088871,179.03321 42.106449,179.10352 C 42.108402,179.17774 42.127933,179.25 42.146488,179.32227 C 42.148441,179.39649 42.167972,179.4668 42.186527,179.53711 C 42.187504,179.61133 42.207035,179.6836 42.225589,179.75586 C 42.227543,179.83008 42.247074,179.90039 42.265629,179.97266 C 42.267582,180.04493 42.287113,180.11524 42.304691,180.1875 C 42.306644,180.26172 42.326175,180.33399 42.34473,180.40625 C 42.346683,180.48047 42.366215,180.55078 42.383793,180.62305 C 42.385746,180.69532 42.405277,180.76953 42.423832,180.83985 C 42.425785,180.91407 42.445316,180.98633 42.463871,181.05664 C 42.465824,181.12891 42.485355,181.20118 42.50391,181.27344 C 42.504887,181.34766 42.525394,181.41797 42.543949,181.49024 C 42.544926,181.56446 42.564457,181.63477 42.583012,181.70703 C 42.584965,181.7793 42.603519,181.85157 42.623051,181.92383 C 42.624027,181.99805 42.643558,182.07032 42.66309,182.14258 C 42.664066,182.21485 42.684574,182.28516 42.702152,182.35743 C 42.703129,182.42969 42.72266,182.50196 42.742191,182.57422 C 42.743168,182.64844 42.762699,182.71875 42.781254,182.78907 C 42.783207,182.86328 42.801762,182.9375 42.821293,183.00977 C 42.82227,183.08203 42.842777,183.1543 42.861332,183.22461 C 42.862309,183.29688 42.88184,183.36914 42.900395,183.44141 C 42.901371,183.51563 42.921879,183.58789 42.940434,183.66016 C 42.942387,183.73243 42.961918,183.80274 42.979496,183.875 C 42.981449,183.94727 43.000981,184.01953 43.019535,184.0918 C 43.020512,184.16602 43.04102,184.23828 43.059574,184.31055 C 43.060551,184.38282 43.080082,184.45313 43.098637,184.52539 C 43.10059,184.59961 43.120121,184.67188 43.138676,184.74219 C 43.140629,184.81641 43.16016,184.88672 43.177738,184.95899 C 43.179692,185.03125 43.199223,185.10547 43.217778,185.17774 C 43.219731,185.25 43.239262,185.32227 43.257817,185.39258 C 43.258793,185.4668 43.278324,185.53711 43.296879,185.61133 C 43.298832,185.6836 43.318364,185.75586 43.336918,185.82618 C 43.338871,185.90039 43.358403,185.97266 43.376957,186.04493 C 43.377934,186.11914 43.397465,186.18946 43.416996,186.26172 C 43.417973,186.33399 43.437504,186.40625 43.456059,186.47657 C 43.458012,186.55079 43.476567,186.62305 43.496098,186.69532 C 43.497075,186.76758 43.517582,186.83985 43.536137,186.91016 C 43.537114,186.98438 43.556645,187.05664 43.5752,187.12696 C 43.576176,187.20118 43.595707,187.27344 43.615239,187.34375 C 43.616215,187.41797 43.635747,187.49024 43.654301,187.5625 C 43.655278,187.63477 43.675786,187.70704 43.69434,187.7793 C 43.695317,187.85157 43.714848,187.92383 43.733403,187.99414 C 43.735356,188.06836 43.753911,188.14258 43.773442,188.21485 C 43.775395,188.28711 43.794926,188.35743 43.813481,188.42774 C 43.814458,188.50196 43.833989,188.57422 43.852544,188.64649 C 43.854497,188.71875 43.874028,188.79102 43.892583,188.86329 C 43.893559,188.93555 43.914067,189.00782 43.931645,189.07813 C 43.933598,189.15235 43.95313,189.22461 43.971684,189.29688 C 43.973637,189.3711 43.993169,189.44141 44.011723,189.51368 C 44.013676,189.58594 44.033208,189.65821 44.051762,189.73047 C 44.052739,189.80274 44.07227,189.875 44.090825,189.94727 C 44.099614,190.36524 44.3877,190.76368 44.993169,191.11329 L 119.4336,234.03711 C 126.07227,237.86524 137.06739,237.83789 143.17676,233.98438 L 211.17383,191.07618 C 211.64747,190.77735 211.87208,190.44141 211.89844,190.08985 C 211.92188,190.01953 211.93262,189.94727 211.9375,189.875 z "
   style="fill:url(#XMLID_13_)"
   id="path30" />
				
					<linearGradient
   x1="127.99902"
   y1="189.39941"
   x2="127.99902"
   y2="123.41943"
   id="XMLID_14_"
   gradientUnits="userSpaceOnUse">
					<stop
   style="stop-color:#ffffff;stop-opacity:1"
   offset="0"
   id="stop33" />
					<stop
   style="stop-color:#828282;stop-opacity:1"
   offset="0.30000001"
   id="stop35" />
					<stop
   style="stop-color:#555555;stop-opacity:1"
   offset="0.69999999"
   id="stop37" />
					<stop
   style="stop-color:#000000;stop-opacity:1"
   offset="1"
   id="stop39" />
					<a:midPointStop
   style="stop-color:#FFFFFF"
   offset="0" />
					<a:midPointStop
   style="stop-color:#FFFFFF"
   offset="0.5" />
					<a:midPointStop
   style="stop-color:#828282"
   offset="0.3" />
					<a:midPointStop
   style="stop-color:#828282"
   offset="0.5" />
					<a:midPointStop
   style="stop-color:#555555"
   offset="0.7" />
					<a:midPointStop
   style="stop-color:#555555"
   offset="0.5" />
					<a:midPointStop
   style="stop-color:#000000"
   offset="1" />
				</linearGradient>
				<path
   d="M 43.079102,142.42188 C 37.287109,143.78906 34.475586,146.12305 37.104492,147.64062 L 118.61719,186.27344 C 125.88574,190.46484 137.92676,190.4375 144.61621,186.21484 L 219.07324,147.60156 C 221.45801,146.09766 218.37988,143.7832 212.49023,142.42578 L 132.33301,123.95996 C 129.2207,123.24219 124.375,123.23828 121.35547,123.9502 L 43.079102,142.42188 z "
   style="fill:url(#XMLID_14_)"
   id="path41" />
				
					<radialGradient
   cx="128.49609"
   cy="186.51562"
   r="112.28464"
   fx="128.49609"
   fy="186.51562"
   id="XMLID_15_"
   gradientUnits="userSpaceOnUse">
					<stop
   style="stop-color:#f0f0f0;stop-opacity:1"
   offset="0.005618"
   id="stop44" />
					<stop
   style="stop-color:#616161;stop-opacity:1"
   offset="0.54494399"
   id="stop46" />
					<stop
   style="stop-color:#949494;stop-opacity:1"
   offset="1"
   id="stop48" />
					<a:midPointStop
   style="stop-color:#F0F0F0"
   offset="0.005618" />
					<a:midPointStop
   style="stop-color:#F0F0F0"
   offset="0.5" />
					<a:midPointStop
   style="stop-color:#616161"
   offset="0.544944" />
					<a:midPointStop
   style="stop-color:#616161"
   offset="0.5" />
					<a:midPointStop
   style="stop-color:#949494"
   offset="1" />
				</radialGradient>
				<path
   d="M 62.286133,146.46094 C 57.804688,147.51758 55.629883,149.32422 57.664062,150.49805 L 120.72656,180.38477 C 126.34961,183.62891 135.66504,183.60742 140.83984,180.33984 L 198.44336,150.4668 C 200.28906,149.30273 197.90723,147.51172 193.35156,146.46289 L 131.33789,132.17773 C 128.92969,131.62109 125.18066,131.61816 122.84473,132.16992 L 62.286133,146.46094 z "
   style="fill:url(#XMLID_15_)"
   id="path50" />
				
					<linearGradient
   x1="128.15771"
   y1="118.86182"
   x2="128.15771"
   y2="173.96008"
   id="XMLID_16_"
   gradientUnits="userSpaceOnUse">
					<stop
   style="stop-color:#494949;stop-opacity:1"
   offset="0.005618"
   id="stop53" />
					<stop
   style="stop-color:#616161;stop-opacity:1"
   offset="0.54494399"
   id="stop55" />
					<stop
   style="stop-color:#a2a2a2;stop-opacity:1"
   offset="1"
   id="stop57" />
					<a:midPointStop
   style="stop-color:#494949"
   offset="0.005618" />
					<a:midPointStop
   style="stop-color:#494949"
   offset="0.5" />
					<a:midPointStop
   style="stop-color:#616161"
   offset="0.544944" />
					<a:midPointStop
   style="stop-color:#616161"
   offset="0.5" />
					<a:midPointStop
   style="stop-color:#A2A2A2"
   offset="1" />
				</linearGradient>
				<path
   d="M 71.751953,147.0625 C 67.904297,147.97266 66.037109,149.52344 67.783203,150.53125 L 121.92676,176.18945 C 126.75488,178.97461 134.75293,178.95703 139.19629,176.15234 L 188.65137,150.50391 C 190.23535,149.50391 188.19141,147.9668 184.2793,147.06641 L 131.03809,134.80078 C 128.96875,134.32422 125.75098,134.32031 123.74512,134.79395 L 71.751953,147.0625 z "
   style="fill:url(#XMLID_16_)"
   id="path59" />
				<path
   d="M 133.72266,50.162109 L 116.9834,50.162109 L 116.9834,152.44141 C 116.9834,157.50195 121.5791,161.4668 127.44531,161.4668 C 133.3125,161.4668 137.90723,157.50195 137.90723,152.44141 L 137.90723,50.162109 L 133.72266,50.162109 z "
   style="fill:#494949"
   id="path61" />
				
					<linearGradient
   x1="121.16797"
   y1="105.81396"
   x2="133.72266"
   y2="105.81396"
   id="XMLID_17_"
   gradientUnits="userSpaceOnUse">
					<stop
   style="stop-color:#bdbdcf;stop-opacity:1"
   offset="0"
   id="stop64" />
					<stop
   style="stop-color:#ffffff;stop-opacity:1"
   offset="0.25842699"
   id="stop66" />
					<stop
   style="stop-color:#7d7d99;stop-opacity:1"
   offset="1"
   id="stop68" />
					<a:midPointStop
   style="stop-color:#BDBDCF"
   offset="0" />
					<a:midPointStop
   style="stop-color:#BDBDCF"
   offset="0.5" />
					<a:midPointStop
   style="stop-color:#FFFFFF"
   offset="0.258427" />
					<a:midPointStop
   style="stop-color:#FFFFFF"
   offset="0.5" />
					<a:midPointStop
   style="stop-color:#7D7D99"
   offset="1" />
				</linearGradient>
				<path
   d="M 121.16797,54.34668 L 121.16797,152.44141 C 121.16797,155.11328 123.97852,157.28125 127.44531,157.28125 C 130.91309,157.28125 133.72266,155.11328 133.72266,152.44141 L 133.72266,54.34668 L 121.16797,54.34668 z "
   style="fill:url(#XMLID_17_)"
   id="path70" />
				
					<linearGradient
   x1="94.316406"
   y1="45.976562"
   x2="160.57422"
   y2="45.976562"
   id="XMLID_18_"
   gradientUnits="userSpaceOnUse">
					<stop
   style="stop-color:#600000;stop-opacity:1"
   offset="0"
   id="stop73" />
					<stop
   style="stop-color:#540000;stop-opacity:1"
   offset="1"
   id="stop75" />
					<a:midPointStop
   style="stop-color:#600000"
   offset="0" />
					<a:midPointStop
   style="stop-color:#600000"
   offset="0.5" />
					<a:midPointStop
   style="stop-color:#540000"
   offset="1" />
				</linearGradient>
				<path
   d="M 94.316406,45.976562 C 94.316406,64.244141 109.17773,79.105469 127.44531,79.105469 C 145.71289,79.105469 160.57422,64.244141 160.57422,45.976562 C 160.57422,37.126953 157.12793,28.807617 150.87207,22.550781 C 144.61426,16.292969 136.29395,12.847656 127.44531,12.847656 C 109.17773,12.847656 94.316406,27.708984 94.316406,45.976562 z "
   style="fill:url(#XMLID_18_)"
   id="path77" />
				
					<radialGradient
   cx="118.72705"
   cy="30.282715"
   r="49.317989"
   fx="118.72705"
   fy="30.282715"
   id="XMLID_19_"
   gradientUnits="userSpaceOnUse">
					<stop
   style="stop-color:#ffffff;stop-opacity:1"
   offset="0.005618"
   id="stop80" />
					<stop
   style="stop-color:#f8310e;stop-opacity:1"
   offset="0.196629"
   id="stop82" />
					<stop
   style="stop-color:#ff0000;stop-opacity:1"
   offset="0.32584301"
   id="stop84" />
					<stop
   style="stop-color:#cf0000;stop-opacity:1"
   offset="0.58427"
   id="stop86" />
					<stop
   style="stop-color:#600000;stop-opacity:1"
   offset="1"
   id="stop88" />
					<a:midPointStop
   style="stop-color:#FFFFFF"
   offset="0.005618" />
					<a:midPointStop
   style="stop-color:#FFFFFF"
   offset="0.5" />
					<a:midPointStop
   style="stop-color:#F8310E"
   offset="0.196629" />
					<a:midPointStop
   style="stop-color:#F8310E"
   offset="0.5" />
					<a:midPointStop
   style="stop-color:#FF0000"
   offset="0.325843" />
					<a:midPointStop
   style="stop-color:#FF0000"
   offset="0.5" />
					<a:midPointStop
   style="stop-color:#CF0000"
   offset="0.58427" />
					<a:midPointStop
   style="stop-color:#CF0000"
   offset="0.5" />
					<a:midPointStop
   style="stop-color:#600000"
   offset="1" />
				</radialGradient>
				<circle
   cx="127.44531"
   cy="45.976562"
   r="28.944336"
   style="fill:url(#XMLID_19_)"
   id="circle90" /> 
				<g
   id="g92">
					
						<linearGradient
   x1="141.89258"
   y1="183.01562"
   x2="124.11664"
   y2="165.23969"
   id="XMLID_20_"
   gradientUnits="userSpaceOnUse">
						<stop
   style="stop-color:#7c0000;stop-opacity:1"
   offset="0"
   id="stop95" />
						<stop
   style="stop-color:#540000;stop-opacity:1"
   offset="1"
   id="stop97" />
						<a:midPointStop
   style="stop-color:#7C0000"
   offset="0" />
						<a:midPointStop
   style="stop-color:#7C0000"
   offset="0.5" />
						<a:midPointStop
   style="stop-color:#540000"
   offset="1" />
					</linearGradient>
					<path
   d="M 114.54102,172.19141 L 114.54102,176.07617 C 114.54102,182.52734 124.12207,185.4668 133.02441,185.4668 C 141.79199,185.4668 151.17285,182.59961 151.45508,176.34961 C 151.47754,176.12891 151.50781,175.83984 151.50781,175.83984 L 151.43555,176.44922 L 151.50684,175.73047 L 151.43555,176.33398 L 151.50684,175.61523 L 151.43066,176.24414 L 151.50781,175.48828 L 151.44043,176.07813 L 151.50684,175.38281 L 151.44043,175.96094 L 151.50684,175.26758 L 151.43066,175.89648 L 151.50781,175.14648 L 151.43555,175.75586 L 151.50684,175.03711 L 151.43555,175.64063 L 151.50684,174.92188 L 151.43066,175.55078 L 151.50781,174.79492 L 151.44043,175.38477 L 151.50684,174.69141 L 151.44043,175.26953 L 151.50684,174.57617 L 151.43066,175.20508 L 151.50781,174.45313 L 151.43555,175.06445 L 151.50684,174.3457 L 151.43555,174.94922 L 151.50684,174.22852 L 151.43066,174.85938 L 151.50781,174.10156 L 151.44043,174.69141 L 151.50684,174 L 151.44043,174.57617 L 151.50684,173.88281 L 151.43066,174.51172 L 151.50781,173.76172 L 151.43555,174.37305 L 151.50684,173.65234 L 151.43555,174.25586 L 151.50684,173.53711 L 151.43066,174.16602 L 151.50781,173.41016 L 151.44043,174 L 151.50684,173.30664 L 151.44043,173.88281 L 151.50684,173.19141 L 151.43066,173.82031 L 151.50781,173.07031 L 151.43555,173.67969 L 151.50684,172.96094 L 151.43555,173.5625 L 151.50684,172.84375 L 151.43066,173.47266 L 151.50781,172.7168 L 151.44043,173.30664 L 151.50684,172.61328 L 151.44043,173.19141 L 151.50684,172.49805 L 151.43066,173.12695 L 151.50781,172.37695 L 151.43555,172.98633 L 151.50684,172.26758 C 151.50684,165.73828 141.92676,162.79883 133.02441,162.79883 C 124.12207,162.79883 114.54102,165.73828 114.54102,172.19141 z M 151.4668,176.2832 C 151.46973,176.25195 151.4834,176.22461 151.48438,176.19336 C 151.49512,176.08984 151.50684,175.96094 151.50684,175.96094 C 151.50684,175.96094 151.4873,176.12305 151.4668,176.2832 z "
   style="fill:url(#XMLID_20_)"
   id="path99" />
					
						<linearGradient
   x1="118.72559"
   y1="175.00586"
   x2="147.32227"
   y2="175.00586"
   id="XMLID_21_"
   gradientUnits="userSpaceOnUse">
						<stop
   style="stop-color:#ff0000;stop-opacity:1"
   offset="0.005618"
   id="stop102" />
						<stop
   style="stop-color:#cf0000;stop-opacity:1"
   offset="0.5"
   id="stop104" />
						<stop
   style="stop-color:#990000;stop-opacity:1"
   offset="1"
   id="stop106" />
						<a:midPointStop
   style="stop-color:#FF0000"
   offset="0.005618" />
						<a:midPointStop
   style="stop-color:#FF0000"
   offset="0.5" />
						<a:midPointStop
   style="stop-color:#CF0000"
   offset="0.5" />
						<a:midPointStop
   style="stop-color:#CF0000"
   offset="0.5" />
						<a:midPointStop
   style="stop-color:#990000"
   offset="1" />
					</linearGradient>
					<path
   d="M 147.31934,172.93555 C 147.31934,172.92773 147.32227,172.91992 147.32227,172.91406 C 147.32227,169.63867 140.92188,166.98438 133.02441,166.98438 C 125.12793,166.98438 118.72559,169.63867 118.72559,172.91406 C 118.72559,172.91992 118.72852,172.92773 118.72852,172.93555 C 118.72852,172.94141 118.72559,172.94727 118.72559,172.95508 C 118.72559,172.96289 118.72852,172.96875 118.72852,172.97461 C 118.72852,172.98242 118.72559,172.98828 118.72559,172.99609 C 118.72559,173.00391 118.72852,173.00977 118.72852,173.01563 C 118.72852,173.02344 118.72559,173.03125 118.72559,173.03711 C 118.72559,173.04492 118.72852,173.05078 118.72852,173.05859 C 118.72852,173.06445 118.72559,173.07227 118.72559,173.07813 C 118.72559,173.08594 118.72852,173.09375 118.72852,173.09961 C 118.72852,173.10547 118.72559,173.11328 118.72559,173.12109 C 118.72559,173.12695 118.72852,173.13477 118.72852,173.14063 C 118.72852,173.14844 118.72559,173.1543 118.72559,173.16211 C 118.72559,173.16797 118.72852,173.17578 118.72852,173.18164 C 118.72852,173.18945 118.72559,173.19531 118.72559,173.20313 C 118.72559,173.21094 118.72852,173.2168 118.72852,173.22461 C 118.72852,173.23047 118.72559,173.23633 118.72559,173.24414 C 118.72559,173.25195 118.72852,173.25781 118.72852,173.26563 C 118.72852,173.27148 118.72559,173.2793 118.72559,173.28516 C 118.72559,173.29297 118.72852,173.30078 118.72852,173.30664 C 118.72852,173.31445 118.72559,173.32031 118.72559,173.32813 C 118.72559,173.33594 118.72852,173.3418 118.72852,173.34766 C 118.72852,173.35547 118.72559,173.36133 118.72559,173.36914 C 118.72559,173.375 118.72852,173.38281 118.72852,173.39063 C 118.72852,173.39649 118.72559,173.4043 118.72559,173.41016 C 118.72559,173.41797 118.72852,173.42383 118.72852,173.43164 C 118.72852,173.4375 118.72559,173.44531 118.72559,173.45117 C 118.72559,173.45899 118.72852,173.4668 118.72852,173.47266 C 118.72852,173.47852 118.72559,173.48633 118.72559,173.49414 C 118.72559,173.5 118.72852,173.50586 118.72852,173.51367 C 118.72852,173.52149 118.72559,173.52734 118.72559,173.53516 C 118.72559,173.54102 118.72852,173.54883 118.72852,173.55664 C 118.72852,173.5625 118.72559,173.56836 118.72559,173.57617 C 118.72559,173.58399 118.72852,173.58984 118.72852,173.5957 C 118.72852,173.60352 118.72559,173.60938 118.72559,173.61719 C 118.72559,173.625 118.72852,173.63086 118.72852,173.63672 C 118.72852,173.64453 118.72559,173.65234 118.72559,173.6582 C 118.72559,173.66602 118.72852,173.67383 118.72852,173.67969 C 118.72852,173.6875 118.72559,173.69336 118.72559,173.70117 C 118.72559,173.70703 118.72852,173.71485 118.72852,173.7207 C 118.72852,173.72852 118.72559,173.73438 118.72559,173.74219 C 118.72559,173.74805 118.72852,173.75586 118.72852,173.76172 C 118.72852,173.76953 118.72559,173.77735 118.72559,173.7832 C 118.72559,173.79102 118.72852,173.79688 118.72852,173.80469 C 118.72852,173.81055 118.72559,173.81641 118.72559,173.82422 C 118.72559,173.83203 118.72852,173.83789 118.72852,173.8457 C 118.72852,173.85156 118.72559,173.85938 118.72559,173.86719 C 118.72559,173.87305 118.72852,173.87891 118.72852,173.88672 C 118.72852,173.89453 118.72559,173.90039 118.72559,173.9082 C 118.72559,173.91406 118.72852,173.92188 118.72852,173.92774 C 118.72852,173.93555 118.72559,173.94141 118.72559,173.94922 C 118.72559,173.95703 118.72852,173.96289 118.72852,173.96875 C 118.72852,173.97656 118.72559,173.98242 118.72559,173.99024 C 118.72559,173.99805 118.72852,174.00391 118.72852,174.01172 C 118.72852,174.01758 118.72559,174.02539 118.72559,174.03125 C 118.72559,174.03906 118.72852,174.04688 118.72852,174.05274 C 118.72852,174.0586 118.72559,174.06641 118.72559,174.07422 C 118.72559,174.08008 118.72852,174.08789 118.72852,174.09375 C 118.72852,174.10156 118.72559,174.10742 118.72559,174.11524 C 118.72559,174.1211 118.72852,174.12891 118.72852,174.13672 C 118.72852,174.14258 118.72559,174.14844 118.72559,174.15625 C 118.72559,174.16406 118.72852,174.16992 118.72852,174.17774 C 118.72852,174.1836 118.72559,174.18946 118.72559,174.19727 C 118.72559,174.20508 118.72852,174.21094 118.72852,174.21875 C 118.72852,174.22461 118.72559,174.23242 118.72559,174.24024 C 118.72559,174.2461 118.72852,174.25196 118.72852,174.25977 C 118.72852,174.26758 118.72559,174.27344 118.72559,174.2793 C 118.72559,174.28711 118.72852,174.29492 118.72852,174.30078 C 118.72852,174.3086 118.72559,174.31446 118.72559,174.32227 C 118.72559,174.33008 118.72852,174.33594 118.72852,174.3418 C 118.72852,174.34961 118.72559,174.35547 118.72559,174.36328 C 118.72559,174.36914 118.72852,174.37696 118.72852,174.38281 C 118.72852,174.39063 118.72559,174.39844 118.72559,174.4043 C 118.72559,174.41211 118.72852,174.41992 118.72852,174.42578 C 118.72852,174.43164 118.72559,174.43946 118.72559,174.44727 C 118.72559,174.45313 118.72852,174.45899 118.72852,174.4668 C 118.72852,174.47461 118.72559,174.48047 118.72559,174.48828 C 118.72559,174.49414 118.72852,174.50196 118.72852,174.50782 C 118.72852,174.51563 118.72559,174.52149 118.72559,174.5293 C 118.72559,174.53711 118.72852,174.54297 118.72852,174.55078 C 118.72852,174.55664 118.72559,174.5625 118.72559,174.57032 C 118.72559,174.57813 118.72852,174.58399 118.72852,174.5918 C 118.72852,174.59766 118.72559,174.60547 118.72559,174.61133 C 118.72559,174.61914 118.72852,174.625 118.72852,174.63282 C 118.72852,174.64063 118.72559,174.64649 118.72559,174.65235 C 118.72559,174.66016 118.72852,174.66797 118.72852,174.67383 C 118.72852,174.67969 118.72559,174.6875 118.72559,174.69532 C 118.72559,174.70117 118.72852,174.70899 118.72852,174.71485 C 118.72852,174.72266 118.72559,174.72852 118.72559,174.73633 C 118.72559,174.74219 118.72852,174.75 118.72852,174.75782 C 118.72852,174.76367 118.72559,174.77149 118.72559,174.77735 C 118.72559,174.78516 118.72852,174.79297 118.72852,174.79883 C 118.72852,174.80469 118.72559,174.8125 118.72559,174.82032 C 118.72559,174.82618 118.72852,174.83203 118.72852,174.83985 C 118.72852,174.84766 118.72559,174.85352 118.72559,174.86133 C 118.72559,174.86719 118.72852,174.875 118.72852,174.88282 C 118.72852,174.88868 118.72559,174.89453 118.72559,174.90235 C 118.72559,174.91016 118.72852,174.91602 118.72852,174.92188 C 118.72852,174.92969 118.72559,174.93555 118.72559,174.94336 C 118.72559,174.95118 118.72852,174.95703 118.72852,174.96289 C 118.72852,174.97071 118.72559,174.97852 118.72559,174.98438 C 118.72559,174.99219 118.72852,174.99805 118.72852,175.00586 C 118.72852,175.01172 118.72559,175.01953 118.72559,175.02539 C 118.72559,175.03321 118.72852,175.04102 118.72852,175.04688 C 118.72852,175.05274 118.72559,175.06055 118.72559,175.06836 C 118.72559,175.07422 118.72852,175.08203 118.72852,175.08789 C 118.72852,175.09571 118.72559,175.10157 118.72559,175.10938 C 118.72559,175.11524 118.72852,175.12305 118.72852,175.12891 C 118.72852,175.13672 118.72559,175.14258 118.72559,175.15039 C 118.72559,175.15821 118.72852,175.16407 118.72852,175.17188 C 118.72852,175.17774 118.72559,175.1836 118.72559,175.19141 C 118.72559,175.19922 118.72852,175.20508 118.72852,175.21289 C 118.72852,175.21875 118.72559,175.22657 118.72559,175.23243 C 118.72559,175.24024 118.72852,175.24805 118.72852,175.25391 C 118.72852,175.26172 118.72559,175.26758 118.72559,175.27539 C 118.72559,175.28321 118.72852,175.28907 118.72852,175.29493 C 118.72852,175.30274 118.72559,175.3086 118.72559,175.31641 C 118.72559,175.32422 118.72852,175.33008 118.72852,175.33789 C 118.72852,175.34375 118.72559,175.35157 118.72559,175.35743 C 118.72559,175.36524 118.72852,175.3711 118.72852,175.37891 C 118.72852,175.38477 118.72559,175.39258 118.72559,175.39844 C 118.72559,175.40625 118.72852,175.41407 118.72852,175.41993 C 118.72852,175.42579 118.72559,175.4336 118.72559,175.44141 C 118.72559,175.44727 118.72852,175.45313 118.72852,175.46094 C 118.72852,175.46875 118.72559,175.47461 118.72559,175.48243 C 118.72559,175.48829 118.72852,175.4961 118.72852,175.50391 C 118.72852,175.50977 118.72559,175.51563 118.72559,175.52344 C 118.72559,175.53125 118.72852,175.53711 118.72852,175.54493 C 118.72852,175.55079 118.72559,175.55665 118.72559,175.56446 C 118.72559,175.57227 118.72852,175.57813 118.72852,175.58399 C 118.72852,175.5918 118.72559,175.59961 118.72559,175.60547 C 118.72559,175.61329 118.72852,175.6211 118.72852,175.62696 C 118.72852,175.63477 118.72559,175.64063 118.72559,175.64844 C 118.72559,175.65625 118.72852,175.66211 118.72852,175.66797 C 118.72852,175.67579 118.72559,175.68165 118.72559,175.68946 C 118.72559,175.69532 118.72852,175.70313 118.72852,175.70899 C 118.72852,175.7168 118.72559,175.72461 118.72559,175.73047 C 118.72559,175.73829 118.72852,175.74415 118.72852,175.75196 C 118.72852,175.75782 118.72559,175.76368 118.72559,175.77149 C 118.72559,175.7793 118.72852,175.78516 118.72852,175.79297 C 118.72852,175.79883 118.72559,175.80665 118.72559,175.81446 C 118.72559,175.82032 118.72852,175.82618 118.72852,175.83399 C 118.72852,175.8418 118.72559,175.84766 118.72559,175.85547 C 118.72559,175.86133 118.72852,175.86915 118.72852,175.875 C 118.72852,175.88282 118.72559,175.88868 118.72559,175.89649 C 118.72559,175.9043 118.72852,175.91016 118.72852,175.91602 C 118.72852,175.92383 118.72559,175.92969 118.72559,175.93751 C 118.72559,175.94532 118.72852,175.95118 118.72852,175.95899 C 118.72852,175.96485 118.72559,175.97266 118.72559,175.97852 C 118.72559,175.98633 118.72852,175.99415 118.72852,176.00001 C 118.72852,176.00586 118.72559,176.01368 118.72559,176.02149 C 118.72559,176.02735 118.72852,176.03516 118.72852,176.04102 C 118.72852,176.04883 118.72559,176.05469 118.72559,176.06251 C 118.72559,176.06836 118.72852,176.07618 118.72852,176.08399 C 118.72852,176.08985 118.72559,176.09571 118.72559,176.10352 C 118.72559,176.11133 118.72852,176.11719 118.72852,176.12501 C 118.72852,176.13086 118.72559,176.13672 118.72559,176.14454 C 118.72559,176.15235 118.72852,176.15821 118.72852,176.16602 C 118.72852,176.17188 118.72559,176.17969 118.72559,176.18751 C 118.72559,176.19336 118.72852,176.19922 118.72852,176.20704 C 118.72852,176.21485 118.72559,176.22071 118.72559,176.22657 C 118.72559,176.23438 118.72852,176.24219 118.72852,176.24805 C 118.72852,176.25586 118.72559,176.26172 118.72559,176.26954 C 118.72559,176.27735 118.72852,176.28321 118.72852,176.28907 C 118.72852,176.29688 118.72559,176.30274 118.72559,176.31055 C 118.72559,176.31641 118.72852,176.32422 118.72852,176.33008 C 118.72852,176.3379 118.72559,176.34571 118.72559,176.35157 C 118.72559,176.35938 118.72852,176.36719 118.72852,176.37305 C 118.72852,176.37891 118.72559,176.38672 118.72559,176.39454 C 118.72559,176.4004 118.72852,176.40821 118.72852,176.41407 C 118.72852,176.42188 118.72559,176.42774 118.72559,176.43555 C 118.72559,176.44141 118.72852,176.44922 118.72852,176.45508 C 118.72852,176.4629 118.72559,176.46876 118.72559,176.47657 C 118.72559,176.48438 118.72852,176.49024 118.72852,176.49805 C 118.72852,176.50391 118.72559,176.50977 118.72559,176.51758 C 118.72559,176.5254 118.72852,176.53126 118.72852,176.53907 C 118.72852,176.54493 118.72559,176.55274 118.72559,176.5586 C 118.72559,176.56641 118.72852,176.57227 118.72852,176.58008 C 118.72852,176.5879 118.72559,176.59376 118.72559,176.59962 C 118.72559,176.60743 118.72852,176.61524 118.72852,176.6211 C 118.72852,176.62891 118.72559,176.63477 118.72559,176.64258 C 118.72559,176.64844 118.72852,176.65626 118.72852,176.66212 C 118.72852,176.66993 118.72559,176.67579 118.72559,176.6836 C 118.72559,176.68946 118.72852,176.69727 118.72852,176.70508 C 118.72852,176.71094 118.72559,176.71876 118.72559,176.72462 C 118.72559,176.73243 118.72852,176.74024 118.72852,176.7461 C 118.72852,176.75196 118.72559,176.75977 118.72559,176.76758 C 118.72559,176.77344 118.72852,176.7793 118.72852,176.78712 C 118.72852,176.79493 118.72559,176.80079 118.72559,176.8086 C 118.72559,176.81446 118.72852,176.82227 118.72852,176.83008 C 118.72852,176.83594 118.72559,176.8418 118.72559,176.84962 C 118.72559,176.85743 118.72852,176.86329 118.72852,176.86915 C 118.72852,176.87696 118.72559,176.88282 118.72559,176.89063 C 118.72559,176.89844 118.72852,176.9043 118.72852,176.91016 C 118.72852,176.91798 118.72559,176.92579 118.72559,176.93165 C 118.72559,176.93946 118.72852,176.94532 118.72852,176.95313 C 118.72852,176.96094 118.72559,176.9668 118.72559,176.97266 C 118.72559,176.98048 118.72852,176.98829 118.72852,176.99415 C 118.72852,177.00001 118.72559,177.00782 118.72559,177.01563 C 118.72559,177.02149 118.72852,177.0293 118.72852,177.03516 C 118.72852,177.04298 118.72559,177.04884 118.72559,177.05665 C 118.72559,177.06251 118.72852,177.07032 118.72852,177.07618 C 118.72852,177.08399 118.72559,177.08985 118.72559,177.09766 C 118.72559,180.37305 125.12793,183.02735 133.02441,183.02735 C 140.92187,183.02735 147.32227,180.37305 147.32227,177.09766 C 147.32227,177.08985 147.31934,177.08399 147.31934,177.07618 C 147.31934,177.07032 147.32227,177.06251 147.32227,177.05665 C 147.32227,177.04884 147.31934,177.04298 147.31934,177.03516 C 147.31934,177.0293 147.32227,177.02149 147.32227,177.01563 C 147.32227,177.00782 147.31934,177.00001 147.31934,176.99415 C 147.31934,176.98829 147.32227,176.98048 147.32227,176.97266 C 147.32227,176.9668 147.31934,176.96094 147.31934,176.95313 C 147.31934,176.94532 147.32227,176.93946 147.32227,176.93165 C 147.32227,176.92579 147.31934,176.91798 147.31934,176.91016 C 147.31934,176.9043 147.32227,176.89844 147.32227,176.89063 C 147.32227,176.88282 147.31934,176.87696 147.31934,176.86915 C 147.31934,176.86329 147.32227,176.85743 147.32227,176.84962 C 147.32227,176.8418 147.31934,176.83594 147.31934,176.83008 C 147.31934,176.82227 147.32227,176.81446 147.32227,176.8086 C 147.32227,176.80079 147.31934,176.79493 147.31934,176.78712 C 147.31934,176.7793 147.32227,176.77344 147.32227,176.76758 C 147.32227,176.75977 147.31934,176.75196 147.31934,176.7461 C 147.31934,176.74024 147.32227,176.73243 147.32227,176.72462 C 147.32227,176.71876 147.31934,176.71094 147.31934,176.70508 C 147.31934,176.69727 147.32227,176.68946 147.32227,176.6836 C 147.32227,176.67579 147.31934,176.66993 147.31934,176.66212 C 147.31934,176.65626 147.32227,176.64844 147.32227,176.64258 C 147.32227,176.63477 147.31934,176.62891 147.31934,176.6211 C 147.31934,176.61524 147.32227,176.60743 147.32227,176.59962 C 147.32227,176.59376 147.31934,176.5879 147.31934,176.58008 C 147.31934,176.57227 147.32227,176.56641 147.32227,176.5586 C 147.32227,176.55274 147.31934,176.54493 147.31934,176.53907 C 147.31934,176.53126 147.32227,176.5254 147.32227,176.51758 C 147.32227,176.50977 147.31934,176.50391 147.31934,176.49805 C 147.31934,176.49024 147.32227,176.48438 147.32227,176.47657 C 147.32227,176.46876 147.31934,176.4629 147.31934,176.45508 C 147.31934,176.44922 147.32227,176.44141 147.32227,176.43555 C 147.32227,176.42774 147.31934,176.42188 147.31934,176.41407 C 147.31934,176.40821 147.32227,176.4004 147.32227,176.39454 C 147.32227,176.38672 147.31934,176.37891 147.31934,176.37305 C 147.31934,176.36719 147.32227,176.35938 147.32227,176.35157 C 147.32227,176.34571 147.31934,176.3379 147.31934,176.33008 C 147.31934,176.32422 147.32227,176.31641 147.32227,176.31055 C 147.32227,176.30274 147.31934,176.29688 147.31934,176.28907 C 147.31934,176.28321 147.32227,176.27735 147.32227,176.26954 C 147.32227,176.26172 147.31934,176.25586 147.31934,176.24805 C 147.31934,176.24219 147.32227,176.23438 147.32227,176.22657 C 147.32227,176.22071 147.31934,176.21485 147.31934,176.20704 C 147.31934,176.19922 147.32227,176.19336 147.32227,176.18751 C 147.32227,176.17969 147.31934,176.17188 147.31934,176.16602 C 147.31934,176.15821 147.32227,176.15235 147.32227,176.14454 C 147.32227,176.13672 147.31934,176.13086 147.31934,176.12501 C 147.31934,176.11719 147.32227,176.11133 147.32227,176.10352 C 147.32227,176.09571 147.31934,176.08985 147.31934,176.08399 C 147.31934,176.07618 147.32227,176.06836 147.32227,176.06251 C 147.32227,176.05469 147.31934,176.04883 147.31934,176.04102 C 147.31934,176.03516 147.32227,176.02735 147.32227,176.02149 C 147.32227,176.01368 147.31934,176.00586 147.31934,176.00001 C 147.31934,175.99415 147.32227,175.98633 147.32227,175.97852 C 147.32227,175.97266 147.31934,175.96485 147.31934,175.95899 C 147.31934,175.95118 147.32227,175.94532 147.32227,175.93751 C 147.32227,175.92969 147.31934,175.92383 147.31934,175.91602 C 147.31934,175.91016 147.32227,175.9043 147.32227,175.89649 C 147.32227,175.88868 147.31934,175.88282 147.31934,175.875 C 147.31934,175.86915 147.32227,175.86133 147.32227,175.85547 C 147.32227,175.84766 147.31934,175.8418 147.31934,175.83399 C 147.31934,175.82618 147.32227,175.82032 147.32227,175.81446 C 147.32227,175.80665 147.31934,175.79883 147.31934,175.79297 C 147.31934,175.78516 147.32227,175.7793 147.32227,175.77149 C 147.32227,175.76368 147.31934,175.75782 147.31934,175.75196 C 147.31934,175.74415 147.32227,175.73829 147.32227,175.73047 C 147.32227,175.72461 147.31934,175.7168 147.31934,175.70899 C 147.31934,175.70313 147.32227,175.69532 147.32227,175.68946 C 147.32227,175.68165 147.31934,175.67579 147.31934,175.66797 C 147.31934,175.66211 147.32227,175.65625 147.32227,175.64844 C 147.32227,175.64063 147.31934,175.63477 147.31934,175.62696 C 147.31934,175.6211 147.32227,175.61329 147.32227,175.60547 C 147.32227,175.59961 147.31934,175.5918 147.31934,175.58399 C 147.31934,175.57813 147.32227,175.57227 147.32227,175.56446 C 147.32227,175.55665 147.31934,175.55079 147.31934,175.54493 C 147.31934,175.53711 147.32227,175.53125 147.32227,175.52344 C 147.32227,175.51563 147.31934,175.50977 147.31934,175.50391 C 147.31934,175.4961 147.32227,175.48829 147.32227,175.48243 C 147.32227,175.47461 147.31934,175.46875 147.31934,175.46094 C 147.31934,175.45313 147.32227,175.44727 147.32227,175.44141 C 147.32227,175.4336 147.31934,175.42579 147.31934,175.41993 C 147.31934,175.41407 147.32227,175.40625 147.32227,175.39844 C 147.32227,175.39258 147.31934,175.38477 147.31934,175.37891 C 147.31934,175.3711 147.32227,175.36524 147.32227,175.35743 C 147.32227,175.35157 147.31934,175.34375 147.31934,175.33789 C 147.31934,175.33008 147.32227,175.32422 147.32227,175.31641 C 147.32227,175.3086 147.31934,175.30274 147.31934,175.29493 C 147.31934,175.28907 147.32227,175.28321 147.32227,175.27539 C 147.32227,175.26758 147.31934,175.26172 147.31934,175.25391 C 147.31934,175.24805 147.32227,175.24024 147.32227,175.23243 C 147.32227,175.22657 147.31934,175.21875 147.31934,175.21289 C 147.31934,175.20508 147.32227,175.19922 147.32227,175.19141 C 147.32227,175.1836 147.31934,175.17774 147.31934,175.17188 C 147.31934,175.16407 147.32227,175.15821 147.32227,175.15039 C 147.32227,175.14258 147.31934,175.13672 147.31934,175.12891 C 147.31934,175.12305 147.32227,175.11524 147.32227,175.10938 C 147.32227,175.10157 147.31934,175.09571 147.31934,175.08789 C 147.31934,175.08203 147.32227,175.07422 147.32227,175.06836 C 147.32227,175.06055 147.31934,175.05274 147.31934,175.04688 C 147.31934,175.04102 147.32227,175.03321 147.32227,175.02539 C 147.32227,175.01953 147.31934,175.01172 147.31934,175.00586 C 147.31934,174.99805 147.32227,174.99219 147.32227,174.98438 C 147.32227,174.97852 147.31934,174.97071 147.31934,174.96289 C 147.31934,174.95703 147.32227,174.95118 147.32227,174.94336 C 147.32227,174.93555 147.31934,174.92969 147.31934,174.92188 C 147.31934,174.91602 147.32227,174.91016 147.32227,174.90235 C 147.32227,174.89453 147.31934,174.88868 147.31934,174.88282 C 147.31934,174.875 147.32227,174.86719 147.32227,174.86133 C 147.32227,174.85352 147.31934,174.84766 147.31934,174.83985 C 147.31934,174.83203 147.32227,174.82618 147.32227,174.82032 C 147.32227,174.8125 147.31934,174.80469 147.31934,174.79883 C 147.31934,174.79297 147.32227,174.78516 147.32227,174.77735 C 147.32227,174.77149 147.31934,174.76367 147.31934,174.75782 C 147.31934,174.75 147.32227,174.74219 147.32227,174.73633 C 147.32227,174.72852 147.31934,174.72266 147.31934,174.71485 C 147.31934,174.70899 147.32227,174.70117 147.32227,174.69532 C 147.32227,174.6875 147.31934,174.67969 147.31934,174.67383 C 147.31934,174.66797 147.32227,174.66016 147.32227,174.65235 C 147.32227,174.64649 147.31934,174.64063 147.31934,174.63282 C 147.31934,174.625 147.32227,174.61914 147.32227,174.61133 C 147.32227,174.60547 147.31934,174.59766 147.31934,174.5918 C 147.31934,174.58399 147.32227,174.57813 147.32227,174.57032 C 147.32227,174.5625 147.31934,174.55664 147.31934,174.55078 C 147.31934,174.54297 147.32227,174.53711 147.32227,174.5293 C 147.32227,174.52149 147.31934,174.51563 147.31934,174.50782 C 147.31934,174.50196 147.32227,174.49414 147.32227,174.48828 C 147.32227,174.48047 147.31934,174.47461 147.31934,174.4668 C 147.31934,174.45899 147.32227,174.45313 147.32227,174.44727 C 147.32227,174.43946 147.31934,174.43164 147.31934,174.42578 C 147.31934,174.41992 147.32227,174.41211 147.32227,174.4043 C 147.32227,174.39844 147.31934,174.39063 147.31934,174.38281 C 147.31934,174.37696 147.32227,174.36914 147.32227,174.36328 C 147.32227,174.35547 147.31934,174.34961 147.31934,174.3418 C 147.31934,174.33594 147.32227,174.33008 147.32227,174.32227 C 147.32227,174.31446 147.31934,174.3086 147.31934,174.30078 C 147.31934,174.29492 147.32227,174.28711 147.32227,174.2793 C 147.32227,174.27344 147.31934,174.26758 147.31934,174.25977 C 147.31934,174.25196 147.32227,174.2461 147.32227,174.24024 C 147.32227,174.23242 147.31934,174.22461 147.31934,174.21875 C 147.31934,174.21094 147.32227,174.20508 147.32227,174.19727 C 147.32227,174.18946 147.31934,174.1836 147.31934,174.17774 C 147.31934,174.16992 147.32227,174.16406 147.32227,174.15625 C 147.32227,174.14844 147.31934,174.14258 147.31934,174.13672 C 147.31934,174.12891 147.32227,174.1211 147.32227,174.11524 C 147.32227,174.10742 147.31934,174.10156 147.31934,174.09375 C 147.31934,174.08789 147.32227,174.08008 147.32227,174.07422 C 147.32227,174.06641 147.31934,174.0586 147.31934,174.05274 C 147.31934,174.04688 147.32227,174.03906 147.32227,174.03125 C 147.32227,174.02539 147.31934,174.01758 147.31934,174.01172 C 147.31934,174.00391 147.32227,173.99805 147.32227,173.99024 C 147.32227,173.98242 147.31934,173.97656 147.31934,173.96875 C 147.31934,173.96289 147.32227,173.95703 147.32227,173.94922 C 147.32227,173.94141 147.31934,173.93555 147.31934,173.92774 C 147.31934,173.92188 147.32227,173.91406 147.32227,173.9082 C 147.32227,173.90039 147.31934,173.89453 147.31934,173.88672 C 147.31934,173.87891 147.32227,173.87305 147.32227,173.86719 C 147.32227,173.85938 147.31934,173.85156 147.31934,173.8457 C 147.31934,173.83789 147.32227,173.83203 147.32227,173.82422 C 147.32227,173.81641 147.31934,173.81055 147.31934,173.80469 C 147.31934,173.79688 147.32227,173.79102 147.32227,173.7832 C 147.32227,173.77735 147.31934,173.76953 147.31934,173.76172 C 147.31934,173.75586 147.32227,173.74805 147.32227,173.74219 C 147.32227,173.73438 147.31934,173.72852 147.31934,173.7207 C 147.31934,173.71485 147.32227,173.70703 147.32227,173.70117 C 147.32227,173.69336 147.31934,173.6875 147.31934,173.67969 C 147.31934,173.67383 147.32227,173.66602 147.32227,173.6582 C 147.32227,173.65234 147.31934,173.64453 147.31934,173.63672 C 147.31934,173.63086 147.32227,173.625 147.32227,173.61719 C 147.32227,173.60938 147.31934,173.60352 147.31934,173.5957 C 147.31934,173.58984 147.32227,173.58399 147.32227,173.57617 C 147.32227,173.56836 147.31934,173.5625 147.31934,173.55664 C 147.31934,173.54883 147.32227,173.54102 147.32227,173.53516 C 147.32227,173.52734 147.31934,173.52149 147.31934,173.51367 C 147.31934,173.50586 147.32227,173.5 147.32227,173.49414 C 147.32227,173.48633 147.31934,173.47852 147.31934,173.47266 C 147.31934,173.4668 147.32227,173.45899 147.32227,173.45117 C 147.32227,173.44531 147.31934,173.4375 147.31934,173.43164 C 147.31934,173.42383 147.32227,173.41797 147.32227,173.41016 C 147.32227,173.4043 147.31934,173.39649 147.31934,173.39063 C 147.31934,173.38281 147.32227,173.375 147.32227,173.36914 C 147.32227,173.36133 147.31934,173.35547 147.31934,173.34766 C 147.31934,173.3418 147.32227,173.33594 147.32227,173.32813 C 147.32227,173.32031 147.31934,173.31445 147.31934,173.30664 C 147.31934,173.30078 147.32227,173.29297 147.32227,173.28516 C 147.32227,173.2793 147.31934,173.27149 147.31934,173.26563 C 147.31934,173.25781 147.32227,173.25195 147.32227,173.24414 C 147.32227,173.23633 147.31934,173.23047 147.31934,173.22461 C 147.31934,173.2168 147.32227,173.21094 147.32227,173.20313 C 147.32227,173.19531 147.31934,173.18945 147.31934,173.18164 C 147.31934,173.17578 147.32227,173.16797 147.32227,173.16211 C 147.32227,173.1543 147.31934,173.14844 147.31934,173.14063 C 147.31934,173.13477 147.32227,173.12695 147.32227,173.12109 C 147.32227,173.11328 147.31934,173.10547 147.31934,173.09961 C 147.31934,173.09375 147.32227,173.08594 147.32227,173.07813 C 147.32227,173.07227 147.31934,173.06445 147.31934,173.05859 C 147.31934,173.05078 147.32227,173.04492 147.32227,173.03711 C 147.32227,173.03125 147.31934,173.02344 147.31934,173.01563 C 147.31934,173.00977 147.32227,173.00391 147.32227,172.99609 C 147.32227,172.98828 147.31934,172.98242 147.31934,172.97461 C 147.31934,172.96875 147.32227,172.96289 147.32227,172.95508 C 147.32227,172.94727 147.31934,172.94141 147.31934,172.93555 z "
   style="fill:url(#XMLID_21_)"
   id="path108" />
					<ellipse
   cx="133.02393"
   cy="170.82031"
   rx="14.29834"
   ry="5.9296875"
   style="fill:#ffffff"
   id="ellipse110" /> 
					
						<linearGradient
   x1="133.02441"
   y1="162.10254"
   x2="133.02441"
   y2="195.58078"
   id="XMLID_22_"
   gradientUnits="userSpaceOnUse">
						<stop
   style="stop-color:#ffffff;stop-opacity:1"
   offset="0.005618"
   id="stop113" />
						<stop
   style="stop-color:#ff0000;stop-opacity:1"
   offset="0.54494399"
   id="stop115" />
						<stop
   style="stop-color:#cf0000;stop-opacity:1"
   offset="1"
   id="stop117" />
						<a:midPointStop
   style="stop-color:#FFFFFF"
   offset="0.005618" />
						<a:midPointStop
   style="stop-color:#FFFFFF"
   offset="0.5" />
						<a:midPointStop
   style="stop-color:#FF0000"
   offset="0.544944" />
						<a:midPointStop
   style="stop-color:#FF0000"
   offset="0.5" />
						<a:midPointStop
   style="stop-color:#CF0000"
   offset="1" />
					</linearGradient>
					<ellipse
   cx="133.02393"
   cy="172.91406"
   rx="14.29834"
   ry="5.9277344"
   style="fill:url(#XMLID_22_)"
   id="ellipse119" /> 
				</g>
			</g>
		</g>
	</svg>