<?xml version="1.0" encoding="UTF-8" standalone="no"?>
<!DOCTYPE svg PUBLIC "-//W3C//DTD SVG 20010904//EN"
"http://www.w3.org/TR/2001/REC-SVG-20010904/DTD/svg10.dtd">
<!-- Created with Sodipodi ("http://www.sodipodi.com/") -->
<svg
   width="44.572pt"
   height="48pt"
   viewBox="0 0 44.572 48"
   xml:space="preserve"
   xmlns="http://www.w3.org/2000/svg"
   xmlns:xml="http://www.w3.org/XML/1998/namespace"
   xmlns:sodipodi="http://sodipodi.sourceforge.net/DTD/sodipodi-0.dtd"
   xmlns:xlink="http://www.w3.org/1999/xlink"
   id="svg664"
   sodipodi:version="0.32"
   sodipodi:docname="/home/adam/Projekt/AROS/images/Gorilla/Elements/Puzzle.svg"
   sodipodi:docbase="/home/adam/Projekt/AROS/images/Gorilla/Elements">
  <defs
     id="defs708" />
  <sodipodi:namedview
     id="base" />
  <g
     id="Layer_x0020_6"
     style="fill-rule:nonzero;clip-rule:nonzero;fill:#9D9E92;stroke:#000000;stroke-miterlimit:4;"
     transform="matrix(1.816821,0.000000,0.000000,1.816821,-22.12471,-18.34969)">
    <path
       style="fill:#000000;stroke:none;"
       d="M30.092,16.138h-11.61c0,0,0,3.571,0,4.309c-0.546-0.888-1.343-1.404-2.209-1.404c-1.646,0-2.936,1.841-2.936,4.192c0,2.35,1.29,4.192,2.936,4.192c0.877,0,1.664-0.504,2.209-1.396c0,0.666,0,4.156,0,4.156h11.935c0,0,0-3.433,0-4.164    c0.545,0.888,1.343,1.404,2.209,1.404c1.646,0,2.936-1.842,2.936-4.192c0-2.351-1.29-4.192-2.936-4.192c-0.877,0-1.664,0.503-2.209,1.396c0-0.671,0-4.301,0-4.301h-0.324z"
       id="path690" />
    <linearGradient
       id="aigrd5"
       gradientUnits="userSpaceOnUse"
       x1="20.8071"
       y1="19.7559"
       x2="28.049"
       y2="26.5292">
      <stop
         offset="0"
         style="stop-color:#DEDFCE"
         id="stop692" />
      <stop
         offset="1"
         style="stop-color:#C2C4B5"
         id="stop693" />
    </linearGradient>
    <path
       style="fill:url(#aigrd5);stroke:none;"
       d="M32.495,19.818c-0.705,0-1.324,0.61-1.671,1.525c-0.541,0.236-1.3,0.055-1.509-0.546v-3.786h-0.106h-9.78h-0.106v3.84c-0.205,0.64-0.934,0.828-1.473,0.593c-0.338-0.972-0.976-1.627-1.708-1.627c-1.085,0-1.965,1.442-1.965,3.222    c0,1.778,0.88,3.222,1.965,3.222c0.706,0,1.324-0.61,1.671-1.525c0.542-0.236,1.3-0.056,1.509,0.545v3.752h0.106h9.78h0.106v-3.806c0.204-0.64,0.934-0.828,1.473-0.593c0.338,0.971,0.977,1.627,1.707,1.627c1.086,0,1.965-1.443,1.965-3.222    c0-1.779-0.879-3.222-1.965-3.222z"
       id="path694" />
    <g
       style="stroke:none;"
       id="g695">
      <path
         d="M17.496,21.223c0.091,0.04,0.188,0.066,0.288,0.082c-0.241-0.599-0.6-1.057-1.023-1.287c0.306,0.287,0.561,0.704,0.735,1.205z"
         id="path696" />
      <path
         d="M28.961,20.576c0.091,0.26,0.285,0.441,0.519,0.544c-0.069-0.082-0.126-0.176-0.164-0.286v-3.786h-0.106h-0.248v3.527z"
         id="path697" />
      <path
         d="M17.459,24.514c-0.346,0.916-0.965,1.525-1.67,1.525c-0.216,0-0.424-0.059-0.618-0.164c0.287,0.269,0.619,0.423,0.972,0.423c0.706,0,1.324-0.61,1.671-1.525c0.307-0.134,0.684-0.134,0.991,0.002c-0.313-0.367-0.902-0.454-1.346-0.261z"
         id="path698" />
      <path
         d="M33.114,20.019c0.592,0.555,0.992,1.6,0.992,2.799c0,1.779-0.88,3.221-1.965,3.221c-0.216,0-0.424-0.058-0.618-0.163c0.286,0.269,0.618,0.422,0.972,0.422c1.086,0,1.965-1.442,1.965-3.222c0-1.424-0.564-2.632-1.346-3.058z"
         id="path699" />
      <path
         d="M30.434,24.412c-0.539-0.234-1.268-0.047-1.473,0.594v3.806h-0.105h-9.533v0.259h0.106h9.78h0.106v-3.807c0.169-0.531,0.7-0.75,1.185-0.675c-0.023-0.058-0.045-0.116-0.066-0.177z"
         id="path700" />
    </g>
    <g
       style="fill:#F3F5E5;stroke:none;"
       id="g701">
      <path
         d="M14.429,23.267c0-1.779,0.879-3.221,1.965-3.221c0.32,0,0.621,0.125,0.888,0.347c-0.322-0.381-0.718-0.606-1.146-0.606c-1.085,0-1.965,1.442-1.965,3.221c0,1.254,0.438,2.34,1.076,2.872c-0.494-0.585-0.816-1.537-0.816-2.613z"
         id="path702" />
      <path
         d="M31.075,21.57c0.348-0.915,0.966-1.525,1.672-1.525c0.32,0,0.622,0.126,0.889,0.349c-0.322-0.382-0.719-0.608-1.148-0.608c-0.705,0-1.324,0.61-1.671,1.525c-0.364,0.159-0.826,0.128-1.153-0.091c0.29,0.442,0.935,0.559,1.412,0.35z"
         id="path703" />
      <path
         d="M18.101,21.672c0.539,0.235,1.268,0.046,1.473-0.593v-3.84h0.106h9.628V16.98h-0.106h-9.78h-0.106v3.84c-0.182,0.569-0.779,0.78-1.289,0.654c0.026,0.064,0.052,0.13,0.075,0.198z"
         id="path704" />
      <path
         d="M19.574,25.509c-0.068-0.196-0.196-0.348-0.355-0.454c0.039,0.059,0.072,0.123,0.097,0.195v3.752h0.106h0.153v-3.493z"
         id="path705" />
      <path
         d="M31.039,24.861c-0.059-0.025-0.121-0.046-0.184-0.062c0.187,0.457,0.443,0.831,0.745,1.082c-0.229-0.27-0.422-0.618-0.562-1.021z"
         id="path706" />
    </g>
  </g>
</svg>
